<svg xmlns="http://www.w3.org/2000/svg" width="796" height="359" viewBox="0 0 796 359">
  <g id="Grupo_1177736" data-name="Grupo 1177736" transform="translate(-236.711 -944)">
    <g id="Rectángulo_454768" data-name="Rectángulo 454768" transform="translate(236.711 944)" fill="#dfd9cd" stroke="#5f4205" stroke-width="2">
      <rect width="248" height="359" stroke="none"/>
      <rect x="1" y="1" width="246" height="357" fill="none"/>
    </g>
    <g id="Rectángulo_454770" data-name="Rectángulo 454770" transform="translate(510.711 944)" fill="#e1cdce" stroke="#5e3637" stroke-width="2">
      <rect width="248" height="359" stroke="none"/>
      <rect x="1" y="1" width="246" height="357" fill="none"/>
    </g>
    <g id="Rectángulo_454772" data-name="Rectángulo 454772" transform="translate(784.711 944)" fill="#fcf9f5" stroke="#e5d5ba" stroke-width="2">
      <rect width="248" height="359" stroke="none"/>
      <rect x="1" y="1" width="246" height="357" fill="none"/>
    </g>
    <g id="Rectángulo_454769" data-name="Rectángulo 454769" transform="translate(236.711 944)" fill="#5f4205" stroke="#5f4205" stroke-width="2">
      <rect width="248" height="75" stroke="none"/>
      <rect x="1" y="1" width="246" height="73" fill="none"/>
    </g>
    <g id="Rectángulo_454771" data-name="Rectángulo 454771" transform="translate(510.711 944)" fill="#5e3637" stroke="#5e3637" stroke-width="2">
      <rect width="248" height="75" stroke="none"/>
      <rect x="1" y="1" width="246" height="73" fill="none"/>
    </g>
    <g id="Rectángulo_454773" data-name="Rectángulo 454773" transform="translate(784.711 944)" fill="#e5d5ba" stroke="#e5d5ba" stroke-width="2">
      <rect width="248" height="75" stroke="none"/>
      <rect x="1" y="1" width="246" height="73" fill="none"/>
    </g>
    <text id="Propiedades_organolépticas" data-name="Propiedades organolépticas" transform="translate(290 957.189)" fill="#fff" font-size="18" font-family="Roboto-Bold, Roboto" font-weight="700" letter-spacing="0.003em"><tspan x="21.979" y="19">Propiedades </tspan><tspan x="12.353" y="43">organolépticas</tspan></text>
    <text id="Constantes_físicas" data-name="Constantes físicas" transform="translate(560 957.189)" fill="#fff" font-size="18" font-family="Roboto-Bold, Roboto" font-weight="700" letter-spacing="0.003em"><tspan x="26.712" y="19">Constantes </tspan><tspan x="46.014" y="43">físicas</tspan></text>
    <text id="Propiedades_químicas" data-name="Propiedades químicas" transform="translate(835.711 957.189)" fill="#12263f" font-size="18" font-family="Roboto-Bold, Roboto" font-weight="700" letter-spacing="0.003em"><tspan x="21.979" y="19">Propiedades </tspan><tspan x="35.933" y="43">químicas</tspan></text>
    <text id="_-_pH_-_Índice_de_Acidez_I.A_._-_Índice_de_Éster_I.E_._-_Índice_de_saponificación._-_Índice_de_Acetilo_I.AC_._-_Composición_porcentual." data-name="- pH

- Índice de Acidez (I.A).

- Índice de Éster (I.E).

- Índice de saponificación.

- Índice de Acetilo (I.AC).

- Composición porcentual." transform="translate(821 1073.5)" fill="#12263f" font-size="16" font-family="Roboto-Regular, Roboto"><tspan x="0" y="17">- pH</tspan><tspan x="0" y="34"></tspan><tspan x="0" y="51">- Índice de Acidez (I.A).</tspan><tspan x="0" y="68"></tspan><tspan x="0" y="85">- Índice de Éster (I.E).</tspan><tspan x="0" y="102"></tspan><tspan x="0" y="119">- Índice de saponificación.</tspan><tspan x="0" y="136"></tspan><tspan x="0" y="153">- Índice de Acetilo (I.AC).</tspan><tspan x="0" y="170"></tspan><tspan x="0" y="187">- Composición porcentual.</tspan></text>
    <text id="_-_Densidad_a_20_C._-_Punto_de_solidificación_o_de_congelación._-_Índice_de_refracción._-_Poder_rotatorio._-_Solubilidad_en_etanol." data-name="- Densidad a 20°C.

- Punto de solidificación o de congelación.

- Índice de refracción.

- Poder rotatorio.

- Solubilidad en etanol." transform="translate(540.711 1073.5)" fill="#12263f" font-size="16" font-family="Roboto-Regular, Roboto"><tspan x="0" y="17">- Densidad a 20°C.</tspan><tspan x="0" y="34"></tspan><tspan x="0" y="51">- Punto de solidificación o </tspan><tspan x="0" y="68">de congelación.</tspan><tspan x="0" y="85"></tspan><tspan x="0" y="102">- Índice de refracción.</tspan><tspan x="0" y="119"></tspan><tspan x="0" y="136">- Poder rotatorio.</tspan><tspan x="0" y="153"></tspan><tspan x="0" y="170">- Solubilidad en etanol.</tspan></text>
    <text id="_-_Olor._-_Color._-_Sabor._-_Aspecto_de_los_aceites." data-name="- Olor.

- Color.

- Sabor.

- Aspecto de los aceites." transform="translate(270 1073.5)" fill="#12263f" font-size="16" font-family="Roboto-Regular, Roboto"><tspan x="0" y="17">- Olor.</tspan><tspan x="0" y="34"></tspan><tspan x="0" y="51">- Color.</tspan><tspan x="0" y="68"></tspan><tspan x="0" y="85">- Sabor.</tspan><tspan x="0" y="102"></tspan><tspan x="0" y="119">- Aspecto de los aceites.</tspan></text>
  </g>
</svg>
