<svg xmlns="http://www.w3.org/2000/svg" width="126.5" height="125.868" viewBox="0 0 126.5 125.868">
  <g id="Grupo_1178117" data-name="Grupo 1178117" transform="translate(-736.461 -8256.066)">
    <path id="Trazado_999279" data-name="Trazado 999279" d="M63.25,0A62.935,62.935,0,1,1,0,62.934,63.093,63.093,0,0,1,63.25,0" transform="translate(736.461 8256.066)" fill="#9d5a5c"/>
    <g id="Grupo_1177848" data-name="Grupo 1177848" transform="translate(343.707 8045.548)">
      <g id="Grupo_1177846" data-name="Grupo 1177846" transform="translate(416.282 232.544)">
        <g id="Grupo_1177838" data-name="Grupo 1177838" transform="translate(53.349 0)">
          <path id="Trazado_999397" data-name="Trazado 999397" d="M758.953,240.544v6.669h-16v-6.669a1.338,1.338,0,0,1,1.334-1.334h13.337A1.338,1.338,0,0,1,758.953,240.544Z" transform="translate(-742.948 -239.21)" fill="#534236"/>
        </g>
        <g id="Grupo_1177839" data-name="Grupo 1177839" transform="translate(48.014 8.002)">
          <path id="Trazado_999398" data-name="Trazado 999398" d="M742.864,305.882h-.013a2.447,2.447,0,0,0-.24-.613L732.288,287.21h-16l-1.734,3.028a7.908,7.908,0,0,1,1.734,4.975V353.9a5.333,5.333,0,0,1-5.335,5.335h26.675a5.333,5.333,0,0,0,5.335-5.335V306.589a2.509,2.509,0,0,0-.093-.707Z" transform="translate(-710.948 -287.21)" fill="#49586b"/>
        </g>
        <g id="Grupo_1177840" data-name="Grupo 1177840" transform="translate(5.335 13.337)">
          <path id="Trazado_999399" data-name="Trazado 999399" d="M470.953,320.544v6.669h-16v-6.669a1.338,1.338,0,0,1,1.334-1.334h13.337A1.338,1.338,0,0,1,470.953,320.544Z" transform="translate(-454.948 -319.21)" fill="#5f4205"/>
        </g>
        <g id="Grupo_1177841" data-name="Grupo 1177841" transform="translate(0 8.002)">
          <path id="Trazado_999400" data-name="Trazado 999400" d="M474.563,290.238a8.01,8.01,0,0,0-6.268-3.028H456.758a8,8,0,0,0-7.429,5.028l-3.814,9.536-1.227-1.227h-16l-4.161,5.2a5.321,5.321,0,0,0-1.174,3.334V353.9a5.333,5.333,0,0,0,5.335,5.335h42.679A5.333,5.333,0,0,0,476.3,353.9V295.212A7.908,7.908,0,0,0,474.563,290.238Zm-20.273,3.988a2.663,2.663,0,0,1,2.467-1.681h11.537a2.675,2.675,0,0,1,2.667,2.667v10.67H450.73a2.659,2.659,0,0,1-1.027-.2Z" transform="translate(-422.948 -287.21)" fill="#fff"/>
        </g>
        <g id="Grupo_1177842" data-name="Grupo 1177842" transform="translate(53.349 34.677)">
          <path id="Trazado_999401" data-name="Trazado 999401" d="M742.948,447.21h21.34v34.677h-21.34Z" transform="translate(-742.948 -447.21)" fill="#a7a7a7"/>
        </g>
        <g id="Grupo_1177843" data-name="Grupo 1177843" transform="translate(53.349 40.012)">
          <path id="Trazado_999402" data-name="Trazado 999402" d="M758.953,495.215a8,8,0,0,1-16,0c0-6.669,8-16,8-16S758.953,488.546,758.953,495.215Z" transform="translate(-742.948 -479.21)" fill="#12263f"/>
        </g>
        <g id="Grupo_1177844" data-name="Grupo 1177844" transform="translate(8.002 40.012)">
          <path id="Trazado_999403" data-name="Trazado 999403" d="M470.948,511.219V479.21h37.344v32.009Z" transform="translate(-470.948 -479.21)" fill="#a7a7a7"/>
        </g>
        <g id="Grupo_1177845" data-name="Grupo 1177845" transform="translate(13.337 45.347)">
          <path id="Trazado_999404" data-name="Trazado 999404" d="M529.343,528.7l-.827-1.654a8.773,8.773,0,0,0-1.227-1.854,9.152,9.152,0,0,0-5.722-3.2,9.952,9.952,0,0,0-1.414-.107,3.966,3.966,0,0,1-2.788-1.134,3.914,3.914,0,0,1-1.094-1.894l-.133-.574a9.009,9.009,0,0,0-1.32-2.934,9.188,9.188,0,0,0-6.535-4.041,7.169,7.169,0,0,0-1.2-.093h-1.467a2.667,2.667,0,1,0,0,5.335h1.467a4.425,4.425,0,0,1,1.2.173v.013a3.939,3.939,0,0,1,2.587,2.561,2.309,2.309,0,0,1,.093.28l.133.574a9.1,9.1,0,0,0,1.987,3.814,9.277,9.277,0,0,0,5.908,3.174,8.533,8.533,0,0,0,1.174.08,4.005,4.005,0,0,1,2.534.907,3.864,3.864,0,0,1,1.04,1.307l.827,1.641a2.644,2.644,0,0,0,2.387,1.48,2.592,2.592,0,0,0,1.187-.28,2.661,2.661,0,0,0,1.347-1.547,2.614,2.614,0,0,0-.147-2.027Z" transform="translate(-502.948 -511.21)" fill="#64554b"/>
        </g>
      </g>
      <g id="Grupo_1177847" data-name="Grupo 1177847" transform="translate(414.948 231.21)">
        <path id="Trazado_999405" data-name="Trazado 999405" d="M523.043,519.78a10.614,10.614,0,0,0-9.551-5.9,2.664,2.664,0,0,1-2.587-2.021l-.141-.568a10.659,10.659,0,0,0-10.352-8.081h-1.462a4,4,0,0,0,0,8h1.462A2.664,2.664,0,0,1,503,513.233l.141.568a10.664,10.664,0,0,0,10.36,8.081,2.653,2.653,0,0,1,2.386,1.475l.824,1.648a4,4,0,1,0,7.157-3.58Zm-7,.085a5.317,5.317,0,0,0-1.635-.567l1.23-2.459a7.918,7.918,0,0,1,2.859,1.459Zm-3.214-3.374-1.234,2.467a7.958,7.958,0,0,1-3.134-1.539l2.239-1.679a5.316,5.316,0,0,0,2.129.751Zm-7.1-3.337-.033-.133,2.123-2.123a7.981,7.981,0,0,1,.356,1.042l.141.568a5.317,5.317,0,0,0,.527,1.288l-2.15,1.612a8.029,8.029,0,0,1-.964-2.254Zm-8.113-5.943a1.336,1.336,0,0,1,1.334-1.334h1.334v2.667h-1.334A1.336,1.336,0,0,1,497.615,507.211Zm5.335,1.977V506.3a7.97,7.97,0,0,1,3.432,2.266l-1.9,1.9a5.3,5.3,0,0,0-1.536-1.271Zm18.6,14.45a1.306,1.306,0,0,1-.668.772,1.364,1.364,0,0,1-1.79-.6l-.824-1.647c-.071-.143-.157-.273-.24-.408l2.245-1.434c.132.212.269.422.383.65l.824,1.646a1.335,1.335,0,0,1,.071,1.018Z" transform="translate(-481.611 -457.863)" fill="#e5d5ba"/>
        <path id="Trazado_999406" data-name="Trazado 999406" d="M462.948,505.887H502.96V471.21H462.948Zm2.667-32.009h34.677v29.342H465.615Z" transform="translate(-454.946 -431.198)" fill="#e5d5ba"/>
        <path id="Trazado_999407" data-name="Trazado 999407" d="M494.948,631.21h10.67v2.667h-10.67Z" transform="translate(-481.611 -564.524)" fill="#e5d5ba"/>
        <path id="Trazado_999408" data-name="Trazado 999408" d="M494.948,599.21h8v2.667h-8Z" transform="translate(-481.611 -537.859)" fill="#e5d5ba"/>
        <path id="Trazado_999409" data-name="Trazado 999409" d="M497.111,257.942l-10.142-17.751v-6.314a2.67,2.67,0,0,0-2.667-2.667H470.965a2.67,2.67,0,0,0-2.667,2.667v6.314l-.686,1.2a9.291,9.291,0,0,0-5.983-2.178H450.1a9.293,9.293,0,0,0-8.669,5.868l-2.473,6.183v-4.049a2.67,2.67,0,0,0-2.667-2.667H422.95a2.67,2.67,0,0,0-2.667,2.667v6.2l-3.873,4.841a6.694,6.694,0,0,0-1.462,4.167v44.809a6.676,6.676,0,0,0,6.669,6.669H490.97a6.676,6.676,0,0,0,6.669-6.669V259.926a3.992,3.992,0,0,0-.528-1.985Zm-3.1-.057H470.965v-9.336a9.271,9.271,0,0,0-1.49-5.041l.93-1.627h14.458Zm-23.043,37.2a9.328,9.328,0,0,0,16-6.522c0-7.081-7.984-16.477-8.324-16.873l-1.012-1.182-1.012,1.182a51.68,51.68,0,0,0-5.656,8.3V268.554h18.672v32.009H470.965Zm0-6.522c0-4.731,4.583-11.185,6.669-13.877,2.086,2.691,6.669,9.139,6.669,13.877a6.669,6.669,0,1,1-13.337,0ZM484.3,233.877v5.335H470.965v-5.335Zm-48.014,13.337v5.335H422.95v-5.335Zm-17.8,12.709,3.765-4.707h14.811l4.163,4.163a3.978,3.978,0,0,0,2.832,1.172H465.63v-12a4.006,4.006,0,0,0-4-4H450.1a3.983,3.983,0,0,0-3.716,2.515l-3.913,9.782-2.051-2.051,3.488-8.721a6.639,6.639,0,0,1,6.192-4.192h11.531a6.676,6.676,0,0,1,6.669,6.669v14.671H417.615v-.8A4.016,4.016,0,0,1,418.492,259.924Zm26.434-2.039,3.933-9.831a1.326,1.326,0,0,1,1.238-.839h11.531a1.336,1.336,0,0,1,1.334,1.334v9.336Zm-23.31,53.349a4.006,4.006,0,0,1-4-4V265.887H468.3v41.346a4.006,4.006,0,0,1-4,4Zm69.354,0H469.6a6.6,6.6,0,0,0,1.368-4v-4H492.3V265.887h-21.34v-5.335h24.007v46.68A4.006,4.006,0,0,1,490.97,311.234Z" transform="translate(-414.948 -231.21)" fill="#3b281b"/>
      </g>
    </g>
  </g>
</svg>
