<svg xmlns="http://www.w3.org/2000/svg" width="101.452" height="116.522" viewBox="0 0 101.452 116.522">
  <g id="Grupo_1178117" data-name="Grupo 1178117" transform="translate(-686.818 -5660.729)">
    <g id="Grupo_1177783" data-name="Grupo 1177783" transform="translate(378.604 5431.987)">
      <path id="Trazado_999354" data-name="Trazado 999354" d="M630.84,439.186A13.156,13.156,0,0,1,647,459.891l-4.836-3.432a7.518,7.518,0,1,0-10.525-9.876H629.19V439.2Z" transform="translate(-245.571 -159.221)" fill="#bfd9ea"/>
      <path id="Trazado_999355" data-name="Trazado 999355" d="M481.361,447.436a5.6,5.6,0,0,1-5.225-3.588l-6.523-16.958a20.523,20.523,0,0,1,11.7-26.439,14.941,14.941,0,0,0,9.482-13.872V364.742h16.915v21.837a14.942,14.942,0,0,0,9.481,13.872,20.523,20.523,0,0,1,11.7,26.441l-6.527,16.956a5.6,5.6,0,0,1-5.221,3.588Z" transform="translate(-122.445 -104.05)" fill="#bfd9ea"/>
      <path id="Trazado_999356" data-name="Trazado 999356" d="M552.974,443.848,559.5,426.89a20.523,20.523,0,0,0-11.7-26.439,14.942,14.942,0,0,1-9.482-13.872V364.742H530.8v21.837a14.941,14.941,0,0,1-9.482,13.872,20.523,20.523,0,0,0-11.7,26.441l6.527,16.956a5.6,5.6,0,0,0,5.221,3.588h26.394A5.6,5.6,0,0,0,552.974,443.848Z" transform="translate(-153.046 -104.05)" fill="#e2eff7"/>
      <path id="Trazado_999357" data-name="Trazado 999357" d="M311.973,256.018h-3.759a11.288,11.288,0,0,1,11.276-11.276h5.638V248.5H319.49A7.518,7.518,0,0,0,311.973,256.018Z" transform="translate(0 -12.241)" fill="#a06628"/>
      <rect id="Rectángulo_454814" data-name="Rectángulo 454814" width="41.772" height="16.855" rx="8.428" transform="translate(311.878 326.21)" fill="#236905"/>
      <rect id="Rectángulo_454815" data-name="Rectángulo 454815" width="41.772" height="15.39" rx="7.695" transform="translate(311.878 279.309)" fill="#236905"/>
      <path id="Trazado_999358" data-name="Trazado 999358" d="M340.214,508.742h33.829v31.95H340.214Z" transform="translate(-24.482 -214.221)" fill="#784d1e"/>
      <path id="Trazado_999359" data-name="Trazado 999359" d="M392.4,544.933V516.742H369.852a5.638,5.638,0,0,0-5.638,5.638v16.915a5.638,5.638,0,0,0,5.638,5.638Z" transform="translate(-42.844 -220.342)" fill="#9a7a56"/>
      <rect id="Rectángulo_454816" data-name="Rectángulo 454816" width="18.321" height="7.328" rx="3.664" transform="translate(323.603 230.941)" fill="#87abc9"/>
      <rect id="Rectángulo_454817" data-name="Rectángulo 454817" width="15.39" height="7.328" rx="3.664" transform="translate(325.069 251.461)" fill="#87abc9"/>
      <path id="Trazado_999360" data-name="Trazado 999360" d="M373.968,377.415v-2.924a5.916,5.916,0,0,0-3.86-6.078c-4.279-.958-7.416-5.886-7.416-11.671H351.415c0,5.785-3.137,10.713-7.416,11.671a5.917,5.917,0,0,0-3.86,6.078v2.924Z" transform="translate(-24.407 -97.93)" fill="#784d1e"/>
      <ellipse id="Elipse_13663" data-name="Elipse 13663" cx="9.161" cy="10.626" rx="9.161" ry="10.626" transform="translate(323.603 299.828)" fill="#236905"/>
      <rect id="Rectángulo_454818" data-name="Rectángulo 454818" width="24.184" height="11.726" rx="5.863" transform="translate(364.643 249.262)" fill="#87abc9"/>
      <path id="Trazado_999361" data-name="Trazado 999361" d="M552.213,586.812h-13.2a8.493,8.493,0,0,1-8.423-7.437l-1.676-13.419a8.2,8.2,0,0,1,8.134-9.215h17.136a8.2,8.2,0,0,1,8.134,9.209l-1.676,13.419a8.489,8.489,0,0,1-8.424,7.442Z" transform="translate(-168.799 -250.945)" fill="#a06628"/>
      <path id="Trazado_999362" data-name="Trazado 999362" d="M396.214,268.742h7.518V281.9h-7.518Z" transform="translate(-67.327 -30.603)" fill="#a06628"/>
      <path id="Trazado_999363" data-name="Trazado 999363" d="M388.469,368.413c-4.279-.958-7.416-5.886-7.416-11.671h-5.638c0,5.785-3.137,10.713-7.416,11.671a5.917,5.917,0,0,0-3.86,6.078v2.924h28.191v-2.924A5.916,5.916,0,0,0,388.469,368.413Z" transform="translate(-42.769 -97.93)" fill="#9a7a56"/>
      <ellipse id="Elipse_13664" data-name="Elipse 13664" cx="7.518" cy="10.13" rx="7.518" ry="10.13" transform="translate(327.008 300.366)" fill="#a06628"/>
      <path id="Trazado_999364" data-name="Trazado 999364" d="M409.852,294.139v-9.4H407.86a3.648,3.648,0,0,0-3.646,3.646v5.751Z" transform="translate(-73.447 -42.844)" fill="#e3d3c1"/>
      <path id="Trazado_999365" data-name="Trazado 999365" d="M375.463,549.174a12.255,12.255,0,1,0-11.276-12.216A11.787,11.787,0,0,0,375.463,549.174Zm0-20.673a8.516,8.516,0,1,1-7.518,8.457A8.038,8.038,0,0,1,375.463,528.5Z" transform="translate(-42.817 -226.462)" fill="#3b281b"/>
      <path id="Trazado_999366" data-name="Trazado 999366" d="M548.065,548.742h-17.14a10.074,10.074,0,0,0-10,11.325l1.678,13.421a10.384,10.384,0,0,0,10.286,9.083h13.2a10.382,10.382,0,0,0,10.286-9.083l1.679-13.421a10.073,10.073,0,0,0-10-11.325Zm6.277,10.859-1.691,13.421a6.619,6.619,0,0,1-6.554,5.79h-13.2a6.623,6.623,0,0,1-6.554-5.79L524.647,559.6a6.319,6.319,0,0,1,6.277-7.1h17.14a6.319,6.319,0,0,1,6.277,7.1Z" transform="translate(-162.683 -244.824)" fill="#3b281b"/>
      <path id="Trazado_999367" data-name="Trazado 999367" d="M407.822,290.762a14.951,14.951,0,0,0-20.673-13.9V262.571a3.759,3.759,0,0,0,3.759-3.759v-7.518a3.759,3.759,0,0,0-3.759-3.759H366.475a3.759,3.759,0,0,0-3.759,3.759v7.518a3.759,3.759,0,0,0,3.759,3.759v19.955a13,13,0,0,1-8.294,12.124,22.66,22.66,0,0,0-6.741,4.225v-2.819a5.638,5.638,0,0,0,3.759-5.294v-7.518a5.638,5.638,0,0,0-3.759-5.292v-1.393a7.754,7.754,0,0,0-5.334-7.912c-3.077-.682-5.45-4.242-5.858-8.525a3.758,3.758,0,0,0,1.795-3.189v-3.759a3.759,3.759,0,0,0-3.759-3.759v-9.4h1.879a3.759,3.759,0,0,0,3.759-3.759V232.5a3.759,3.759,0,0,0-3.759-3.759H325.129a3.759,3.759,0,0,0-3.759,3.759H319.49a11.288,11.288,0,0,0-11.276,11.276h3.759a7.518,7.518,0,0,1,7.518-7.518h1.879a3.759,3.759,0,0,0,3.759,3.759h1.879v9.4a3.759,3.759,0,0,0-3.759,3.759v3.759a3.759,3.759,0,0,0,1.795,3.195c-.413,4.283-2.781,7.843-5.858,8.525a7.755,7.755,0,0,0-5.334,7.907v1.393a5.639,5.639,0,0,0-3.759,5.292v7.518a5.639,5.639,0,0,0,3.759,5.292v28.883a5.639,5.639,0,0,0-3.759,5.292v9.4a5.638,5.638,0,0,0,5.638,5.638h33.829a5.6,5.6,0,0,0,4.274-2,7.519,7.519,0,0,0,5.082,2h35.791a7.517,7.517,0,0,0,6.978-4.793l6.523-16.956a22.4,22.4,0,0,0-4.174-22.793,15.023,15.023,0,0,0,3.787-9.961Zm-15.035-11.276a11.259,11.259,0,0,1,8.544,18.606c-.489-.395-1-.765-1.528-1.128a9.376,9.376,0,0,0-12.592-13.755c-.013-.233-.053-.459-.053-.7v-1.494a11.171,11.171,0,0,1,5.629-1.534Zm3.571,15.582c-.3-.137-.6-.291-.913-.417a13.044,13.044,0,0,1-7.266-7.142,5.621,5.621,0,1,1,8.179,7.559Zm-29.882-43.773h20.673v7.518H366.475ZM347.681,296.4v28.191h-30.07V296.4Zm-22.553-63.9h15.035v3.759H325.129Zm5.638,7.518h3.759v9.4h-3.759Zm-3.759,13.156h11.276v3.759H327.008ZM320,272.32c4.657-1.036,8.136-5.79,8.756-11.628h7.781c.628,5.837,4.1,10.592,8.756,11.628,1.338.3,2.389,2.159,2.389,4.24v1.047h-30.07v-1.047C317.611,274.479,318.662,272.617,320,272.32Zm-6.148,10.925a1.88,1.88,0,0,1,1.879-1.879h33.829a1.879,1.879,0,0,1,1.879,1.879v7.518a1.879,1.879,0,0,1-1.879,1.879H315.732a1.88,1.88,0,0,1-1.879-1.879Zm37.588,56.382a1.879,1.879,0,0,1-1.879,1.879H315.732a1.88,1.88,0,0,1-1.879-1.879v-9.4a1.88,1.88,0,0,1,1.879-1.879h33.829a1.879,1.879,0,0,1,1.879,1.879Zm53.26-17.461-6.523,16.956a3.738,3.738,0,0,1-3.469,2.385H358.916a3.738,3.738,0,0,1-3.469-2.385l-.248-.643v-8.249a5.638,5.638,0,0,0-3.759-5.292V304.373a18.783,18.783,0,0,1,8.125-6.226,16.744,16.744,0,0,0,10.669-15.62V262.571H383.39v19.955a16.744,16.744,0,0,0,10.669,15.62A18.728,18.728,0,0,1,404.7,322.165Z" transform="translate(0)" fill="#3b281b"/>
    </g>
  </g>
</svg>
