<svg xmlns="http://www.w3.org/2000/svg" width="79.226" height="79.226" viewBox="0 0 79.226 79.226">
  <g id="Grupo_1178117" data-name="Grupo 1178117" transform="translate(-701.701 -375.918)">
    <rect id="Rectángulo_454665" data-name="Rectángulo 454665" width="79.226" height="79.226" rx="5" transform="translate(701.701 375.918)" fill="#e5d5ba"/>
    <g id="Grupo_1177584" data-name="Grupo 1177584" transform="translate(724.852 384.877)">
      <path id="Trazado_991660" data-name="Trazado 991660" d="M482.087,446.117v-1.378a4.616,4.616,0,0,1-.752-.137,7.489,7.489,0,0,1-1.993-.789c-2.252-1.675-1.928-4.112-1.576-6.411.3-1.962,1.735-2.968,3.664-3.265.188-.029.376-.052.706-.1,0-1.061-.014-2.117,0-3.173a5.376,5.376,0,0,1,5.43-5.478,5.465,5.465,0,0,1,5.388,5.562c.012.992,0,1.985,0,3.042.481.1.921.185,1.352.3a3.953,3.953,0,0,1,3.049,3.708c.032.573.021,1.148.021,1.722,0,3.19-1.122,4.5-4.344,5.007v1.29a21.353,21.353,0,0,1,2.927.888,7.785,7.785,0,0,1,4.823,7.092c.111,2.357.022,4.724.022,7.219a24.1,24.1,0,0,1,3.777-1.307,70.19,70.19,0,0,1,7.035-.79c1.829-.123,3.673-.013,5.51-.029.887-.008,1.442.409,1.43,1.276-.06,4.347.4,8.719-.84,13-2.227,7.718-9.725,13.756-17.774,13.984-5.813.165-11.635.131-17.451.055a8,8,0,0,1-8.266-8.3c-.1-8.227-.049-16.457-.016-24.686A8.285,8.285,0,0,1,482.087,446.117Zm16.242,10.953H476.746V476.5h21.583Zm2.5,17.709c.489-.435.773-.667,1.034-.923q3.242-3.171,6.476-6.349c.464-.456.928-.912,1.4-1.362.573-.55,1.228-.734,1.811-.106a1.156,1.156,0,0,1-.162,1.733c-.188.191-.382.376-.573.563q-4.632,4.539-9.256,9.088c-.306.3-.7.739-.692,1.1a9.118,9.118,0,0,1-2.382,6.509c.437.022.691.054.943.044a17.2,17.2,0,0,0,12.323-5.787c4.764-5.117,4.78-11.4,4.4-17.9-2.2,0-4.372-.054-6.543.013a16.544,16.544,0,0,0-7.988,2.2,1.863,1.863,0,0,0-.757,1.318c-.088,1.756-.036,3.52-.036,5.281C500.825,471.644,500.825,473.08,500.825,474.778ZM498.4,454.6a3.948,3.948,0,0,0,.074-.518,5.7,5.7,0,0,0-5.489-5.564c-3.633-.111-7.272-.037-10.908-.012a5.435,5.435,0,0,0-1.574.281c-2.494.791-4.315,3.608-3.767,5.812Zm-.019,24.4h-21.7a5.466,5.466,0,0,0,4.911,6.013c3.932.171,7.881.164,11.813.006A5.527,5.527,0,0,0,498.382,478.995Zm-10.827-36.688h4.019c3.373,0,3.5-.123,3.471-3.482-.014-1.85-.54-2.383-2.406-2.388-3.024-.009-6.048,0-9.072,0-3.444,0-3.742.307-3.626,3.74.052,1.538.642,2.118,2.216,2.129C483.957,442.317,485.757,442.307,487.556,442.307Zm3.064-8.251c0-1.275.072-2.421-.017-3.555a3.037,3.037,0,0,0-3.014-2.756,2.979,2.979,0,0,0-3.105,2.629c-.109,1.2-.022,2.419-.022,3.681Zm-6.142,12.011h6.061V444.7h-6.061Z" transform="translate(-474.169 -425.388)" fill="#12263f"/>
      <path id="Trazado_991661" data-name="Trazado 991661" d="M522.046,629.631a5.774,5.774,0,0,1-5.29-2.854,4.808,4.808,0,0,1,.108-5.618,58.407,58.407,0,0,1,3.929-4.614,1.189,1.189,0,0,1,1.917-.007,47.4,47.4,0,0,1,3.982,4.715C529.09,624.777,526.2,629.58,522.046,629.631Zm-.218-10.952c-.716.791-1.275,1.36-1.777,1.976a14.614,14.614,0,0,0-1.261,1.764,3.047,3.047,0,0,0,.728,4.09,3.559,3.559,0,0,0,4.53-.049,3.055,3.055,0,0,0,.617-4.112C523.844,621.123,522.864,620,521.828,618.678Z" transform="translate(-508.401 -581.78)" fill="#12263f"/>
    </g>
  </g>
</svg>
