<svg xmlns="http://www.w3.org/2000/svg" width="126.5" height="125.868" viewBox="0 0 126.5 125.868">
  <g id="Grupo_1178122" data-name="Grupo 1178122" transform="translate(-375.586 -3235.288)">
    <path id="Trazado_999260" data-name="Trazado 999260" d="M63.25,0A62.935,62.935,0,1,1,0,62.934,63.093,63.093,0,0,1,63.25,0" transform="translate(375.586 3235.288)" fill="#9d5a5c"/>
    <g id="Grupo_1177970" data-name="Grupo 1177970" transform="translate(405.693 3259.428)">
      <path id="Trazado_999612" data-name="Trazado 999612" d="M276.2,278.678V206.945a3.228,3.228,0,0,0-3.22-3.216H213.8a3.224,3.224,0,0,0-3.216,3.216v71.733A3.228,3.228,0,0,0,213.8,281.9h59.178A3.232,3.232,0,0,0,276.2,278.678Z" transform="translate(-210.586 -202.36)" fill="#64554b" fill-rule="evenodd"/>
      <path id="Trazado_999613" data-name="Trazado 999613" d="M298.862,301.555V236.007a1.419,1.419,0,0,0-1.418-1.414h-52.1a1.419,1.419,0,0,0-1.418,1.414v65.548a1.423,1.423,0,0,0,1.418,1.419h52.1A1.424,1.424,0,0,0,298.862,301.555Z" transform="translate(-238.59 -228.284)" fill="#534236" fill-rule="evenodd"/>
      <path id="Trazado_999614" data-name="Trazado 999614" d="M392.266,378.488v-3.316a1.454,1.454,0,0,0-1.45-1.451h-8.072a1.456,1.456,0,0,0-1.455,1.451v3.316Z" transform="translate(-353.966 -345.144)" fill="#7a8593" fill-rule="evenodd"/>
      <path id="Trazado_999615" data-name="Trazado 999615" d="M356.983,290.594c1.788-2.924-1.008-6.719-7.124-6.382-.994.05-1.6.479-1.532,1.538.575,5.045,5.75,8.621,8.382,5.236l.014-.014A4,4,0,0,0,356.983,290.594Z" transform="translate(-326.277 -269.944)" fill="#3b281b" fill-rule="evenodd"/>
      <path id="Trazado_999616" data-name="Trazado 999616" d="M356.341,291.4c-2.527-.036-5.35-2.915-5.765-6.564a1.812,1.812,0,0,1,.059-.652c-.251,0-.511,0-.776.023-.994.05-1.6.479-1.532,1.538C348.875,290.559,353.618,294.034,356.341,291.4Z" transform="translate(-326.277 -269.936)" fill="#8c8c8c" fill-rule="evenodd"/>
      <path id="Trazado_999617" data-name="Trazado 999617" d="M383.309,375.172a1.455,1.455,0,0,1,1.451-1.451h-2.016a1.456,1.456,0,0,0-1.455,1.451v3.316h2.02Z" transform="translate(-353.966 -345.144)" fill="#e5d5ba" fill-rule="evenodd"/>
      <path id="Trazado_999618" data-name="Trazado 999618" d="M213.56,278.678V206.945a3.228,3.228,0,0,1,3.22-3.216H213.8a3.224,3.224,0,0,0-3.216,3.216v71.733A3.228,3.228,0,0,0,213.8,281.9h2.978A3.232,3.232,0,0,1,213.56,278.678Z" transform="translate(-210.586 -202.36)" fill="#fff" fill-rule="evenodd"/>
      <path id="Trazado_999619" data-name="Trazado 999619" d="M425.937,290.594c-1.788-2.924,1.012-6.719,7.123-6.382.994.05,1.6.479,1.532,1.538-.575,5.045-5.751,8.621-8.383,5.236l-.013-.014A3.781,3.781,0,0,1,425.937,290.594Z" transform="translate(-391.02 -269.944)" fill="#3b281b" fill-rule="evenodd"/>
      <path id="Trazado_999620" data-name="Trazado 999620" d="M432.774,291.4c2.527-.036,5.35-2.915,5.76-6.564a1.814,1.814,0,0,0-.059-.652c.251,0,.511,0,.775.023.994.05,1.6.479,1.532,1.538C440.236,290.559,435.492,294.034,432.774,291.4Z" transform="translate(-397.211 -269.936)" fill="#8c8c8c" fill-rule="evenodd"/>
      <path id="Trazado_999621" data-name="Trazado 999621" d="M361.2,234.593H335.614v2.062a.8.8,0,0,0,.8.8H360.4a.8.8,0,0,0,.8-.8v-2.062Z" transform="translate(-315.602 -228.284)" fill="#797979" fill-rule="evenodd"/>
      <path id="Trazado_999622" data-name="Trazado 999622" d="M298.862,237.458v-1.45a1.419,1.419,0,0,0-1.418-1.414h-52.1a1.419,1.419,0,0,0-1.418,1.414v65.548a1.423,1.423,0,0,0,1.418,1.419h3.895a1.423,1.423,0,0,1-1.418-1.419V239.068a1.616,1.616,0,0,1,1.61-1.61Z" transform="translate(-238.59 -228.284)" fill="#a7a7a7" fill-rule="evenodd"/>
      <path id="Trazado_999623" data-name="Trazado 999623" d="M361.2,203.549v-7.568a.8.8,0,0,0-.8-.8h-23.98a.8.8,0,0,0-.8.8v7.568a.8.8,0,0,0,.8.8H360.4A.8.8,0,0,0,361.2,203.549Z" transform="translate(-315.602 -195.179)" fill="#7a8593" fill-rule="evenodd"/>
      <path id="Trazado_999624" data-name="Trazado 999624" d="M361.2,235.96H335.614V237.8a.8.8,0,0,0,.8.8H360.4a.8.8,0,0,0,.8-.8V235.96Z" transform="translate(-315.602 -229.433)" fill="#e5d5ba" fill-rule="evenodd"/>
    </g>
    <path id="Trazado_999625" data-name="Trazado 999625" d="M358.245,298.169h2.946a1.206,1.206,0,0,0,0-2.413h-1.74v-2.11a2.66,2.66,0,0,0-2.657-2.657h-2.83v-4.7l.637-.411a4.3,4.3,0,0,0,3.1,1.318,4.956,4.956,0,0,0,1.339-.19c2.889-.812,5.275-3.942,5.674-7.445,0-.019,0-.039,0-.059a2.572,2.572,0,0,0-.6-1.951,2.849,2.849,0,0,0-2.073-.868c-3.888-.214-7.1,1.164-8.382,3.6a4.559,4.559,0,0,0-.33,3.54l-.581.376-.585-.378a4.56,4.56,0,0,0-.33-3.538c-1.279-2.433-4.49-3.81-8.376-3.6a2.857,2.857,0,0,0-2.073.863,2.579,2.579,0,0,0-.6,1.951c0,.022,0,.043.006.064.4,3.5,2.785,6.633,5.674,7.444a4.932,4.932,0,0,0,1.339.191,4.3,4.3,0,0,0,3.1-1.32l.639.413v4.7h-2.83a2.662,2.662,0,0,0-2.661,2.657v2.11h-1.754a1.206,1.206,0,0,0,0,2.413h13.937ZM355.8,281.4c.624-1.187,2.6-2.507,6.12-2.311a1.254,1.254,0,0,1,.384.065.8.8,0,0,1,.006.164c-.328,2.758-2.249,4.891-3.925,5.361a2.022,2.022,0,0,1-1.667-.177l1.781-1.152a1.206,1.206,0,1,0-1.311-2.026l-1.655,1.07A2.244,2.244,0,0,1,355.8,281.4Zm-8.681,3.279c-1.676-.47-3.6-2.6-3.925-5.359a.84.84,0,0,1,.007-.166,1.26,1.26,0,0,1,.388-.065c3.513-.193,5.49,1.124,6.114,2.311a2.235,2.235,0,0,1,.266.993l-1.655-1.07a1.207,1.207,0,0,0-1.31,2.027l1.781,1.152A2.025,2.025,0,0,1,347.124,284.682Zm1.35,8.965a.25.25,0,0,1,.248-.244h8.072a.247.247,0,0,1,.244.244v2.11h-8.564Z" transform="translate(85.748 2995.81)"/>
    <path id="Trazado_999626" data-name="Trazado 999626" d="M293.16,445.2a1.206,1.206,0,0,0,1.659.01l5.163-4.836a1.206,1.206,0,1,0-1.649-1.761L294,442.666l-1.268-1.216a1.206,1.206,0,1,0-1.669,1.742Z" transform="translate(127.82 2860.054)"/>
    <path id="Trazado_999627" data-name="Trazado 999627" d="M374.3,470.908h23.811a1.206,1.206,0,0,0,0-2.413H374.3a1.206,1.206,0,0,0,0,2.413Z" transform="translate(58.607 2834.68)"/>
    <path id="Trazado_999628" data-name="Trazado 999628" d="M373.562,440.7h23.811a1.206,1.206,0,1,0,0-2.413H373.562a1.206,1.206,0,0,0,0,2.413Z" transform="translate(59.23 2860.053)"/>
    <path id="Trazado_999629" data-name="Trazado 999629" d="M375.043,510.408h23.811a1.206,1.206,0,0,0,0-2.413H375.043a1.206,1.206,0,1,0,0,2.413Z" transform="translate(57.987 2801.503)"/>
    <path id="Trazado_999630" data-name="Trazado 999630" d="M294.238,514.9a1.206,1.206,0,0,0,1.659.01l5.167-4.835a1.207,1.207,0,0,0-1.649-1.762l-4.333,4.055-1.264-1.212a1.206,1.206,0,0,0-1.67,1.741Z" transform="translate(126.912 2801.506)"/>
    <path id="Trazado_999631" data-name="Trazado 999631" d="M375.784,540.615h23.811a1.206,1.206,0,1,0,0-2.413H375.784a1.206,1.206,0,0,0,0,2.413Z" transform="translate(57.364 2776.131)"/>
    <path id="Trazado_999635" data-name="Trazado 999635" d="M266.651,189.012h-15.7a2.012,2.012,0,0,0-1.9-1.369h-23.98a2.011,2.011,0,0,0-1.9,1.369h-15.7a4.426,4.426,0,0,0-4.422,4.422v71.733a4.429,4.429,0,0,0,4.422,4.427h59.178a4.431,4.431,0,0,0,4.426-4.427V193.434A4.429,4.429,0,0,0,266.651,189.012Zm2.013,76.155a2.016,2.016,0,0,1-2.013,2.014H207.473a2.014,2.014,0,0,1-2.009-2.014V193.434a2.012,2.012,0,0,1,2.009-2.01h15.59v2.528H211.011a2.625,2.625,0,0,0-2.625,2.62V262.12a2.627,2.627,0,0,0,2.625,2.625h52.1a2.628,2.628,0,0,0,2.625-2.625v-37.8a1.206,1.206,0,0,0-2.413,0v37.8a.218.218,0,0,1-.212.212h-52.1a.218.218,0,0,1-.212-.212V196.572a.212.212,0,0,1,.212-.208h12.051v.855a2.011,2.011,0,0,0,2.009,2.009h9.677a1.206,1.206,0,1,0,0-2.413h-9.273v-6.76h23.172v6.76h-8.708a1.206,1.206,0,0,0,0,2.413h9.112a2.011,2.011,0,0,0,2.009-2.009v-.855h12.051a.213.213,0,0,1,.212.208V218.2a1.206,1.206,0,0,0,2.413,0V196.572a2.626,2.626,0,0,0-2.625-2.62H251.06v-2.528h15.59a2.014,2.014,0,0,1,2.014,2.01v71.733Z" transform="translate(201.437 3070.579)" fill="#3b281b"/>
  </g>
</svg>
