<svg xmlns="http://www.w3.org/2000/svg" width="126.5" height="125.868" viewBox="0 0 126.5 125.868">
  <g id="Grupo_1178128" data-name="Grupo 1178128" transform="translate(-1101.461 -3662.066)">
    <path id="Trazado_999260" data-name="Trazado 999260" d="M63.25,0A62.935,62.935,0,1,1,0,62.934,63.093,63.093,0,0,1,63.25,0" transform="translate(1101.461 3662.066)" fill="#9d5a5c"/>
    <path id="Trazado_999741" data-name="Trazado 999741" d="M717.6,527.2H704.721v4.836l1.723.2H717.6a2,2,0,0,1,1.994,1.992V548.69a1.978,1.978,0,0,1-.585,1.409l-3.052,3.052-1.282,1.393,3.529,3.389,1.158-1.07,3.207-3.207a6.981,6.981,0,0,0,2.058-4.967V534.227A7.034,7.034,0,0,0,717.6,527.2Z" transform="translate(464.756 3170.229)" fill="#12263f"/>
    <path id="Trazado_999742" data-name="Trazado 999742" d="M570.416,527.2H559.648a7.034,7.034,0,0,0-7.026,7.024V548.69a6.981,6.981,0,0,0,2.058,4.967l2.987,2.987.911.728,3.146-3.539-.613-.864-2.87-2.871a1.978,1.978,0,0,1-.585-1.409V534.227a2,2,0,0,1,1.994-1.992h10.768v-.028h1.417v-5Z" transform="translate(587.42 3170.229)" fill="#12263f"/>
    <path id="Trazado_999743" data-name="Trazado 999743" d="M655.577,411.47H645.52a2.063,2.063,0,0,0-2.025,2.449l1.21,6.318V422.2h11.461l.226-1.961,1.21-6.318A2.063,2.063,0,0,0,655.577,411.47Z" transform="translate(514.163 3263.564)" fill="#3b281b"/>
    <path id="Trazado_999744" data-name="Trazado 999744" d="M647.826,413.919a2.063,2.063,0,0,1,2.025-2.449H645.52a2.063,2.063,0,0,0-2.025,2.449l1.21,6.318V422.2h4.33v-1.961Z" transform="translate(514.163 3263.564)" fill="#e5d5ba"/>
    <g id="Grupo_1178080" data-name="Grupo 1178080" transform="translate(1140.127 3692.129)">
      <g id="Grupo_1178079" data-name="Grupo 1178079">
        <path id="Trazado_999745" data-name="Trazado 999745" d="M601.843,549.295a24.347,24.347,0,0,1-9.326,19.184h-30.13a24.4,24.4,0,0,1,8.383-42.649V499.807h13.363v26.022A24.4,24.4,0,0,1,601.843,549.295Z" transform="translate(-553.062 -499.807)" fill="#7a8593"/>
      </g>
    </g>
    <g id="Grupo_1178081" data-name="Grupo 1178081" transform="translate(1140.127 3692.129)">
      <path id="Trazado_999746" data-name="Trazado 999746" d="M559.382,553.386A24.4,24.4,0,0,1,573.8,531.117,5.6,5.6,0,0,0,577.091,526V510.941a7.043,7.043,0,0,1,7.043-7.043h0v-4.091H570.771v26.022a24.4,24.4,0,0,0-8.383,42.649h2.227A24.284,24.284,0,0,1,559.382,553.386Z" transform="translate(-553.062 -499.807)" fill="#a7a7a7"/>
    </g>
    <g id="Grupo_1178083" data-name="Grupo 1178083" transform="translate(1156.355 3683.994)">
      <g id="Grupo_1178082" data-name="Grupo 1178082">
        <path id="Trazado_999747" data-name="Trazado 999747" d="M650.9,457.769a2.34,2.34,0,0,1,.372,4.649,2.139,2.139,0,0,0-.372-.031H639.256a2.157,2.157,0,0,0-.372.031,2.34,2.34,0,0,1,.372-4.649Z" transform="translate(-636.918 -457.769)" fill="#12263f"/>
        <path id="Trazado_999748" data-name="Trazado 999748" d="M651.276,480.794a2.339,2.339,0,0,1-.372,4.647H639.256a2.338,2.338,0,0,1-.372-4.647,2.37,2.37,0,0,0,.372.029H650.9A2.368,2.368,0,0,0,651.276,480.794Z" transform="translate(-636.918 -476.338)" fill="#12263f"/>
      </g>
    </g>
    <g id="Grupo_1178085" data-name="Grupo 1178085" transform="translate(1156.355 3683.994)">
      <g id="Grupo_1178084" data-name="Grupo 1178084">
        <path id="Trazado_999749" data-name="Trazado 999749" d="M642.155,460.518a2.157,2.157,0,0,0-.372.031,2.344,2.344,0,0,1-1.92-2.78h-.607a2.34,2.34,0,0,0-.372,4.649,2.157,2.157,0,0,1,.372-.031H650.9a2.139,2.139,0,0,1,.372.031,2.337,2.337,0,0,0,1.928-1.9Z" transform="translate(-636.918 -457.769)" fill="#797979"/>
        <path id="Trazado_999750" data-name="Trazado 999750" d="M642.155,483.572a2.329,2.329,0,0,1-2.3-2.749h-.6a2.368,2.368,0,0,1-.372-.029,2.339,2.339,0,0,0,.372,4.647h11.648a2.341,2.341,0,0,0,2.291-1.869Z" transform="translate(-636.919 -476.338)" fill="#797979"/>
      </g>
    </g>
    <g id="Grupo_1178087" data-name="Grupo 1178087" transform="translate(1142.752 3760.801)">
      <g id="Grupo_1178086" data-name="Grupo 1178086">
        <path id="Trazado_999751" data-name="Trazado 999751" d="M609.588,855.42a2.6,2.6,0,0,1-1.841,4.444H569.228a2.6,2.6,0,0,1,0-5.207h38.519A2.594,2.594,0,0,1,609.588,855.42Z" transform="translate(-566.625 -854.657)" fill="#3b281b"/>
        <path id="Trazado_999752" data-name="Trazado 999752" d="M609.588,882.325a2.6,2.6,0,0,1-1.841,4.444H569.228a2.6,2.6,0,0,1,0-5.207h38.519A2.594,2.594,0,0,1,609.588,882.325Z" transform="translate(-566.625 -876.355)" fill="#3b281b"/>
      </g>
    </g>
    <g id="Grupo_1178089" data-name="Grupo 1178089" transform="translate(1142.752 3760.801)">
      <g id="Grupo_1178088" data-name="Grupo 1178088">
        <path id="Trazado_999753" data-name="Trazado 999753" d="M573.375,857.331a2.6,2.6,0,0,1-2.6-2.6c0-.024,0-.047,0-.071h-1.548a2.6,2.6,0,0,0,0,5.207h38.519a2.6,2.6,0,0,0,2.6-2.533Z" transform="translate(-566.624 -854.657)" fill="#e5d5ba"/>
        <path id="Trazado_999754" data-name="Trazado 999754" d="M573.375,884.236a2.6,2.6,0,0,1-2.6-2.6c0-.024,0-.047,0-.071h-1.548a2.6,2.6,0,0,0,0,5.207h38.519a2.6,2.6,0,0,0,2.6-2.533Z" transform="translate(-566.624 -876.355)" fill="#e5d5ba"/>
      </g>
    </g>
    <g id="Grupo_1178091" data-name="Grupo 1178091" transform="translate(1153.578 3724.773)">
      <g id="Grupo_1178090" data-name="Grupo 1178090">
        <path id="Trazado_999755" data-name="Trazado 999755" d="M644.833,683.892c0,7.162-7.572,13.514-10.228,15.524a1.5,1.5,0,0,1-1.812,0c-2.656-2.009-10.228-8.362-10.228-15.524,0-7.195,7.647-13.261,10.266-15.127a1.494,1.494,0,0,1,1.734,0C637.185,670.631,644.833,676.7,644.833,683.892Z" transform="translate(-622.566 -668.488)" fill="#fff"/>
      </g>
    </g>
    <path id="Trazado_999756" data-name="Trazado 999756" d="M597.365,449.3V434.843a8.487,8.487,0,0,0-8.477-8.477h-9.7v-2.221a3.772,3.772,0,0,0,.689-5.309,3.777,3.777,0,0,0-1.125-5.6l.975-5.092a3.513,3.513,0,0,0-3.45-4.174H566.216a3.513,3.513,0,0,0-3.451,4.174l.941,4.913a3.78,3.78,0,0,0-1.478,5.78,3.772,3.772,0,0,0,.689,5.309v2.221H553.6a8.487,8.487,0,0,0-8.477,8.477V449.3a8.423,8.423,0,0,0,2.483,5.994l2.115,2.115a25.844,25.844,0,0,0,2.526,32.322h-.36a4.051,4.051,0,0,0-3.1,6.659,4.051,4.051,0,0,0,3.1,6.659h38.519a4.051,4.051,0,0,0,3.1-6.659,4.051,4.051,0,0,0-3.1-6.659h-.553a25.844,25.844,0,0,0,2.682-32.091l2.346-2.346A8.42,8.42,0,0,0,597.365,449.3Zm-10.211,2.5a25.979,25.979,0,0,0-7.969-4.337V434.3h9.7a.542.542,0,0,1,.541.541V449.3a.531.531,0,0,1-.158.383ZM564.34,416.525a.889.889,0,0,1,.888-.888h11.647a.885.885,0,0,1,.266,1.73c-.088-.006-.176-.014-.266-.014H565.227c-.09,0-.177.007-.266.014A.885.885,0,0,1,564.34,416.525Zm.888,3.791h11.647c.09,0,.178-.007.266-.014a.885.885,0,0,1-.266,1.73H565.227a.885.885,0,0,1-.266-1.73C565.05,420.309,565.138,420.316,565.227,420.316Zm.519-13.223a.6.6,0,0,1,.47-.221h10.056a.61.61,0,0,1,.6.724l-.984,5.138H566.6l-.983-5.138A.6.6,0,0,1,565.746,407.094ZM548.027,449.3V434.843a5.58,5.58,0,0,1,5.574-5.574h9.317V431.4H553.6a3.449,3.449,0,0,0-3.445,3.445v2.125a1.452,1.452,0,0,0,2.9,0v-2.125a.542.542,0,0,1,.541-.541h9.317v13.166a25.965,25.965,0,0,0-7.754,4.165l-1.945-1.945a.53.53,0,0,1-.159-.383v-6.53a1.452,1.452,0,1,0-2.9,0v6.53a3.422,3.422,0,0,0,1.009,2.436l1.806,1.806q-.762.744-1.46,1.551l-1.851-1.851A5.535,5.535,0,0,1,548.027,449.3Zm42.38,50.845H551.888a1.152,1.152,0,0,1,0-2.3h38.519a1.152,1.152,0,0,1,0,2.3Zm1.152-6.359a1.153,1.153,0,0,1-1.152,1.152H551.888a1.152,1.152,0,0,1,0-2.3h38.519A1.153,1.153,0,0,1,591.559,493.791Zm-5.954-4.055H556.5a22.945,22.945,0,0,1,8.269-39.8,1.452,1.452,0,0,0,1.055-1.4v-23.6H576.28v23.6a1.451,1.451,0,0,0,1.055,1.4,22.945,22.945,0,0,1,8.269,39.8Zm8.857-40.431a5.538,5.538,0,0,1-1.632,3.941l-2.06,2.06q-.691-.813-1.446-1.566l2-2a3.422,3.422,0,0,0,1.009-2.436V434.843a3.448,3.448,0,0,0-3.445-3.445h-9.7v-2.129h9.7a5.58,5.58,0,0,1,5.574,5.574V449.3Z" transform="translate(593.467 3269.613)" fill="#3b281b"/>
    <path id="Trazado_999757" data-name="Trazado 999757" d="M637.025,675.51a1.452,1.452,0,0,0,2.814-.716c-1.625-6.382-7.873-11.4-10.484-13.259a2.941,2.941,0,0,0-1.776-.544l-.053,0a1.453,1.453,0,0,0-.3.031,2.938,2.938,0,0,0-1.293.516,36.037,36.037,0,0,0-6.382,5.81c-2.982,3.528-4.495,7.061-4.495,10.5,0,3.416,1.5,6.985,4.444,10.609a38.176,38.176,0,0,0,6.36,6.07,2.94,2.94,0,0,0,1.384.566,1.463,1.463,0,0,0,.278.027l.038,0c.027,0,.055,0,.082,0a2.952,2.952,0,0,0,1.782-.595c2.5-1.89,8.5-6.955,10.29-13.164a1.452,1.452,0,0,0-2.79-.8c-1.3,4.531-5.506,8.57-7.949,10.613v-9.336l3.728-3.728a1.452,1.452,0,0,0-2.053-2.053l-1.675,1.675V664.885C631.495,666.879,635.848,670.885,637.025,675.51Zm-19.062,2.335c0-5.436,5.084-10.335,8.111-12.77v7.386l-1.675-1.675a1.452,1.452,0,0,0-2.053,2.053l3.728,3.728v6.19l-1.675-1.675a1.452,1.452,0,0,0-2.053,2.053l3.728,3.728v4.108C623.049,688.406,617.963,683.285,617.963,677.844Z" transform="translate(537.066 3062.333)" fill="#3b281b"/>
  </g>
</svg>
