<svg xmlns="http://www.w3.org/2000/svg" width="126.5" height="125.868" viewBox="0 0 126.5 125.868">
  <g id="Grupo_1178129" data-name="Grupo 1178129" transform="translate(-383.461 -4091.066)">
    <path id="Trazado_999260" data-name="Trazado 999260" d="M63.25,0A62.935,62.935,0,1,1,0,62.934,63.093,63.093,0,0,1,63.25,0" transform="translate(383.461 4091.066)" fill="#9d5a5c"/>
    <g id="Grupo_1178101" data-name="Grupo 1178101" transform="translate(410.68 4111.788)">
      <g id="Grupo_1178097" data-name="Grupo 1178097">
        <path id="Trazado_999758" data-name="Trazado 999758" d="M403.154,443.968h31.707a14.412,14.412,0,0,1,14.412,14.413v43.237a5.765,5.765,0,0,1-5.765,5.765h-49a5.765,5.765,0,0,1-5.765-5.765V458.381A14.412,14.412,0,0,1,403.154,443.968Z" transform="translate(-388.742 -423.374)" fill="#49586b"/>
        <path id="Trazado_999759" data-name="Trazado 999759" d="M427.656,497.34a28.825,28.825,0,0,1-28.825-28.825V454.1a14.361,14.361,0,0,1,4.119-10.079,14.413,14.413,0,0,0-14.208,14.4v43.237a5.765,5.765,0,0,0,5.765,5.765h49a5.765,5.765,0,0,0,5.765-5.765V497.34Z" transform="translate(-388.742 -423.42)" fill="#534236"/>
        <path id="Trazado_999760" data-name="Trazado 999760" d="M388.742,523.968h60.532v43.237a5.765,5.765,0,0,1-5.765,5.765h-49a5.765,5.765,0,0,1-5.765-5.765V523.968Z" transform="translate(-388.742 -488.962)" fill="#a7a7a7"/>
        <rect id="Rectángulo_454831" data-name="Rectángulo 454831" width="41.016" height="12.305" rx="6.152" transform="translate(9.838)" fill="#a7a7a7"/>
        <path id="Trazado_999761" data-name="Trazado 999761" d="M468.742,395.968h31.707v8.647H468.742Z" transform="translate(-454.33 -384.022)" fill="#49586b"/>
        <path id="Trazado_999762" data-name="Trazado 999762" d="M398.831,534.057V523.968H388.742v43.237a5.765,5.765,0,0,0,5.765,5.765h49a5.765,5.765,0,0,0,5.765-5.765v-4.324H427.656A28.825,28.825,0,0,1,398.831,534.057Z" transform="translate(-388.742 -488.962)" fill="#64554b"/>
        <g id="Grupo_1178096" data-name="Grupo 1178096" transform="translate(11.497 41.016)">
          <circle id="Elipse_13691" data-name="Elipse 13691" cx="18.457" cy="18.457" r="18.457" transform="translate(0.392 0)" fill="#fff"/>
          <path id="Trazado_999763" data-name="Trazado 999763" d="M481.415,589.658a18.719,18.719,0,0,1-15.31-29.514,18.736,18.736,0,1,0,20.532,28.762,18.7,18.7,0,0,1-5.222.752Z" transform="translate(-452.557 -559.636)" fill="#605146"/>
          <ellipse id="Elipse_13692" data-name="Elipse 13692" cx="8.716" cy="8.203" rx="8.716" ry="8.203" transform="translate(9.621 10.254)" fill="#a7a7a7"/>
          <path id="Trazado_999764" data-name="Trazado 999764" d="M521.658,628.442a8.637,8.637,0,0,1-7.878-12.2,8.647,8.647,0,1,0,11.432,11.432A8.608,8.608,0,0,1,521.658,628.442Z" transform="translate(-498.565 -605.626)" fill="#64554b"/>
          <path id="Trazado_999765" data-name="Trazado 999765" d="M517.505,655.45a18.736,18.736,0,0,1-8.25-11.53,8.6,8.6,0,0,0,8.129,11.539C517.426,655.459,517.463,655.45,517.505,655.45Z" transform="translate(-498.615 -628.32)" fill="#8c8c8c"/>
        </g>
        <path id="Trazado_999766" data-name="Trazado 999766" d="M480.11,655.518A28.809,28.809,0,0,1,453.2,636.96a18.694,18.694,0,0,0,30.177,18.557Z" transform="translate(-441.196 -581.598)" fill="#3b281b"/>
        <path id="Trazado_999767" data-name="Trazado 999767" d="M468.742,404.615v-8.647h31.707Z" transform="translate(-454.33 -384.022)" fill="#534236"/>
        <path id="Trazado_999768" data-name="Trazado 999768" d="M451.948,339.174a2.883,2.883,0,0,1-2.883-2.882v-4.324h-1.441a2.882,2.882,0,0,0-2.883,2.883v5.765a2.883,2.883,0,0,0,2.883,2.883h34.59a2.883,2.883,0,0,0,2.883-2.883v-1.441Z" transform="translate(-434.653 -331.552)" fill="#64554b"/>
      </g>
      <g id="Grupo_1178100" data-name="Grupo 1178100" transform="translate(40.468 55.184)">
        <g id="Grupo_1178098" data-name="Grupo 1178098" transform="translate(20.064)">
          <path id="Trazado_999769" data-name="Trazado 999769" d="M730.507,635.968a5.765,5.765,0,0,1,5.765,5.765v8.647h-11.53v-8.647A5.765,5.765,0,0,1,730.507,635.968Z" transform="translate(-724.742 -635.968)" fill="#605146"/>
          <path id="Trazado_999770" data-name="Trazado 999770" d="M724.742,715.968h11.53v8.648a5.765,5.765,0,0,1-11.53,0v-8.648Z" transform="translate(-724.742 -701.556)" fill="#797979"/>
        </g>
        <path id="Trazado_999771" data-name="Trazado 999771" d="M730.507,637.409a5.715,5.715,0,0,1,.2-1.421c-.066,0-.13-.02-.2-.02a5.765,5.765,0,0,0-5.765,5.765v8.647h5.765Z" transform="translate(-704.678 -635.968)" fill="#3b281b"/>
        <path id="Trazado_999772" data-name="Trazado 999772" d="M730.507,720.292v-4.324h-5.765v8.648a5.753,5.753,0,0,0,11.333,1.421A5.755,5.755,0,0,1,730.507,720.292Z" transform="translate(-704.678 -701.556)" fill="#7a8593"/>
        <g id="Grupo_1178099" data-name="Grupo 1178099" transform="translate(0 4.956)">
          <path id="Trazado_999773" data-name="Trazado 999773" d="M669.8,665.093a5.765,5.765,0,0,1,.15,8.152l-6,6.226h0l-8.3-8h0l6-6.226A5.765,5.765,0,0,1,669.8,665.093Z" transform="translate(-648.033 -663.478)" fill="#fff"/>
          <path id="Trazado_999774" data-name="Trazado 999774" d="M620.987,707.828l8.3,8h0l-6,6.226a5.765,5.765,0,0,1-8.3-8l6-6.226Z" transform="translate(-613.372 -699.838)" fill="#12263f"/>
        </g>
        <path id="Trazado_999775" data-name="Trazado 999775" d="M694.608,680.628l-6,6.226-2.883,2.989,2.883,2.776,6-6.226a5.746,5.746,0,0,0,.819-6.873,5.682,5.682,0,0,1-.819,1.108Z" transform="translate(-672.691 -671.674)" fill="#605146"/>
        <path id="Trazado_999776" data-name="Trazado 999776" d="M623.335,740.035a5.765,5.765,0,0,1-8.152.144h0a5.68,5.68,0,0,1-.969-1.277,5.756,5.756,0,0,0,9.12,6.892l6-6.226-2.882-2.776Z" transform="translate(-613.419 -718.628)" fill="#797979"/>
      </g>
    </g>
    <g id="Grupo_1178102" data-name="Grupo 1178102" transform="translate(409.239 4110.763)">
      <ellipse id="Elipse_13693" data-name="Elipse 13693" cx="1.538" cy="1.025" rx="1.538" ry="1.025" transform="translate(34.864 59.473)" fill="#3b281b"/>
      <path id="Trazado_999777" data-name="Trazado 999777" d="M654.183,555.968a1.441,1.441,0,1,0,0,2.882h5.765a1.441,1.441,0,1,0,0-2.882Z" transform="translate(-603.74 -514.172)" fill="#3b281b"/>
      <path id="Trazado_999778" data-name="Trazado 999778" d="M421.39,557.409a1.441,1.441,0,0,0-1.441-1.441h-5.765a1.441,1.441,0,1,0,0,2.882h5.765A1.441,1.441,0,0,0,421.39,557.409Z" transform="translate(-406.977 -514.172)" fill="#3b281b"/>
      <circle id="Elipse_13694" data-name="Elipse 13694" cx="1.538" cy="1.538" r="1.538" transform="translate(11.28 75.879)" fill="#3b281b"/>
      <ellipse id="Elipse_13695" data-name="Elipse 13695" cx="1.025" cy="1.538" rx="1.025" ry="1.538" transform="translate(6.153 75.879)" fill="#3b281b"/>
      <ellipse id="Elipse_13696" data-name="Elipse 13696" cx="1.025" cy="1.538" rx="1.025" ry="1.538" transform="translate(6.153 70.752)" fill="#3b281b"/>
      <path id="Trazado_999779" data-name="Trazado 999779" d="M382.183,391.707a1.441,1.441,0,0,0,1.441-1.441V360A12.986,12.986,0,0,1,396.6,347.028H428.3a12.986,12.986,0,0,1,12.886,11.53H387.948a1.441,1.441,0,0,0,0,2.883h53.326v14.412a1.441,1.441,0,0,0,2.882,0V360a15.868,15.868,0,0,0-14.412-15.78V338.38a4.324,4.324,0,0,0,4.324-4.324v-5.765a4.324,4.324,0,0,0-4.324-4.324H415.332a1.441,1.441,0,0,0-1.441,1.441v2.883a1.441,1.441,0,1,0,2.883,0V326.85h2.882v1.441a1.441,1.441,0,1,0,2.883,0V326.85h2.882v1.441a1.441,1.441,0,1,0,2.883,0V326.85h1.441a1.441,1.441,0,0,1,1.441,1.441v5.765a1.441,1.441,0,0,1-1.441,1.441H428.3v-1.441a1.441,1.441,0,1,0-2.883,0V335.5h-2.882v-1.441a1.441,1.441,0,1,0-2.883,0V335.5h-2.882v-1.441a1.441,1.441,0,1,0-2.883,0V335.5h-2.882v-1.441a1.441,1.441,0,1,0-2.882,0V335.5h-2.883v-1.441a1.441,1.441,0,1,0-2.883,0V335.5h-2.883v-1.441a1.441,1.441,0,1,0-2.882,0V335.5h-1.441a1.441,1.441,0,0,1-1.441-1.441v-5.765a1.441,1.441,0,0,1,1.441-1.441H396.6v1.441a1.441,1.441,0,1,0,2.882,0V326.85h2.883v1.441a1.441,1.441,0,1,0,2.883,0V326.85h2.883v1.441a1.441,1.441,0,1,0,2.882,0v-2.883a1.441,1.441,0,0,0-1.441-1.441H395.155a4.324,4.324,0,0,0-4.324,4.324v5.765a4.324,4.324,0,0,0,4.324,4.324v5.839A15.868,15.868,0,0,0,380.742,360v30.266A1.441,1.441,0,0,0,382.183,391.707Zm44.679-53.326v5.765H398.037V338.38Z" transform="translate(-380.742 -323.968)" fill="#3b281b"/>
      <path id="Trazado_999780" data-name="Trazado 999780" d="M448.481,562.383a7.158,7.158,0,0,0-6.87,5.171,7.241,7.241,0,0,0-1.078-.105,7.157,7.157,0,0,0-5.095,2.11l-3.419,3.419a19.849,19.849,0,0,0,.608-4.83,20.153,20.153,0,0,0-32.068-16.277,1.441,1.441,0,1,0,1.665,2.353l.039-.028a17.213,17.213,0,0,1,21.343.758l-5.127,5.124c-.072-.055-.144-.111-.218-.164l.02-.353a1.385,1.385,0,0,1,1.026-1.255,1.441,1.441,0,0,0-.747-2.785,4.256,4.256,0,0,0-3.012,3.027,10.038,10.038,0,0,0-2.306-.453,1.385,1.385,0,0,1,0-1.531l.4-.592a1.441,1.441,0,0,0-2.4-1.6l-.395.592a4.25,4.25,0,0,0-.6,3.337,10.106,10.106,0,0,0-2.124.748,1.383,1.383,0,0,1-.765-1.329l.046-.711a1.444,1.444,0,0,0-2.883-.186l-.046.711a4.248,4.248,0,0,0,1.153,3.194,8.606,8.606,0,0,0-.61.61,4.284,4.284,0,0,0-3.2-1.153l-.711.046a1.441,1.441,0,0,0-1.345,1.532h0a1.46,1.46,0,0,0,1.532,1.345l.709-.046a1.394,1.394,0,0,1,1.33.767,10.019,10.019,0,0,0-.762,2.214,4.263,4.263,0,0,0-4.129,1.094,1.442,1.442,0,1,0,2.041,2.038h0a1.387,1.387,0,0,1,1.6-.259l.308.154a9.974,9.974,0,0,0,.447,2.186,4.259,4.259,0,0,0-3.027,3.012,1.441,1.441,0,0,0,1.018,1.766,1.477,1.477,0,0,0,.375.049,1.441,1.441,0,0,0,1.391-1.068,1.386,1.386,0,0,1,1.257-1.026l.353-.022c.053.075.11.144.164.219l-5.127,5.127a17.213,17.213,0,0,1-.758-21.343,1.444,1.444,0,1,0-2.329-1.709,20.134,20.134,0,0,0,24.988,30.06c-.014.19-.055.375-.055.566a7.131,7.131,0,0,0,1.476,4.324H387.948a4.324,4.324,0,0,1-4.324-4.324v-7.206a1.441,1.441,0,1,0-2.883,0v7.206a7.215,7.215,0,0,0,7.206,7.206h50.444a1.441,1.441,0,0,0,0-2.883h-4.221l5.343-5.343,1.761-1.761v2.78a7.206,7.206,0,0,0,14.412,0V569.589a7.215,7.215,0,0,0-7.206-7.206ZM437.475,571.6a4.428,4.428,0,0,1,6.114,0,4.324,4.324,0,0,1,0,6.114l-5.095,5.1-6.115-6.115Zm-26.359-4.155a2.821,2.821,0,0,1-.108-.736,1.441,1.441,0,0,0-2.882,0,5.689,5.689,0,0,0,.817,2.91l-2.5,2.5a7.195,7.195,0,0,1,9.973-9.973Zm-9.824,13.9,3.192-3.192a4.347,4.347,0,0,0,0,.613l.046.711a1.441,1.441,0,0,0,1.441,1.349h.094a1.441,1.441,0,0,0,1.346-1.53v0l-.046-.711a1.386,1.386,0,0,1,.76-1.333,9.993,9.993,0,0,0,3.528.95,1.385,1.385,0,0,1,0,1.531l-.4.592a1.441,1.441,0,0,0,2.4,1.6l.395-.592a4.253,4.253,0,0,0,.6-3.338,10.075,10.075,0,0,0,2.126-.744,1.385,1.385,0,0,1,.768,1.332l-.046.711a1.441,1.441,0,0,0,1.345,1.532h.1a1.442,1.442,0,0,0,1.441-1.349l.046-.711a4.246,4.246,0,0,0-1.153-3.191c.209-.192.415-.386.608-.6a4.279,4.279,0,0,0,3.194,1.141l.711-.046a1.441,1.441,0,0,0,1.345-1.532h0a1.457,1.457,0,0,0-1.532-1.345l-.709.046a1.4,1.4,0,0,1-1.339-.767l-.316-.637a1.441,1.441,0,0,0-1.245-.8,1.332,1.332,0,0,0-1.3.721,7.19,7.19,0,0,1-9.819,2.644q-.2-.115-.391-.242l2.5-2.5a5.69,5.69,0,0,0,2.913.817,1.441,1.441,0,1,0,0-2.883,2.828,2.828,0,0,1-.736-.108l5.3-5.3a7.162,7.162,0,0,1,1.2,3.968q.01.065.026.128a1.483,1.483,0,0,0,.056.288,1.418,1.418,0,0,0,.111.268,1.282,1.282,0,0,0,.049.121c.026.039.068.059.1.1a1.431,1.431,0,0,0,.209.208,1.312,1.312,0,0,0,.221.144,1.371,1.371,0,0,0,.255.1,1.315,1.315,0,0,0,.277.056,1.183,1.183,0,0,0,.141.027c.048,0,.088-.023.134-.027a1.377,1.377,0,0,0,.271-.055,1.393,1.393,0,0,0,.275-.111c.039-.022.082-.025.12-.049l.592-.395a1.379,1.379,0,0,1,1.539,0l.592.395a1.441,1.441,0,0,0,1.6-2.4l-.594-.395a4.242,4.242,0,0,0-3.335-.6,10.079,10.079,0,0,0-.742-2.132,1.356,1.356,0,0,1,1.329-.767l.711.046a1.444,1.444,0,0,0,.187-2.882l-.712-.046a4.381,4.381,0,0,0-.617.01l3.2-3.2a17.21,17.21,0,0,1-.486,22.847l-1.018,1.018a17.21,17.21,0,0,1-22.848.487Zm30.069,8.6a4.324,4.324,0,0,1-6.117-6.114l5.1-5.1,6.115,6.115Zm21.443-3.057a4.324,4.324,0,0,1-8.648,0h0v-5.663l1.471-1.471a7.136,7.136,0,0,0-1.322-11.213,4.312,4.312,0,0,1,8.5,1.052V576.8h-2.026a1.441,1.441,0,0,0,0,2.883H452.8Z" transform="translate(-380.742 -507.615)" fill="#3b281b"/>
    </g>
  </g>
</svg>
