<svg xmlns="http://www.w3.org/2000/svg" width="126.5" height="125.868" viewBox="0 0 126.5 125.868">
  <g id="Grupo_1178130" data-name="Grupo 1178130" transform="translate(-736.461 -4091.066)">
    <path id="Trazado_999260" data-name="Trazado 999260" d="M63.25,0A62.935,62.935,0,1,1,0,62.934,63.093,63.093,0,0,1,63.25,0" transform="translate(736.461 4091.066)" fill="#9d5a5c"/>
    <path id="Trazado_999781" data-name="Trazado 999781" d="M283.6,267.95l37.821,27.479L306.979,339.89H260.23l-14.446-44.461Zm35.1,28.362-35.1-25.5-35.1,25.5,13.408,41.266H305.3Z" transform="translate(516.236 3844.543)" fill="#3b281b"/>
    <path id="Trazado_999782" data-name="Trazado 999782" d="M351.768,239.775a6.985,6.985,0,0,0,1.7,2.993c2.7,3.351,8.428,8.078,15.7,8.078,7.569,0,13.463-5.122,16.016-8.481a6.054,6.054,0,0,0,1.382-2.59,6.054,6.054,0,0,0-1.382-2.59c-2.553-3.36-8.447-8.481-16.016-8.481-7.272,0-13,4.728-15.7,8.078A6.984,6.984,0,0,0,351.768,239.775Z" transform="translate(430.675 3876.226)" fill="#64554b"/>
    <path id="Trazado_999783" data-name="Trazado 999783" d="M422.9,238.038c-2.251-2.962-7.1-7.295-13.4-8.278a23.471,23.471,0,0,1,7.623,6.351,6.054,6.054,0,0,1,1.382,2.59,6.053,6.053,0,0,1-1.382,2.59c-2.553,3.36-8.447,8.481-16.016,8.481a16.941,16.941,0,0,1-2.612-.2,18.23,18.23,0,0,0,8.393,2.131c7.569,0,13.463-5.122,16.016-8.481a6.054,6.054,0,0,0,1.382-2.59A6.056,6.056,0,0,0,422.9,238.038Z" transform="translate(392.953 3875.373)" fill="#8c8c8c"/>
    <circle id="Elipse_13697" data-name="Elipse 13697" cx="4.745" cy="4.745" r="4.745" transform="translate(795.096 4111.256)" fill="#49586b"/>
    <path id="Trazado_999784" data-name="Trazado 999784" d="M586.234,370.119a8.139,8.139,0,0,0-3.353-4.3,7.22,7.22,0,0,1-3.34-5.173l-.9-7.209a5.375,5.375,0,0,0-5.333-4.708h0a5.375,5.375,0,0,0-5.333,4.708l-.9,7.209a7.221,7.221,0,0,1-3.34,5.173,8.138,8.138,0,0,0-3.353,4.3h0a2.978,2.978,0,0,0,2.825,3.919h2.882a4.954,4.954,0,0,1,3.963,1.982h0a4.073,4.073,0,0,0,6.517,0h0a4.954,4.954,0,0,1,3.963-1.982h2.882a2.978,2.978,0,0,0,2.824-3.919Z" transform="translate(262.389 3779.327)" fill="#9d5a5c"/>
    <path id="Trazado_999785" data-name="Trazado 999785" d="M501.76,593.406a10.321,10.321,0,0,1-10.094-8.275l-2.978-14.889a6.368,6.368,0,0,1,9.777-6.548,5.938,5.938,0,0,0,6.588,0,6.368,6.368,0,0,1,9.777,6.548l-2.978,14.889A10.321,10.321,0,0,1,501.76,593.406Zm-6.825-28.469a4.056,4.056,0,0,0-3.979,4.851l2.978,14.889a7.981,7.981,0,0,0,15.652,0l2.978-14.889a4.056,4.056,0,0,0-6.227-4.17,8.251,8.251,0,0,1-9.154,0A4.04,4.04,0,0,0,494.935,564.937Z" transform="translate(320.239 3606.652)" fill="#e5d5ba"/>
    <path id="Trazado_999786" data-name="Trazado 999786" d="M534.953,570.17h0a5.2,5.2,0,0,0-3.47-1.522,5.208,5.208,0,0,1,.078,2.376l-2.978,14.889a9.137,9.137,0,0,1-8.96,7.345h0a9.123,9.123,0,0,1-2.965-.493,9.139,9.139,0,0,0,7.782,4.347h0a9.137,9.137,0,0,0,8.96-7.345l2.978-14.889A5.212,5.212,0,0,0,534.953,570.17Z" transform="translate(297.56 3601.79)" fill="#12263f"/>
    <path id="Trazado_999787" data-name="Trazado 999787" d="M199.005,360.885a7.843,7.843,0,0,0,15.672.481c0-.083.009-.165.011-.247a13.707,13.707,0,0,1,3.524-8.648,10.981,10.981,0,1,0-19.207-7.273Z" transform="translate(554 3791.044)" fill="#7a8593"/>
    <path id="Trazado_999788" data-name="Trazado 999788" d="M282.763,560.417h-8.522a3.394,3.394,0,0,0-3.394,3.394v6.122a3.394,3.394,0,0,0-4.787.013l-1.37,1.37a1.7,1.7,0,0,0,0,2.4l8.741,8.741h0l.045.045a3,3,0,0,1,.885,2.128v3.933a1.018,1.018,0,0,0,1.018,1.018h8.507a1.018,1.018,0,0,0,1.018-1.018V584.65a3.071,3.071,0,0,1,.916-2.179,8.759,8.759,0,0,0,2.6-6.238V566.074A5.657,5.657,0,0,0,282.763,560.417Z" transform="translate(501.374 3608.435)" fill="#fff"/>
    <path id="Trazado_999789" data-name="Trazado 999789" d="M416.885,394.664a10.51,10.51,0,0,0-7.678-3.35,10.657,10.657,0,0,0-1.5.105v-6.091h7.4a3.049,3.049,0,0,0,3.074-2.849,2.993,2.993,0,0,0-2.99-3.137H404.717a2.993,2.993,0,0,0-2.993,2.993V395.8a2.993,2.993,0,0,0,4.79,2.393,4.49,4.49,0,1,1,3,8.073,4.148,4.148,0,0,1-3.182-1.022,3,3,0,0,0-4.146.064l-.023.024a2.983,2.983,0,0,0,.155,4.358,10.45,10.45,0,0,0,6.886,2.572c.231,0,.464-.008.7-.023a10.475,10.475,0,0,0,6.985-17.578Z" transform="translate(390.696 3754.615)" fill="#12263f"/>
    <path id="Trazado_999790" data-name="Trazado 999790" d="M364.322,247.158c-7.18,0-13.283-4.4-16.6-8.509-.73-.9-1.954-2.59-1.954-3.719s1.224-2.814,1.953-3.719q.272-.337.581-.689l1.737,1.527q-.276.314-.518.614a7.7,7.7,0,0,0-1.444,2.318,9.937,9.937,0,0,0,1.444,2.216c2.982,3.7,8.436,7.648,14.8,7.648,6.641,0,12.282-4.323,15.1-8.025a6.475,6.475,0,0,0,1.149-1.942,9.292,9.292,0,0,0-1.149-1.839c-2.813-3.7-8.455-8.025-15.1-8.025a17.5,17.5,0,0,0-9.385,2.873l-1.231-1.958a19.77,19.77,0,0,1,10.616-3.228c7.487,0,13.8,4.815,16.936,8.938a6.906,6.906,0,0,1,1.617,3.29,6.906,6.906,0,0,1-1.617,3.29C378.125,242.343,371.81,247.158,364.322,247.158Z" transform="translate(435.519 3881.07)" fill="#3b281b"/>
    <path id="Elipse_13698" data-name="Elipse 13698" d="M-1.31-7.5A6.2,6.2,0,0,1,4.88-1.31,6.2,6.2,0,0,1-1.31,4.88,6.2,6.2,0,0,1-7.5-1.31,6.2,6.2,0,0,1-1.31-7.5Zm0,9.489a3.3,3.3,0,0,0,3.3-3.3,3.3,3.3,0,0,0-3.3-3.3,3.3,3.3,0,0,0-3.3,3.3A3.3,3.3,0,0,0-1.31,1.989Z" transform="translate(801.15 4117.311)"/>
    <path id="Trazado_999791" data-name="Trazado 999791" d="M568.454,373.962a5.185,5.185,0,0,1-4.184-2.092,3.816,3.816,0,0,0-3.038-1.519H558.35a4.134,4.134,0,0,1-3.922-5.441A9.332,9.332,0,0,1,558.258,360a6.062,6.062,0,0,0,2.814-4.341l.9-7.209a6.531,6.531,0,0,1,12.961,0l.9,7.209A6.062,6.062,0,0,0,578.649,360a9.332,9.332,0,0,1,3.829,4.905,4.134,4.134,0,0,1-3.921,5.441h-2.882a3.816,3.816,0,0,0-3.038,1.519A5.185,5.185,0,0,1,568.454,373.962Zm0-28.916a4.225,4.225,0,0,0-4.186,3.7l-.9,7.209a8.367,8.367,0,0,1-3.866,6.005,7.012,7.012,0,0,0-2.877,3.686,1.821,1.821,0,0,0,1.728,2.4h2.882a6.139,6.139,0,0,1,4.888,2.444,2.917,2.917,0,0,0,4.667,0,6.139,6.139,0,0,1,4.888-2.444h2.882a1.821,1.821,0,0,0,1.727-2.4,7.013,7.013,0,0,0-2.877-3.686,8.367,8.367,0,0,1-3.866-6.005l-.9-7.209A4.225,4.225,0,0,0,568.453,345.045Z" transform="translate(267.242 3784.17)" fill="#3b281b"/>
    <path id="Trazado_999792" data-name="Trazado 999792" d="M501.76,593.406a10.321,10.321,0,0,1-10.094-8.275l-2.978-14.889a6.368,6.368,0,0,1,9.777-6.548,5.938,5.938,0,0,0,6.588,0,6.368,6.368,0,0,1,9.777,6.548l-2.978,14.889A10.321,10.321,0,0,1,501.76,593.406Zm-6.825-28.469a4.056,4.056,0,0,0-3.979,4.851l2.978,14.889a7.981,7.981,0,0,0,15.652,0l2.978-14.889a4.056,4.056,0,0,0-6.227-4.17,8.251,8.251,0,0,1-9.154,0A4.04,4.04,0,0,0,494.935,564.937Z" transform="translate(320.239 3606.652)" fill="#3b281b"/>
    <path id="Línea_3531" data-name="Línea 3531" d="M-6.055,11.8A1.445,1.445,0,0,1-7.5,10.359V-6.055A1.445,1.445,0,0,1-6.055-7.5,1.445,1.445,0,0,1-4.609-6.055V10.359A1.445,1.445,0,0,1-6.055,11.8Z" transform="translate(828.055 4178.555)"/>
    <path id="Trazado_999793" data-name="Trazado 999793" d="M202.005,365.041h0a9.01,9.01,0,0,1-9-9V340.355a12.137,12.137,0,1,1,21.229,8.04A12.582,12.582,0,0,0,211,356.31l-.013.283a9,9,0,0,1-8.342,8.426C202.43,365.034,202.217,365.041,202.005,365.041Zm3.136-34.51a9.835,9.835,0,0,0-9.824,9.824v15.686A6.7,6.7,0,0,0,202,362.729c.159,0,.319-.005.481-.017a6.687,6.687,0,0,0,6.194-6.258l.009-.211a14.9,14.9,0,0,1,3.814-9.381,9.824,9.824,0,0,0-6.952-16.323Z" transform="translate(558.844 3795.888)" fill="#3b281b"/>
    <path id="Trazado_999794" data-name="Trazado 999794" d="M227.3,384.292a2.961,2.961,0,0,1-2.963-2.961v-4.1a3.932,3.932,0,0,1,1.16-2.8,1.1,1.1,0,0,0,.348-.791,1.062,1.062,0,0,0-.313-.756,3.963,3.963,0,0,1-1.2-2.836v-4.406a6.107,6.107,0,0,1,6.1-6.1l.245,0A6.1,6.1,0,0,1,235,369.683a1.445,1.445,0,1,1-2.164-1.917,3.208,3.208,0,0,0-2.267-5.329,3.244,3.244,0,0,0-3.349,3.208v4.406a1.061,1.061,0,0,0,.313.755,3.96,3.96,0,0,1,.035,5.637,1.094,1.094,0,0,0-.348.791v4.1a1.507,1.507,0,0,1,1.481,1.48A1.445,1.445,0,0,1,227.3,384.292Z" transform="translate(533.553 3770.599)"/>
    <path id="Trazado_999795" data-name="Trazado 999795" d="M269.4,554.417h8.522a6.813,6.813,0,0,1,6.813,6.814v10.158a9.874,9.874,0,0,1-2.941,7.059,1.9,1.9,0,0,0-.574,1.358v3.913a2.177,2.177,0,0,1-2.174,2.174h-8.507a2.177,2.177,0,0,1-2.174-2.174v-3.933a1.859,1.859,0,0,0-.544-1.309l-8.789-8.787a2.853,2.853,0,0,1,0-4.036l1.37-1.37a4.521,4.521,0,0,1,3.218-1.333,4.571,4.571,0,0,1,1.23.168v-4.153A4.556,4.556,0,0,1,269.4,554.417Zm9.508,29.164v-3.775a4.2,4.2,0,0,1,1.258-3,7.577,7.577,0,0,0,2.257-5.417V561.231a4.5,4.5,0,0,0-4.5-4.5H269.4a2.241,2.241,0,0,0-2.238,2.238v8.892l-1.969-1.948a2.238,2.238,0,0,0-3.156.009l-1.37,1.37a.541.541,0,0,0,0,.765L269.4,576.8a4.216,4.216,0,0,1,1.27,2.99v3.795Z" transform="translate(506.218 3613.278)" fill="#3b281b"/>
    <path id="Trazado_999796" data-name="Trazado 999796" d="M303.06,612.215a1.446,1.446,0,0,1-1.381-1.021,2.059,2.059,0,0,0-1.979-1.46,2.1,2.1,0,0,0-.443.047,3.945,3.945,0,0,1-3.647-1.052l-3.961-3.961a1.445,1.445,0,1,1,2.044-2.044l3.961,3.961a1.068,1.068,0,0,0,.99.271,4.989,4.989,0,0,1,1.056-.113,4.935,4.935,0,0,1,4.742,3.5,1.446,1.446,0,0,1-1.382,1.87Z" transform="translate(479.55 3574.622)"/>
    <path id="Línea_3532" data-name="Línea 3532" d="M-6.055,1.717A1.445,1.445,0,0,1-7.5.272V-6.055A1.445,1.445,0,0,1-6.055-7.5,1.445,1.445,0,0,1-4.609-6.055V.272A1.445,1.445,0,0,1-6.055,1.717Z" transform="translate(783.753 4175.602)"/>
    <path id="Línea_3533" data-name="Línea 3533" d="M-6.055,1.717A1.445,1.445,0,0,1-7.5.272V-6.055A1.445,1.445,0,0,1-6.055-7.5,1.445,1.445,0,0,1-4.609-6.055V.272A1.445,1.445,0,0,1-6.055,1.717Z" transform="translate(788.992 4175.602)"/>
    <path id="Trazado_999797" data-name="Trazado 999797" d="M404.361,408.579a11.622,11.622,0,0,1-7.647-2.858,4.151,4.151,0,1,1,5.548-6.176,3.031,3.031,0,0,0,2.337.727,3.334,3.334,0,1,0-2.231-5.994,4.149,4.149,0,0,1-6.641-3.317V377.493a4.154,4.154,0,0,1,4.149-4.149H401.4v2.312h-1.523a1.839,1.839,0,0,0-1.837,1.837v13.468a1.837,1.837,0,0,0,2.94,1.469,5.646,5.646,0,0,1,7.176.332,5.646,5.646,0,0,1-3.409,9.818,5.3,5.3,0,0,1-4.031-1.316,1.856,1.856,0,0,0-2.555.022,1.827,1.827,0,0,0,.075,2.693,9.323,9.323,0,1,0,6.13-16.351,9.5,9.5,0,0,0-1.334.094l-1.319.187V379.33h8.554a1.9,1.9,0,0,0,1.919-1.747,1.837,1.837,0,0,0-1.835-1.927h-2.208v-2.312h2.208a4.149,4.149,0,0,1,4.145,4.348,4.187,4.187,0,0,1-4.229,3.951h-6.242v3.678q.17,0,.341,0a11.631,11.631,0,0,1,.769,23.237C404.876,408.57,404.617,408.579,404.361,408.579Z" transform="translate(395.538 3759.458)" fill="#3b281b"/>
    <path id="Línea_3534" data-name="Línea 3534" d="M-3.507,15.36l-2.2-.715,5.361-16.5,2.2.715Z" transform="translate(830.95 4156.061)" fill="#3b281b"/>
    <path id="Línea_3535" data-name="Línea 3535" d="M21.589-3.688H0V-6H21.589Z" transform="translate(789.794 4188.12)" fill="#3b281b"/>
    <path id="Línea_3536" data-name="Línea 3536" d="M-4.77,1.742-5.706-1.14l2.2-.715.936,2.882Z" transform="translate(776.684 4168.682)" fill="#3b281b"/>
    <path id="Línea_3537" data-name="Línea 3537" d="M-3.889,4.452-5.706-1.14l2.2-.715L-1.69,3.738Z" transform="translate(772.701 4156.424)" fill="#3b281b"/>
    <path id="Línea_3538" data-name="Línea 3538" d="M-2.168,6.868-3.527,5l13.56-9.852,1.359,1.871Z" transform="translate(777.146 4126.545)" fill="#3b281b"/>
    <path id="Línea_3539" data-name="Línea 3539" d="M14.632,10.209-3.527-2.983l1.359-1.871L15.991,8.339Z" transform="translate(814.669 4126.545)" fill="#3b281b"/>
  </g>
</svg>
