<svg xmlns="http://www.w3.org/2000/svg" width="126.5" height="125.868" viewBox="0 0 126.5 125.868">
  <g id="Grupo_1178132" data-name="Grupo 1178132" transform="translate(-383.461 -4520.066)">
    <path id="Trazado_999260" data-name="Trazado 999260" d="M63.25,0A62.935,62.935,0,1,1,0,62.934,63.093,63.093,0,0,1,63.25,0" transform="translate(383.461 4520.066)" fill="#9d5a5c"/>
    <path id="Trazado_999800" data-name="Trazado 999800" d="M524.167,209.1V194.35h17.7V209.1" transform="translate(-102.501 4343.027)" fill="#3b281b"/>
    <circle id="Elipse_13703" data-name="Elipse 13703" cx="25.297" cy="25.297" r="25.297" transform="translate(437.69 4569.63)" fill="#7a8593"/>
    <ellipse id="Elipse_13704" data-name="Elipse 13704" cx="5.134" cy="11.743" rx="5.134" ry="11.743" transform="matrix(0.716, -0.698, 0.698, 0.716, 438.94, 4595.754)" fill="#797979"/>
    <path id="Trazado_999801" data-name="Trazado 999801" d="M479.746,342.216h-35.57l-1.387-2.464a51.64,51.64,0,0,1-6.624-25.568v-.3a51.787,51.787,0,0,1,5.37-22.75l8.336-16.789h22.75l7.8,15.83a56.62,56.62,0,0,1,5.9,25.273v.3a56.238,56.238,0,0,1-5.075,23.148Z" transform="translate(-30.727 4277.78)" fill="#5f4205"/>
    <ellipse id="Elipse_13705" data-name="Elipse 13705" cx="14.665" cy="15.031" rx="14.665" ry="15.031" transform="translate(415.693 4571.097)" fill="#64554b"/>
    <path id="Trazado_999802" data-name="Trazado 999802" d="M552.577,410.35l-4.087,10.888c-1.21,3.246.929,6.816,4.087,6.816s5.3-3.57,4.087-6.816Z" transform="translate(-122.06 4166.861)" fill="#e5d5ba"/>
    <ellipse id="Elipse_13706" data-name="Elipse 13706" cx="11.743" cy="5.134" rx="11.743" ry="5.134" transform="matrix(0.698, -0.716, 0.716, 0.698, 463.24, 4605.479)" fill="#797979"/>
    <ellipse id="Elipse_13707" data-name="Elipse 13707" cx="6.078" cy="13.603" rx="6.078" ry="13.603" transform="translate(456.897 4574.26)" fill="#797979"/>
    <path id="Trazado_999803" data-name="Trazado 999803" d="M524.167,194.35h17.7v5.9h-17.7Z" transform="translate(-102.501 4343.027)" fill="#fff"/>
    <path id="Trazado_999804" data-name="Trazado 999804" d="M515.665,284.677H482.647l5.134-10.327h22.75Z" transform="translate(-68.639 4277.78)" fill="#a7a7a7"/>
    <path id="Trazado_999805" data-name="Trazado 999805" d="M497.35,586.35h-44.7a50.322,50.322,0,0,0,3.585,7.864l1.387,2.464h35.571l1.475-3.319A55.646,55.646,0,0,0,497.35,586.35Z" transform="translate(-44.171 4023.318)" fill="#a7a7a7"/>
    <path id="Trazado_999806" data-name="Trazado 999806" d="M436.367,271.168a1.476,1.476,0,0,0,1.284.752h35.57a1.476,1.476,0,0,0,1.343-.856l1.475-3.32a60.022,60.022,0,0,0,2.611-6.919,10.749,10.749,0,0,0,2.656.369,7.656,7.656,0,0,0,1.475-.133l2.951,2.951v4.957a22.782,22.782,0,0,1-6.846-1.475l-1.062,2.744a25.7,25.7,0,0,0,9.354,1.682,26.556,26.556,0,0,0,4.677-52.684l-.5,2.951a23.605,23.605,0,0,1-2.7,46.783V264.1l2.951-2.951a8.847,8.847,0,0,0,1.475.133c3.452,0,7.583-1.977,10.947-5.4,4.16-4.219,6.182-9.649,5.031-13.514a1.475,1.475,0,0,0-.959-.988c-3.792-1.225-9.147.8-13.278,5.046-3.851,3.91-5.9,8.852-5.193,12.614l-.974.782V252.74c3.659-2.449,6.078-8.085,6.078-14.429,0-6.8-2.759-12.791-6.875-14.916a1.475,1.475,0,0,0-1.357,0c-2.951,1.475-5.193,5.046-6.241,9.413a57.531,57.531,0,0,0-4.987-15.049l-7.849-15.83a1.475,1.475,0,0,0-1.328-.826h-1.047V187.825a1.475,1.475,0,0,0-1.475-1.475h-17.7a1.475,1.475,0,0,0-1.475,1.475V201.1h-1.047a1.475,1.475,0,0,0-1.328.826l-8.336,16.789a53.717,53.717,0,0,0-5.518,23.532v.162a53.277,53.277,0,0,0,6.8,26.291ZM496.857,248.4c2.995-3.039,6.772-4.839,9.5-4.515.339,2.788-1.475,6.683-4.426,9.8a15.212,15.212,0,0,1-7.377,4.426l5.9-5.99-2.11-2.08-5.813,5.9a15.771,15.771,0,0,1,4.279-7.539ZM473.384,266.52l-1.121,2.449H438.492l-.959-1.711a50.047,50.047,0,0,1-2.715-5.665h40.557a52.57,52.57,0,0,1-1.992,4.928Zm6.89-12.231c.118-.59.221-1.18.31-1.785a12.978,12.978,0,0,1,1.284,3.408Zm-.8,3.7a1.5,1.5,0,0,1,0-.251l.31.325Zm5.385.974c.561-3.275-.826-7.377-3.762-10.977l.089-1.269a13.029,13.029,0,0,0,4.515,6.019v7.082Zm2.316-32.458c2.744,1.947,4.6,6.654,4.6,11.8a17.115,17.115,0,0,1-3.128,10.416V235.036H485.7v13.691a17.114,17.114,0,0,1-3.128-10.416c0-5.223,1.859-9.929,4.6-11.877ZM462.1,189.3v2.951H447.344V189.3Zm-14.753,5.9H462.1v5.9H447.344Zm-3.083,8.852h20.92l3.674,7.377H440.587Zm-13.145,38.064a50.723,50.723,0,0,1,5.208-22.13l2.8-5.606h31.189l2.316,4.692a55.484,55.484,0,0,1,5.695,24.815v.162a54.82,54.82,0,0,1-2.065,14.591H433.727a51.553,51.553,0,0,1-2.611-16.362Z" transform="translate(-24.203 4349.551)" fill="#3b281b"/>
    <path id="Trazado_999807" data-name="Trazado 999807" d="M546.038,422.749a5.68,5.68,0,0,0,4.706-2.552,6.728,6.728,0,0,0,.752-6.3l-4.072-10.888a1.475,1.475,0,0,0-2.774,0L540.579,413.9a6.728,6.728,0,0,0,.752,6.255,5.681,5.681,0,0,0,4.706,2.6Zm-2.7-7.76,2.7-7.214,2.7,7.214a3.865,3.865,0,0,1-.413,3.541,2.7,2.7,0,0,1-4.574,0,3.866,3.866,0,0,1-.413-3.541Z" transform="translate(-115.521 4173.641)"/>
    <path id="Trazado_999808" data-name="Trazado 999808" d="M500.4,402.808a16.229,16.229,0,1,0-16.229-16.229A16.229,16.229,0,0,0,500.4,402.808Zm0-29.507a13.278,13.278,0,1,1-13.278,13.278A13.278,13.278,0,0,1,500.4,373.3Z" transform="translate(-69.878 4199.484)"/>
    <path id="Trazado_999809" data-name="Trazado 999809" d="M698.4,368.277a22.634,22.634,0,0,1,4.16-1.136l-.5-2.951a27.017,27.017,0,0,0-4.692,1.284Z" transform="translate(-243.76 4204.508)"/>
    <path id="Trazado_999810" data-name="Trazado 999810" d="M739.687,362.154l.177,2.951a21.756,21.756,0,0,1,2.774,0l.177-2.951A27.646,27.646,0,0,0,739.687,362.154Z" transform="translate(-278.276 4206.205)"/>
  </g>
</svg>
