<svg xmlns="http://www.w3.org/2000/svg" width="126.5" height="125.868" viewBox="0 0 126.5 125.868">
  <g id="Grupo_1178133" data-name="Grupo 1178133" transform="translate(-736.461 -4520.066)">
    <path id="Trazado_999260" data-name="Trazado 999260" d="M63.25,0A62.935,62.935,0,1,1,0,62.934,63.093,63.093,0,0,1,63.25,0" transform="translate(736.461 4520.066)" fill="#9d5a5c"/>
    <path id="Trazado_999811" data-name="Trazado 999811" d="M524.167,194.35h16.572v5.524H524.167Z" transform="translate(242.674 4342.6)" fill="#fff"/>
    <path id="Trazado_999812" data-name="Trazado 999812" d="M547.006,233.549a7.794,7.794,0,0,1,.249,3.994l-.45,2.252a7.8,7.8,0,0,0,.672,5.016,7.8,7.8,0,0,1,.265,6.382l-1.525,3.442a11.012,11.012,0,0,1,1.379-.544l15.255-4.767.464.7a7.741,7.741,0,0,0,12.882,0l.464-.7,15.256,4.767a11.034,11.034,0,0,1,1.379.544l-1.524-3.442a7.8,7.8,0,0,1,.266-6.382,7.8,7.8,0,0,0,.671-5.016l-.45-2.252a7.8,7.8,0,0,1,.249-3.994l.326-.979a7.8,7.8,0,0,0,.4-2.465v-9.783a23.477,23.477,0,1,0-46.953,0v9.783a7.8,7.8,0,0,0,.4,2.465Z" transform="translate(224.43 4340.535)" fill="#49586b"/>
    <path id="Trazado_999813" data-name="Trazado 999813" d="M613.155,255.131l-1.524-3.442a7.8,7.8,0,0,1,.266-6.382,7.8,7.8,0,0,0,.672-5.016l-.45-2.252a7.8,7.8,0,0,1,.249-3.994l.326-.979a7.8,7.8,0,0,0,.4-2.465v-9.783a21.516,21.516,0,1,0-42.872,0V230.6a7.8,7.8,0,0,0,.4,2.465l.326.979a7.8,7.8,0,0,1,.249,3.994l-.45,2.252a7.8,7.8,0,0,0,.672,5.016,7.8,7.8,0,0,1,.265,6.382l-.527,1.742,11.557-3.612.464.7a7.741,7.741,0,0,0,12.882,0l.464-.7,15.256,4.767a11.03,11.03,0,0,1,1.379.544Z" transform="translate(204.572 4340.039)" fill="#534236"/>
    <path id="Trazado_999814" data-name="Trazado 999814" d="M560.18,481.772a11.048,11.048,0,0,0-7.677-9.254l-15.256-4.767v-6.9h-13.81v6.9l-15.255,4.767a11.047,11.047,0,0,0-7.677,9.254l-1.925,16.36H562.1Z" transform="translate(263.845 4122.107)" fill="#fff"/>
    <path id="Trazado_999815" data-name="Trazado 999815" d="M560.18,514.867a11.048,11.048,0,0,0-7.677-9.254l-15.256-4.767-.464.7a7.741,7.741,0,0,1-12.882,0l-.464-.7-15.255,4.767a11.047,11.047,0,0,0-7.677,9.254l-1.925,16.36H562.1Z" transform="translate(263.845 4089.012)" fill="#12263f"/>
    <path id="Trazado_999816" data-name="Trazado 999816" d="M572.36,505.613,557.1,500.846l-.464.7a7.723,7.723,0,0,1-12.6.367l-11.856,3.7a11.047,11.047,0,0,0-7.677,9.254l-1.925,16.36h59.382l-1.925-16.36a11.048,11.048,0,0,0-7.676-9.254Z" transform="translate(243.988 4089.012)" fill="#797979"/>
    <rect id="Rect치ngulo_454832" data-name="Rect치ngulo 454832" width="28" height="36" rx="14" transform="translate(809.045 4584)" fill="#e5d5ba"/>
    <rect id="Rect치ngulo_454833" data-name="Rect치ngulo 454833" width="25" height="36" rx="12.5" transform="translate(812.045 4584)" fill="#3b281b"/>
    <path id="Trazado_999817" data-name="Trazado 999817" d="M770.582,516.846H798.2V536.18H770.582Z" transform="translate(38.795 4075.773)" fill="#64554b"/>
    <path id="Trazado_999818" data-name="Trazado 999818" d="M786.582,516.846h24.857V536.18H786.582Z" transform="translate(25.558 4075.773)" fill="#8c8c8c"/>
    <path id="Trazado_999819" data-name="Trazado 999819" d="M619.722,302.513v6.9a16.572,16.572,0,0,1-33.143,0v-6.9h1.912a15.95,15.95,0,0,0,14.66-9.667,15.95,15.95,0,0,0,14.66,9.667Z" transform="translate(191.036 4261.106)" fill="#fff"/>
    <path id="Trazado_999820" data-name="Trazado 999820" d="M639.579,302.513h-1.911a15.95,15.95,0,0,1-14.661-9.667,15.948,15.948,0,0,1-12.429,9.506v5.684a14.643,14.643,0,1,0,29,1.381Z" transform="translate(171.179 4261.106)" fill="#7a8593"/>
    <path id="Trazado_999821" data-name="Trazado 999821" d="M623.186,501.542l-.464-.7-4.143,1.295v2.5a5.3,5.3,0,0,0,10.036,2.369l1.012-2.024A7.742,7.742,0,0,1,623.186,501.542Z" transform="translate(164.56 4089.012)" fill="#a7a7a7"/>
    <path id="Trazado_999822" data-name="Trazado 999822" d="M689.2,509.87a5.3,5.3,0,0,0,4.426-5.226v-2.5l-4.143-1.295-.464.7a7.741,7.741,0,0,1-6.441,3.447l1.012,2.024A5.3,5.3,0,0,0,689.2,509.87Z" transform="translate(111.607 4089.012)" fill="#a7a7a7"/>
    <path id="Trazado_999823" data-name="Trazado 999823" d="M816.389,436.846H805.341a2.762,2.762,0,0,0-2.762,2.762v2.762h16.572v-2.762A2.762,2.762,0,0,0,816.389,436.846Z" transform="translate(12.322 4141.964)" fill="#64554b"/>
    <path id="Trazado_999824" data-name="Trazado 999824" d="M829.627,436.846h-8.286a2.762,2.762,0,0,0-2.762,2.762v2.762h13.81v-2.762A2.762,2.762,0,0,0,829.627,436.846Z" transform="translate(-0.916 4141.964)" fill="#8c8c8c"/>
    <path id="Trazado_999825" data-name="Trazado 999825" d="M840.1,554.37a2.762,2.762,0,0,1-5.524,0c0-1.525,2.762-5.524,2.762-5.524S840.1,552.844,840.1,554.37Z" transform="translate(-14.154 4049.298)" fill="#e5d5ba"/>
    <path id="Trazado_999826" data-name="Trazado 999826" d="M842.579,559.417a2.137,2.137,0,1,0,4.143,0c0-1.028-1.253-3.176-2.071-4.471C843.833,556.241,842.579,558.389,842.579,559.417Z" transform="translate(-20.773 4044.25)" fill="#3b281b"/>
    <path id="Trazado_999827" data-name="Trazado 999827" d="M661.627,422.227a1.381,1.381,0,1,0-2.762,0,2.762,2.762,0,0,1-5.524,0,1.381,1.381,0,1,0-2.762,0,5.524,5.524,0,0,0,11.048,0Z" transform="translate(138.083 4155.202)"/>
    <path id="Trazado_999828" data-name="Trazado 999828" d="M625.484,370.37a1.381,1.381,0,0,0,1.381-1.381,4.143,4.143,0,1,0-8.286,0,1.381,1.381,0,0,0,2.762,0,1.381,1.381,0,1,1,2.762,0A1.381,1.381,0,0,0,625.484,370.37Z" transform="translate(164.56 4201.535)"/>
    <path id="Trazado_999829" data-name="Trazado 999829" d="M699.96,370.37a1.381,1.381,0,0,0,1.381-1.381,1.381,1.381,0,1,1,2.762,0,1.381,1.381,0,1,0,2.762,0,4.143,4.143,0,1,0-8.286,0A1.381,1.381,0,0,0,699.96,370.37Z" transform="translate(98.369 4201.535)"/>
    <path id="Trazado_999830" data-name="Trazado 999830" d="M562.4,235.8v-1.381a4.147,4.147,0,0,0-4.143-4.143H547.537a6.414,6.414,0,0,1,.254-2.908l.326-.978a9.147,9.147,0,0,0,.471-2.9V213.7a24.866,24.866,0,0,0-5.906-16.085,1.381,1.381,0,0,0-2.147,1.738l.043.05a22.1,22.1,0,0,1,5.247,14.3v9.783a6.392,6.392,0,0,1-.329,2.028l-.326.979a9.17,9.17,0,0,0-.316,4.521,4.137,4.137,0,0,0-1.79,3.4V235.8a5.529,5.529,0,0,0-5.524,5.524v2.092l-5.524-1.726V239.28a17.961,17.961,0,0,0,9.667-15.911v-6.9a1.381,1.381,0,0,0-1.381-1.381h-1.911A14.555,14.555,0,0,1,525,206.255a1.381,1.381,0,0,0-2.538,0,14.555,14.555,0,0,1-13.392,8.829h-1.912a1.381,1.381,0,0,0-1.381,1.381v6.9a17.96,17.96,0,0,0,9.667,15.91v2.408l-12.67,3.961.224-.563a9.187,9.187,0,0,0-.313-7.512,6.446,6.446,0,0,1-.552-4.127l.451-2.252a9.186,9.186,0,0,0-.293-4.7l-.326-.98a6.368,6.368,0,0,1-.329-2.027V213.7a22.1,22.1,0,0,1,35.093-17.87,1.381,1.381,0,1,0,1.627-2.233h0a24.86,24.86,0,0,0-39.481,20.1v9.783a9.128,9.128,0,0,0,.472,2.9l.326.979a6.425,6.425,0,0,1,.2,3.285l-.45,2.252a9.226,9.226,0,0,0,.79,5.9,6.422,6.422,0,0,1,.218,5.251l-1.146,2.866a12.438,12.438,0,0,0-6.766,9.638l-.463,3.931a1.381,1.381,0,0,0,1.21,1.533h0a1.36,1.36,0,0,0,.163.01,1.381,1.381,0,0,0,1.37-1.219l.463-3.931a9.682,9.682,0,0,1,6.717-8.1l9.32-2.913v.625a6.658,6.658,0,0,0,5.579,6.588,6.885,6.885,0,0,0,1.119.093,6.618,6.618,0,0,0,4.349-1.634V271.7H507.159v-9.667a1.381,1.381,0,0,0-2.762,0V271.7H493.522l.631-5.362a1.381,1.381,0,1,0-2.743-.324h0l-.811,6.9a1.383,1.383,0,0,0,1.213,1.534,1.4,1.4,0,0,0,.157.009h42.81a1.381,1.381,0,1,0,0-2.762h-9.667V251.548a6.618,6.618,0,0,0,4.35,1.634,6.888,6.888,0,0,0,1.119-.093,6.658,6.658,0,0,0,5.578-6.588v-.626l1.381.432v22.635a5.529,5.529,0,0,0,5.524,5.524H562.4a5.529,5.529,0,0,0,5.524-5.524V241.323A5.529,5.529,0,0,0,562.4,235.8ZM508.54,223.37v-5.524h.53a17.31,17.31,0,0,0,14.661-8.085,17.311,17.311,0,0,0,14.661,8.085h.529v5.524a15.191,15.191,0,0,1-30.381,0Zm15.191,17.953a17.865,17.865,0,0,0,5.524-.879v1.842l-.232.348a6.361,6.361,0,0,1-10.584,0l-.232-.348v-1.842A17.865,17.865,0,0,0,523.731,241.323Zm-6.394,9.042a3.905,3.905,0,0,1-3.273-3.864v-1.489l2.2-.687a9.093,9.093,0,0,0,5.36,3.649l-.14.279a3.9,3.9,0,0,1-4.145,2.112ZM533.4,246.5a3.916,3.916,0,0,1-7.419,1.752l-.139-.279a9.094,9.094,0,0,0,5.36-3.648l2.2.686Zm12.429-12.084a1.382,1.382,0,0,1,1.381-1.381h11.048a1.382,1.382,0,0,1,1.381,1.381V235.8h-13.81Zm-2.762,4.143H562.4a2.765,2.765,0,0,1,2.762,2.762v2.762H540.3v-2.762A2.765,2.765,0,0,1,543.064,238.561ZM562.4,271.7H543.064a2.766,2.766,0,0,1-2.762-2.762V266.18h15.191a1.381,1.381,0,1,0,0-2.762H540.3V246.846H565.16v16.572h-4.143a1.381,1.381,0,1,0,0,2.762h4.143v2.762A2.766,2.766,0,0,1,562.4,271.7Z" transform="translate(270.456 4347.154)" fill="#3b281b"/>
    <path id="Trazado_999831" data-name="Trazado 999831" d="M829.586,541.613c-.9,1.31-3.007,4.543-3.007,6.309a4.143,4.143,0,1,0,8.286,0c0-1.765-2.1-5-3.006-6.309A1.433,1.433,0,0,0,829.586,541.613Zm1.136,7.69a1.381,1.381,0,0,1-1.381-1.38,10.306,10.306,0,0,1,1.381-2.966,10.37,10.37,0,0,1,1.381,2.966A1.382,1.382,0,0,1,830.722,549.3Z" transform="translate(-7.535 4055.745)"/>
  </g>
</svg>
