<svg xmlns="http://www.w3.org/2000/svg" width="126.5" height="125.868" viewBox="0 0 126.5 125.868">
  <g id="Grupo_1178134" data-name="Grupo 1178134" transform="translate(-1101.461 -4520.066)">
    <path id="Trazado_999260" data-name="Trazado 999260" d="M63.25,0A62.935,62.935,0,1,1,0,62.934,63.093,63.093,0,0,1,63.25,0" transform="translate(1101.461 4520.066)" fill="#9d5a5c"/>
    <path id="Trazado_999832" data-name="Trazado 999832" d="M542.587,213.177a18.794,18.794,0,0,1,20.62-10.088,1.941,1.941,0,0,1,1.526,1.575,19.487,19.487,0,0,1-2.018,12.6,8.038,8.038,0,0,1-1.181,1.969,20.887,20.887,0,0,1-1.968,2.264,18.648,18.648,0,0,1-13.189,5.561,19.308,19.308,0,0,1-3.74-.394,20.319,20.319,0,0,1-3.838.394,18.734,18.734,0,0,1-13.189-5.561A14.016,14.016,0,0,1,523,218.2c-.2-.3-.344-.64-.541-.935a19.066,19.066,0,0,1-1.969-12.549,2,2,0,0,1,1.526-1.624A18.76,18.76,0,0,1,542.587,213.177Zm-29.33,2.018V200.087h-3.3a1.974,1.974,0,0,1-1.969-1.969v-6.053a1.974,1.974,0,0,1,1.969-1.968h65.3a1.974,1.974,0,0,1,1.969,1.968v6.053a1.974,1.974,0,0,1-1.969,1.969h-3.3v15.108c0,7.677-5.561,13.927-12.7,16.88,7.136,3,12.7,9.252,12.7,16.929v15.059h3.3a1.974,1.974,0,0,1,1.969,1.968v6.1a1.974,1.974,0,0,1-1.969,1.969h-65.3a1.974,1.974,0,0,1-1.969-1.969v-6.1a1.974,1.974,0,0,1,1.969-1.968h3.3V249c0-7.677,5.512-13.927,12.7-16.929C518.768,229.122,513.257,222.872,513.257,215.195Zm54.772,0V200.087H517.194v15.108c0,8.956,9.6,14.911,18.848,14.911a1.968,1.968,0,0,1,0,3.937c-9.252,0-18.848,6-18.848,14.96v15.059h50.835V249c0-8.957-9.6-14.96-18.848-14.96a1.968,1.968,0,0,1,0-3.937C558.383,230.106,568.029,224.151,568.029,215.195Zm-56.1-19.045h61.366v-2.116H511.928Zm0,74.014h61.366V268H511.928Zm30.659-9.2a9.6,9.6,0,0,1-7.775-4.035,7.849,7.849,0,0,1-.935-7.332c.787-1.772,2.658-5.364,7.234-10.58a1.937,1.937,0,0,1,2.953,0c4.527,5.167,6.447,8.76,7.185,10.482a7.952,7.952,0,0,1-.886,7.431A9.535,9.535,0,0,1,542.587,260.961Zm-5.069-9.891c-1.772,4.774,6.151,8.612,9.646,3.642a3.9,3.9,0,0,0,.492-3.642,35.227,35.227,0,0,0-5.069-7.726A37.305,37.305,0,0,0,537.518,251.07Zm-3.149-31.446H529.4a14.35,14.35,0,0,0,8.464,3.445Zm-8.268-3.937h4.281l-4.577-4.527a1.966,1.966,0,0,1,2.756-2.805l4.626,4.577-.1-4.38a14.775,14.775,0,0,0-8.907-1.821A15.28,15.28,0,0,0,526.1,215.687Zm10.974-3.789.1,4.97,3.4,3.346A14.972,14.972,0,0,0,537.075,211.9Zm18.749,7.726h-4.97l-3.445,3.445A14.933,14.933,0,0,0,555.824,219.624Zm-.984-3.937h4.281a15.2,15.2,0,0,0,1.919-8.956,14.51,14.51,0,0,0-8.956,1.821l-.049,4.38,4.626-4.577a1.966,1.966,0,0,1,2.756,2.805Zm-6.791,1.23.049-5.02a14.767,14.767,0,0,0-3.445,8.317Z" transform="translate(622.1 4350.901)" fill="#3b281b" fill-rule="evenodd"/>
    <path id="Trazado_999833" data-name="Trazado 999833" d="M589.522,277.559a20.319,20.319,0,0,1-3.838.394,18.734,18.734,0,0,1-13.189-5.561,14.014,14.014,0,0,1-2.608-3.3c-.2-.3-.344-.64-.541-.935a19.066,19.066,0,0,1-1.969-12.549,2,2,0,0,1,1.526-1.624,18.76,18.76,0,0,1,20.57,10.088,18.794,18.794,0,0,1,20.62-10.088,1.941,1.941,0,0,1,1.526,1.575,19.487,19.487,0,0,1-2.018,12.6,8.039,8.039,0,0,1-1.181,1.969,20.89,20.89,0,0,1-1.968,2.264,18.648,18.648,0,0,1-13.189,5.561A19.309,19.309,0,0,1,589.522,277.559Zm-6.594,7.382c-9.252,0-18.848,6-18.848,14.96V314.96h50.835V299.9c0-8.957-9.6-14.96-18.848-14.96a1.968,1.968,0,0,1,0-3.937c9.2,0,18.848-5.955,18.848-14.911V250.985H564.08v15.108c0,8.956,9.6,14.911,18.848,14.911A1.968,1.968,0,0,1,582.928,284.941Zm-2.165,15.551c.787-1.772,2.657-5.364,7.234-10.58a1.937,1.937,0,0,1,2.953,0c4.528,5.167,6.447,8.76,7.185,10.482a7.952,7.952,0,0,1-.886,7.431,9.509,9.509,0,0,1-15.551,0A7.849,7.849,0,0,1,580.763,300.492Z" transform="translate(575.213 4300.003)" fill="#9d5a5c" fill-rule="evenodd"/>
    <path id="Trazado_999834" data-name="Trazado 999834" d="M696.8,522.359a35.227,35.227,0,0,0-5.069-7.726,37.309,37.309,0,0,0-5.069,7.726c-1.772,4.774,6.151,8.612,9.645,3.642A3.9,3.9,0,0,0,696.8,522.359Z" transform="translate(472.96 4079.612)" fill="#12263f" fill-rule="evenodd"/>
    <path id="Trazado_999835" data-name="Trazado 999835" d="M638.466,370.062a14.349,14.349,0,0,0,8.464,3.445l-3.494-3.445Z" transform="translate(513.032 4200.463)" fill="#fff" fill-rule="evenodd"/>
    <path id="Trazado_999836" data-name="Trazado 999836" d="M685.257,322.971l.1,4.97,3.4,3.346A14.972,14.972,0,0,0,685.257,322.971Z" transform="translate(473.918 4239.828)" fill="#fff" fill-rule="evenodd"/>
    <path id="Trazado_999837" data-name="Trazado 999837" d="M615.336,297.214l-.1-4.38a14.775,14.775,0,0,0-8.907-1.821,15.279,15.279,0,0,0,1.919,8.956h4.281l-4.577-4.527a1.966,1.966,0,0,1,2.756-2.805Z" transform="translate(539.951 4266.618)" fill="#fff" fill-rule="evenodd"/>
    <path id="Trazado_999838" data-name="Trazado 999838" d="M734.893,322.971a14.767,14.767,0,0,0-3.445,8.317l3.4-3.3Z" transform="translate(435.305 4239.828)" fill="#fff" fill-rule="evenodd"/>
    <path id="Trazado_999839" data-name="Trazado 999839" d="M756.659,370.062h-4.97l-3.445,3.445A14.933,14.933,0,0,0,756.659,370.062Z" transform="translate(421.265 4200.463)" fill="#fff" fill-rule="evenodd"/>
    <path id="Trazado_999840" data-name="Trazado 999840" d="M779.244,299.878h4.281a15.2,15.2,0,0,0,1.919-8.956,14.51,14.51,0,0,0-8.956,1.821l-.049,4.38,4.626-4.577a1.966,1.966,0,0,1,2.756,2.805Z" transform="translate(397.696 4266.71)" fill="#fff" fill-rule="evenodd"/>
    <path id="Trazado_999841" data-name="Trazado 999841" d="M531.987,216.208h61.366v-2.116H531.987Z" transform="translate(602.041 4330.843)" fill="#3b281b" fill-rule="evenodd"/>
    <path id="Trazado_999842" data-name="Trazado 999842" d="M593.353,664.9H531.987v2.165h61.366Z" transform="translate(602.041 3953.996)" fill="#9d5a5c" fill-rule="evenodd"/>
  </g>
</svg>
