<svg xmlns="http://www.w3.org/2000/svg" width="136.157" height="136.157" viewBox="0 0 136.157 136.157">
  <g id="Grupo_1178118" data-name="Grupo 1178118" transform="translate(-1147.711 -891)">
    <path id="Trazado_999241" data-name="Trazado 999241" d="M68.079,0A68.079,68.079,0,1,1,0,68.079,68.279,68.279,0,0,1,68.079,0" transform="translate(1147.711 891)" fill="#e5d5ba" fill-rule="evenodd"/>
    <g id="Grupo_1177930" data-name="Grupo 1177930" transform="translate(961.693 826.298)">
      <g id="Grupo_1177928" data-name="Grupo 1177928" transform="translate(212.776 91.834)">
        <g id="Grupo_1177909" data-name="Grupo 1177909" transform="translate(74.702 35.968)">
          <circle id="Elipse_13667" data-name="Elipse 13667" cx="2.767" cy="2.767" r="2.767" fill="#9d5a5c"/>
        </g>
        <g id="Grupo_1177910" data-name="Grupo 1177910" transform="translate(74.702 58.102)">
          <circle id="Elipse_13668" data-name="Elipse 13668" cx="2.767" cy="2.767" r="2.767" fill="#9d5a5c"/>
        </g>
        <g id="Grupo_1177911" data-name="Grupo 1177911" transform="translate(77.469 71.936)">
          <circle id="Elipse_13669" data-name="Elipse 13669" cx="2.767" cy="2.767" r="2.767" fill="#9d5a5c"/>
        </g>
        <g id="Grupo_1177912" data-name="Grupo 1177912" transform="translate(2.767 35.968)">
          <circle id="Elipse_13670" data-name="Elipse 13670" cx="2.767" cy="2.767" r="2.767" fill="#9d5a5c"/>
        </g>
        <g id="Grupo_1177913" data-name="Grupo 1177913" transform="translate(2.767 58.102)">
          <circle id="Elipse_13671" data-name="Elipse 13671" cx="2.767" cy="2.767" r="2.767" fill="#9d5a5c"/>
        </g>
        <g id="Grupo_1177914" data-name="Grupo 1177914" transform="translate(0 71.936)">
          <circle id="Elipse_13672" data-name="Elipse 13672" cx="2.767" cy="2.767" r="2.767" fill="#9d5a5c"/>
        </g>
        <g id="Grupo_1177915" data-name="Grupo 1177915" transform="translate(8.3 30.434)">
          <path id="Trazado_999521" data-name="Trazado 999521" d="M296.667,364.954h66.4v35.968a16.6,16.6,0,0,1-16.6,16.6h-33.2a16.6,16.6,0,0,1-16.6-16.6V364.954Z" transform="translate(-296.667 -364.954)" fill="#e5d5ba"/>
        </g>
        <g id="Grupo_1177916" data-name="Grupo 1177916" transform="translate(0 24.901)">
          <path id="Trazado_999522" data-name="Trazado 999522" d="M310.2,318.638v5.534h-83v-5.534h83Z" transform="translate(-227.193 -318.638)" fill="#ede1ce"/>
        </g>
        <g id="Grupo_1177917" data-name="Grupo 1177917" transform="translate(16.601 35.968)">
          <path id="Trazado_999523" data-name="Trazado 999523" d="M393.809,411.27v8.439a9.6,9.6,0,0,0-2.767,6.779,4.717,4.717,0,0,1,2.767-1.342V444.43a4.718,4.718,0,0,1-2.767-1.342,9.6,9.6,0,0,0,2.767,6.779V450H366.141V411.27Zm-8.3,30.434v-8.3H371.675v8.3Z" transform="translate(-366.141 -411.27)" fill="#797979"/>
        </g>
        <g id="Grupo_1177918" data-name="Grupo 1177918" transform="translate(22.134 58.102)">
          <path id="Trazado_999524" data-name="Trazado 999524" d="M412.457,596.534h13.834v8.3H412.457Z" transform="translate(-412.457 -596.534)" fill="#eadec8"/>
        </g>
        <g id="Grupo_1177919" data-name="Grupo 1177919" transform="translate(52.568 49.802)">
          <path id="Trazado_999525" data-name="Trazado 999525" d="M672.728,527.669v18.15a6.592,6.592,0,0,1-5.534,0v-18.15a6.593,6.593,0,0,1,5.534,0Z" transform="translate(-667.194 -527.06)" fill="#cba8a9"/>
        </g>
        <g id="Grupo_1177920" data-name="Grupo 1177920" transform="translate(41.501 66.402)">
          <path id="Trazado_999526" data-name="Trazado 999526" d="M591.163,668.166a6.465,6.465,0,0,0,1.951-1.342l.816-.816,1.217,1.217a5.286,5.286,0,0,0,3.749,1.549,4.724,4.724,0,0,0,3.334-1.383,9.677,9.677,0,0,1-9.684,9.684h-8.3a9.626,9.626,0,0,1-6.848-2.836l-.069-.069a9.6,9.6,0,0,1-2.767-6.779,4.718,4.718,0,0,0,2.767,1.342,3.9,3.9,0,0,0,.567.042,5.286,5.286,0,0,0,3.749-1.549l1.217-1.217.816.816a6.649,6.649,0,0,0,7.484,1.342Z" transform="translate(-574.562 -666.008)" fill="#392703"/>
        </g>
        <g id="Grupo_1177921" data-name="Grupo 1177921" transform="translate(41.501 41.501)">
          <path id="Trazado_999527" data-name="Trazado 999527" d="M585.629,466.5a6.465,6.465,0,0,0-1.951,1.342l-.816.816-1.217-1.217a5.286,5.286,0,0,0-3.749-1.549,3.921,3.921,0,0,0-.567.041,4.717,4.717,0,0,0-2.767,1.342,9.6,9.6,0,0,1,2.767-6.779l.069-.069a9.626,9.626,0,0,1,6.848-2.836h8.3a9.677,9.677,0,0,1,9.684,9.684,4.724,4.724,0,0,0-3.334-1.383,5.286,5.286,0,0,0-3.749,1.549l-1.217,1.217-.816-.816a6.649,6.649,0,0,0-7.484-1.342Z" transform="translate(-574.562 -457.586)" fill="#392703"/>
        </g>
        <g id="Grupo_1177922" data-name="Grupo 1177922" transform="translate(63.635 8.3)">
          <path id="Trazado_999528" data-name="Trazado 999528" d="M760.794,183.924a10.6,10.6,0,0,1,15.964-1.134l2.435,2.435-2.435,2.435a10.6,10.6,0,0,1-15.964-1.134l-.968-1.3Z" transform="translate(-759.826 -179.691)" fill="#392703"/>
        </g>
        <g id="Grupo_1177923" data-name="Grupo 1177923" transform="translate(44.268 8.3)">
          <path id="Trazado_999529" data-name="Trazado 999529" d="M617.087,185.225l-.968,1.3a10.6,10.6,0,0,1-15.964,1.134l-2.435-2.435,2.435-2.435a10.6,10.6,0,0,1,15.964,1.134Z" transform="translate(-597.72 -179.691)" fill="#392703"/>
        </g>
        <g id="Grupo_1177924" data-name="Grupo 1177924" transform="translate(19.367 8.3)">
          <path id="Trazado_999530" data-name="Trazado 999530" d="M390.267,183.924a10.6,10.6,0,0,1,15.964-1.134l2.435,2.435-2.435,2.435a10.6,10.6,0,0,1-15.964-1.134l-.968-1.3Z" transform="translate(-389.299 -179.691)" fill="#392703"/>
        </g>
        <g id="Grupo_1177925" data-name="Grupo 1177925" transform="translate(0 8.3)">
          <path id="Trazado_999531" data-name="Trazado 999531" d="M246.56,185.225l-.968,1.3a10.6,10.6,0,0,1-15.964,1.134l-2.435-2.435,2.435-2.435a10.6,10.6,0,0,1,15.964,1.134Z" transform="translate(-227.193 -179.691)" fill="#392703"/>
        </g>
        <g id="Grupo_1177926" data-name="Grupo 1177926" transform="translate(60.869 0)">
          <path id="Trazado_999532" data-name="Trazado 999532" d="M742.2,117.134a9.155,9.155,0,0,1-1.536,5.063l-1.231,1.854L738.2,122.2a9.115,9.115,0,0,1,0-10.126l1.231-1.854,1.231,1.854A9.154,9.154,0,0,1,742.2,117.134Z" transform="translate(-736.668 -110.217)" fill="#5f4205"/>
        </g>
        <g id="Grupo_1177927" data-name="Grupo 1177927" transform="translate(16.601 0)">
          <path id="Trazado_999533" data-name="Trazado 999533" d="M367.676,122.2a9.115,9.115,0,0,1,0-10.126l1.231-1.854,1.231,1.854a9.115,9.115,0,0,1,0,10.126l-1.231,1.854Z" transform="translate(-366.141 -110.217)" fill="#5f4205"/>
        </g>
      </g>
      <g id="Grupo_1177929" data-name="Grupo 1177929" transform="translate(210.82 89.34)">
        <path id="Trazado_999534" data-name="Trazado 999534" d="M390.53,443.959h8.3A11.08,11.08,0,0,0,409.9,432.892v-3.34l-2.362,2.361a3.718,3.718,0,0,1-5.128-.167l-2.194-2.194-1.383,1.383V418.248l1.383,1.383,2.194-2.194a3.718,3.718,0,0,1,5.128-.167l2.362,2.362v-3.34a11.08,11.08,0,0,0-11.067-11.067h-2.767v-5.534H393.3v5.534H390.53a10.984,10.984,0,0,0-5.534,1.5v-7.03H354.562v41.5h28.672a11.015,11.015,0,0,0,7.3,2.767Zm4.15-11.067a5.255,5.255,0,0,1-1.383-.21V416.5a4.655,4.655,0,0,1,2.767,0v16.18A5.2,5.2,0,0,1,394.68,432.892Zm-4.15-1.956-1.383-1.383-2.194,2.194A3.843,3.843,0,0,1,385,432.776V416.408a3.843,3.843,0,0,1,1.956,1.029l2.194,2.194,1.383-1.383Zm9.922,2.767a6.658,6.658,0,0,0,6.272,1.758,8.317,8.317,0,0,1-7.894,5.731h-8.3a8.315,8.315,0,0,1-7.894-5.731,6.15,6.15,0,0,0,1.549.2,6.634,6.634,0,0,0,4.723-1.956l.241-.241a8.06,8.06,0,0,0,11.062,0Zm-1.621-25.712a8.315,8.315,0,0,1,7.894,5.731,6.657,6.657,0,0,0-6.272,1.758l-.241.241a8.061,8.061,0,0,0-11.062,0l-.241-.241a6.634,6.634,0,0,0-4.723-1.956,6.143,6.143,0,0,0-1.549.2,8.317,8.317,0,0,1,7.894-5.731Zm-41.5-5.534h24.9V409a11.009,11.009,0,0,0-2.767,7.3v3.34l2.362-2.362a3.1,3.1,0,0,1,.405-.322v15.288a3.092,3.092,0,0,1-.405-.321l-2.362-2.361v3.34a10.983,10.983,0,0,0,1.5,5.533H357.329Z" transform="translate(-337.389 -362.612)" fill="#5f4205"/>
        <path id="Trazado_999535" data-name="Trazado 999535" d="M400.878,446.007h5.534v2.767h-5.534Z" transform="translate(-378.171 -403.395)" fill="#5f4205"/>
        <path id="Trazado_999536" data-name="Trazado 999536" d="M470.352,446.007h11.067v2.767H470.352Z" transform="translate(-439.345 -403.395)" fill="#5f4205"/>
        <path id="Trazado_999537" data-name="Trazado 999537" d="M400.878,492.323h16.6v2.767h-16.6Z" transform="translate(-378.171 -444.177)" fill="#5f4205"/>
        <path id="Trazado_999538" data-name="Trazado 999538" d="M400.878,538.639h11.067v2.767H400.878Z" transform="translate(-378.171 -484.96)" fill="#5f4205"/>
        <path id="Trazado_999539" data-name="Trazado 999539" d="M400.878,596.022h16.6V584.955h-16.6Zm2.767-8.3h11.067v5.534H403.645Z" transform="translate(-378.171 -525.742)" fill="#5f4205"/>
        <path id="Trazado_999540" data-name="Trazado 999540" d="M277.795,109.433a12.019,12.019,0,0,0,8.062,3.15,11.894,11.894,0,0,0,8.468-3.507l3.41-3.41-3.41-3.41a11.946,11.946,0,0,0-13.859-2.215,10.215,10.215,0,0,0-1.672-7.129l-2.382-3.573-2.384,3.575a10.214,10.214,0,0,0-1.672,7.128,11.946,11.946,0,0,0-13.859,2.215l-3.409,3.41,3.41,3.41a11.9,11.9,0,0,0,8.468,3.507,12.02,12.02,0,0,0,8.062-3.151v5.918h-41.5v-5.917a12.019,12.019,0,0,0,8.062,3.15,11.9,11.9,0,0,0,8.468-3.507l3.41-3.41-3.41-3.41a11.946,11.946,0,0,0-13.859-2.215,10.214,10.214,0,0,0-1.672-7.128l-2.382-3.575-2.384,3.575a10.215,10.215,0,0,0-1.673,7.128,11.946,11.946,0,0,0-13.859,2.215l-3.409,3.41,3.41,3.41a11.9,11.9,0,0,0,8.468,3.507,12.02,12.02,0,0,0,8.062-3.151v5.918H211.393v8.3h8.3v3.021a4.1,4.1,0,0,0-1.383-.255,4.15,4.15,0,0,0,0,8.3,4.106,4.106,0,0,0,1.383-.254v14.344a4.1,4.1,0,0,0-1.383-.255,4.15,4.15,0,1,0,0,8.3,4.1,4.1,0,0,0,1.383-.254v1.638a18,18,0,0,0,17.984,17.984h33.2a18,18,0,0,0,17.984-17.984V156.6a4.1,4.1,0,0,0,1.383.254,4.15,4.15,0,0,0,0-8.3,4.1,4.1,0,0,0-1.383.255V134.463a4.1,4.1,0,0,0,1.383.254,4.15,4.15,0,1,0,0-8.3,4.1,4.1,0,0,0-1.383.254v-3.021h8.3v-8.3H277.795Zm-10.474-7.895a9.247,9.247,0,0,1,6.213,2.746h-3.467ZM285.5,109.8a9.247,9.247,0,0,1-6.213-2.746h3.467Zm-2.746-5.511h-3.467a9.246,9.246,0,0,1,6.211-2.746Zm-12.688,2.767h3.467a9.246,9.246,0,0,1-6.211,2.746Zm18.841,2.24-2.241-2.241h5.771l-.071.07a9.169,9.169,0,0,1-3.46,2.171Zm3.53-5.006h-5.771l2.241-2.241a9.163,9.163,0,0,1,3.461,2.17ZM276.33,94.449l.082-.122.082.122a7.756,7.756,0,0,1,0,8.6l-.082.123-.082-.122a7.758,7.758,0,0,1,0-8.6Zm-12.416,7.595,2.241,2.241h-5.771l.07-.071a9.169,9.169,0,0,1,3.46-2.17Zm-3.53,5.008h5.771l-2.241,2.241a9.163,9.163,0,0,1-3.461-2.17Zm-37.33-5.513a9.246,9.246,0,0,1,6.213,2.746H225.8Zm18.18,8.257a9.246,9.246,0,0,1-6.213-2.746h3.467Zm-2.746-5.511h-3.467a9.246,9.246,0,0,1,6.211-2.746ZM225.8,107.051h3.467a9.246,9.246,0,0,1-6.211,2.746Zm18.842,2.24L242.4,107.05h5.772l-.071.07a9.169,9.169,0,0,1-3.46,2.171Zm3.53-5.006H242.4l2.241-2.241a9.163,9.163,0,0,1,3.461,2.17Zm-16.11-9.836.082-.122.082.122a7.756,7.756,0,0,1,0,8.6l-.082.123-.082-.122a7.759,7.759,0,0,1,0-8.6Zm-12.416,7.595,2.241,2.241h-5.771l.07-.071A9.169,9.169,0,0,1,219.646,102.044Zm-3.53,5.008h5.771l-2.241,2.241a9.163,9.163,0,0,1-3.461-2.17Zm2.194,24.9a1.383,1.383,0,1,1,1.383-1.383A1.384,1.384,0,0,1,218.31,131.952Zm0,22.134a1.383,1.383,0,1,1,1.383-1.383A1.384,1.384,0,0,1,218.31,154.086Zm71.936-2.767a1.383,1.383,0,1,1-1.383,1.383A1.384,1.384,0,0,1,290.245,151.32Zm0-22.134a1.383,1.383,0,1,1-1.383,1.383A1.384,1.384,0,0,1,290.245,129.185Zm-4.15,29.051a15.235,15.235,0,0,1-15.217,15.217h-33.2a15.235,15.235,0,0,1-15.217-15.217V123.652H286.1Zm8.3-37.351H214.16v-2.767H294.4Z" transform="translate(-210.82 -89.34)" fill="#5f4205"/>
        <path id="Trazado_999541" data-name="Trazado 999541" d="M219.764,700.745a4.15,4.15,0,1,0,4.15,4.15A4.155,4.155,0,0,0,219.764,700.745Zm0,5.533a1.383,1.383,0,1,1,1.383-1.383A1.384,1.384,0,0,1,219.764,706.278Z" transform="translate(-215.041 -627.698)" fill="#5f4205"/>
        <circle id="Elipse_13673" data-name="Elipse 13673" cx="1.383" cy="1.383" r="1.383" transform="translate(0.573 45.379)" fill="#5f4205"/>
        <circle id="Elipse_13674" data-name="Elipse 13674" cx="1.383" cy="1.383" r="1.383" transform="translate(3.34 53.679)" fill="#5f4205"/>
        <circle id="Elipse_13675" data-name="Elipse 13675" cx="1.383" cy="1.383" r="1.383" transform="translate(8.873 81.347)" fill="#5f4205"/>
        <path id="Trazado_999542" data-name="Trazado 999542" d="M868.187,700.745a4.15,4.15,0,1,0,4.15,4.15A4.155,4.155,0,0,0,868.187,700.745Zm0,5.533a1.383,1.383,0,1,1,1.383-1.383A1.384,1.384,0,0,1,868.187,706.278Z" transform="translate(-785.995 -627.698)" fill="#5f4205"/>
        <circle id="Elipse_13676" data-name="Elipse 13676" cx="1.383" cy="1.383" r="1.383" transform="translate(83.575 45.379)" fill="#5f4205"/>
        <circle id="Elipse_13677" data-name="Elipse 13677" cx="1.383" cy="1.383" r="1.383" transform="translate(80.809 53.679)" fill="#5f4205"/>
        <circle id="Elipse_13678" data-name="Elipse 13678" cx="1.383" cy="1.383" r="1.383" transform="translate(75.275 81.347)" fill="#5f4205"/>
      </g>
    </g>
  </g>
</svg>
