<svg xmlns="http://www.w3.org/2000/svg" width="126.5" height="125.868" viewBox="0 0 126.5 125.868">
  <g id="Grupo_1178116" data-name="Grupo 1178116" transform="translate(-388.461 -8256.066)">
    <g id="Grupo_1177836" data-name="Grupo 1177836">
      <path id="Trazado_999260" data-name="Trazado 999260" d="M63.25,0A62.935,62.935,0,1,1,0,62.934,63.093,63.093,0,0,1,63.25,0" transform="translate(388.461 8256.066)" fill="#9d5a5c"/>
      <g id="Grupo_1177835" data-name="Grupo 1177835" transform="translate(-296.848 7920.513)">
        <g id="Grupo_1177827" data-name="Grupo 1177827" transform="translate(732.453 370.24)">
          <path id="Trazado_999387" data-name="Trazado 999387" d="M792.65,415.407H762.564a1.372,1.372,0,0,0-1.368,1.367v8.205a1.372,1.372,0,0,0,1.368,1.368H792.65a1.372,1.372,0,0,0,1.367-1.368v-8.205A1.371,1.371,0,0,0,792.65,415.407Z" transform="translate(-761.196 -415.407)" fill="#fff"/>
        </g>
        <g id="Grupo_1177828" data-name="Grupo 1177828" transform="translate(732.453 381.18)">
          <path id="Trazado_999388" data-name="Trazado 999388" d="M766.666,459.2h24.616a2.743,2.743,0,0,1,2.735,2.735,2.755,2.755,0,0,1-2.735,2.735H763.931a2.743,2.743,0,0,1-2.735-2.735,2.755,2.755,0,0,1,2.735-2.735Z" transform="translate(-761.196 -459.196)" fill="#8c8c8c"/>
        </g>
        <g id="Grupo_1177829" data-name="Grupo 1177829" transform="translate(740.659 356.564)">
          <path id="Trazado_999389" data-name="Trazado 999389" d="M810.449,368.875v5.47H794.038v-5.47a8.212,8.212,0,0,1,8.205-8.205,8.218,8.218,0,0,1,8.205,8.205Z" transform="translate(-794.038 -360.67)" fill="#534236"/>
        </g>
        <g id="Grupo_1177830" data-name="Grupo 1177830" transform="translate(724.453 386.65)">
          <path id="Trazado_999390" data-name="Trazado 999390" d="M778,489.3H729.175a.988.988,0,0,1,.342-.41l10.394-7.8h27.352l10.394,7.8A.987.987,0,0,1,778,489.3Z" transform="translate(-729.175 -481.091)" fill="#7a8593"/>
        </g>
        <g id="Grupo_1177831" data-name="Grupo 1177831" transform="translate(724.248 394.856)">
          <path id="Trazado_999391" data-name="Trazado 999391" d="M777.587,514.617v37.608a5.469,5.469,0,0,1-5.47,5.47H733.824a5.469,5.469,0,0,1-5.47-5.47V514.617a1.321,1.321,0,0,1,.191-.684H777.4A1.321,1.321,0,0,1,777.587,514.617Z" transform="translate(-728.354 -513.933)" fill="#797979"/>
        </g>
        <g id="Grupo_1177832" data-name="Grupo 1177832" transform="translate(732.453 400.326)">
          <path id="Trazado_999392" data-name="Trazado 999392" d="M777.607,535.828A16.411,16.411,0,1,1,761.2,552.239,16.406,16.406,0,0,1,777.607,535.828Z" transform="translate(-761.196 -535.828)" fill="#fff"/>
        </g>
        <g id="Grupo_1177833" data-name="Grupo 1177833" transform="translate(740.659 405.796)">
          <path id="Trazado_999393" data-name="Trazado 999393" d="M802.243,576.868h-2.516a5.918,5.918,0,0,1-3.5-1.135,6,6,0,0,1-2.188-2.968l2.735-1.368a9.348,9.348,0,0,1-2.735-6.605v-1.6l2.27.752a8.3,8.3,0,0,1,3.2,1.983v-1.6a9.349,9.349,0,0,1,2.735-6.605,9.348,9.348,0,0,1,2.735,6.605v1.6a8.3,8.3,0,0,1,3.2-1.983l2.27-.752v1.6a9.348,9.348,0,0,1-2.735,6.605l2.735,1.368a6,6,0,0,1-5.689,4.1Z" transform="translate(-794.038 -557.722)" fill="#64554b"/>
        </g>
        <g id="Grupo_1177834" data-name="Grupo 1177834" transform="translate(722.88 355.196)">
          <path id="Trazado_999394" data-name="Trazado 999394" d="M773.5,530.354a17.779,17.779,0,1,0,17.779,17.779A17.8,17.8,0,0,0,773.5,530.354Zm0,32.822a15.043,15.043,0,1,1,15.044-15.043A15.061,15.061,0,0,1,773.5,563.176Z" transform="translate(-747.516 -486.591)" fill="#3b281b"/>
          <path id="Trazado_999395" data-name="Trazado 999395" d="M806.791,558.988v-3.5l-4.067,1.355a9.524,9.524,0,0,0-1.454.624,10.626,10.626,0,0,0-3.085-6.519l-.967-.965-.967.967a10.62,10.62,0,0,0-3.085,6.519,9.665,9.665,0,0,0-1.454-.624l-4.067-1.355v3.5a10.627,10.627,0,0,0,1.942,6.154l-2.248,1.124.375,1.126a7.363,7.363,0,0,0,6.991,5.037h1.146v2.735h2.735V572.43h1.146a7.359,7.359,0,0,0,6.99-5.038l.375-1.126-2.248-1.124a10.615,10.615,0,0,0,1.943-6.154Zm-3.174,8.6a4.625,4.625,0,0,1-3.885,2.109h-1.146V566.96H795.85V569.7H794.7a4.623,4.623,0,0,1-3.885-2.109l3.237-1.619-1.342-1.342a7.917,7.917,0,0,1-2.329-5.339l.462.155a6.878,6.878,0,0,1,2.668,1.649l2.334,2.333v-4.9a7.914,7.914,0,0,1,1.368-4.468,7.918,7.918,0,0,1,1.368,4.469v4.9l2.334-2.335a6.869,6.869,0,0,1,2.668-1.649l.462-.154a7.916,7.916,0,0,1-2.329,5.339l-1.342,1.342Z" transform="translate(-771.233 -501.316)" fill="#3b281b"/>
          <path id="Trazado_999396" data-name="Trazado 999396" d="M773.754,393.352l-8.505-6.38a4.067,4.067,0,0,0,.692-5.348,2.713,2.713,0,0,0,.7-1.811v-8.205a2.738,2.738,0,0,0-2.735-2.735h-5.47v-4.1a9.573,9.573,0,1,0-19.146,0v4.1h-5.47a2.738,2.738,0,0,0-2.735,2.735v8.205a2.713,2.713,0,0,0,.7,1.811,4.069,4.069,0,0,0,.692,5.35l-8.505,6.378a2.747,2.747,0,0,0-1.094,2.188v37.608a6.846,6.846,0,0,0,6.838,6.838H768.01a6.845,6.845,0,0,0,6.838-6.838V395.54a2.747,2.747,0,0,0-1.094-2.188Zm-38.566-10.8H762.54a1.368,1.368,0,1,1,0,2.735H735.188a1.368,1.368,0,0,1,0-2.735Zm20.514-2.735v-8.205h2.735v8.205Zm-2.735,0h-2.735v-8.205h2.735Zm-5.47,0h-2.735v-8.205H747.5Zm-5.47,0h-2.735v-8.205h2.735Zm20.058,8.206,7.293,5.47H728.35l7.293-5.47Zm1.824-8.206h-2.737v-8.205h2.735Zm-21.883-15.043a6.838,6.838,0,1,1,13.676,0v4.1H742.026Zm-8.205,6.838h2.735v8.205h-2.735Zm34.189,65.644H729.718a4.108,4.108,0,0,1-4.1-4.1V396.224h46.5v36.925A4.108,4.108,0,0,1,768.01,437.251Z" transform="translate(-722.88 -355.196)" fill="#3b281b"/>
        </g>
      </g>
    </g>
  </g>
</svg>
