<svg xmlns="http://www.w3.org/2000/svg" width="126.5" height="125.868" viewBox="0 0 126.5 125.868">
  <g id="Grupo_1178118" data-name="Grupo 1178118" transform="translate(-1102.461 -8256.066)">
    <path id="Trazado_999298" data-name="Trazado 999298" d="M63.25,0A62.935,62.935,0,1,1,0,62.934,63.093,63.093,0,0,1,63.25,0" transform="translate(1102.461 8256.066)" fill="#9d5a5c"/>
    <g id="Grupo_1177853" data-name="Grupo 1177853" transform="translate(1129.23 8275.23)">
      <path id="Trazado_999410" data-name="Trazado 999410" d="M400.941,313.658a6.648,6.648,0,0,0-4.585-3.358,2.58,2.58,0,0,1-2-1.81,19.177,19.177,0,0,1-.734-5.175,1.7,1.7,0,0,1,.642-1.462,11.789,11.789,0,0,0,4.562-9.307,12.052,12.052,0,0,0-12.155-11.918H374.983a5.838,5.838,0,0,0-5.307,7.38,2,2,0,0,0,.174.431l12.917,27.675a13.949,13.949,0,0,0,12.275,7.2,6.621,6.621,0,0,0,6.682-6.533A6.539,6.539,0,0,0,400.941,313.658Z" transform="translate(-360.75 -280.629)" fill="#5f4205"/>
      <g id="Grupo_1177849" data-name="Grupo 1177849" transform="translate(3.28 6.665)">
        <path id="Trazado_999411" data-name="Trazado 999411" d="M405.291,336.972v-5.558a5.081,5.081,0,1,0,0-10.159h-8.667l-4.979,3.187v31.85h19.034v-2.766C409.618,351.558,405.291,346.014,405.291,336.972Z" transform="translate(-382.569 -321.255)" fill="#5e3637"/>
        <path id="Trazado_999412" data-name="Trazado 999412" d="M350.386,321.256h-8.559a5.218,5.218,0,0,0-5.307,4.937,5.137,5.137,0,0,0,5.2,5.222v5.559c0,8.978-4.223,14.393-5.387,16.554v2.766h14.054V332.6a3.13,3.13,0,0,0-.659-1.926,7.061,7.061,0,0,1,.659-9.422Z" transform="translate(-336.332 -321.256)" fill="#5e3637"/>
      </g>
      <g id="Grupo_1177852" data-name="Grupo 1177852" transform="translate(0 35.791)">
        <g id="Grupo_1177850" data-name="Grupo 1177850">
          <path id="Trazado_999413" data-name="Trazado 999413" d="M333.672,520.721H319.618v-2.766a28.391,28.391,0,0,0-3.28,13.542v2.222l2.7,7.627-2.7,8.419v.635a10.282,10.282,0,0,0,10.4,10.159h13.868a10.716,10.716,0,0,0,1.733-.143Z" transform="translate(-316.337 -514.81)" fill="#8c8c8c"/>
          <path id="Trazado_999414" data-name="Trazado 999414" d="M338.135,498.784a6.085,6.085,0,0,0-5.355,3.145,5.779,5.779,0,0,0-.7,2.766,5.983,5.983,0,0,0,6.052,5.911c3.343,0,8.7-5.911,8.7-5.911C345.091,502.773,340.841,498.784,338.135,498.784Z" transform="translate(-329.5 -498.784)" fill="#a7a7a7"/>
          <path id="Trazado_999415" data-name="Trazado 999415" d="M439.33,515.47a27.271,27.271,0,0,0-3.28-13.541,6.08,6.08,0,0,0-5.355-3.145c-2.706,0-6.956,3.989-8.7,5.911v29.678a8.758,8.758,0,1,0,17.334,0v-.635l-2.318-8.45,2.318-7.6Z" transform="translate(-404.661 -498.783)" fill="#534236"/>
        </g>
        <g id="Grupo_1177851" data-name="Grupo 1177851" transform="translate(0 18.909)">
          <path id="Trazado_999416" data-name="Trazado 999416" d="M396.624,614.036l-4.98,6.368,4.98,9.678h17.334V614.036Z" transform="translate(-379.289 -614.036)" fill="#12263f"/>
          <path id="Trazado_999417" data-name="Trazado 999417" d="M316.339,614.036h17.334v16.046H316.339Z" transform="translate(-316.339 -614.036)" fill="#49586b"/>
        </g>
      </g>
    </g>
    <g id="Grupo_1177855" data-name="Grupo 1177855" transform="translate(1169.754 8313.293)">
      <path id="Trazado_999418" data-name="Trazado 999418" d="M673.337,659.63v16.9a2.461,2.461,0,0,0,4.922,0v-16.9Z" transform="translate(-655.29 -635.513)" fill="#7a8593"/>
      <g id="Grupo_1177854" data-name="Grupo 1177854">
        <path id="Trazado_999419" data-name="Trazado 999419" d="M581,515.113c-3.241-3.241-7.13-3.066-10.664-.882a16.648,16.648,0,0,0-2.993,2.4c-4.192,4.192-5.713,9.466-1.522,13.657a16.247,16.247,0,0,0,4.048,2.845,16.25,16.25,0,0,0-4.048,2.844c-4.192,4.192-2.67,9.466,1.522,13.657s9.466,5.714,13.657,1.522a16.243,16.243,0,0,0,2.844-4.048V519.161A16.252,16.252,0,0,0,581,515.113Z" transform="translate(-563.338 -512.629)" fill="#49586b"/>
        <path id="Trazado_999420" data-name="Trazado 999420" d="M672.121,547.111a16.248,16.248,0,0,0,2.844,4.048c4.192,4.192,9.466,2.67,13.657-1.522A17.04,17.04,0,0,0,690.8,547c2.394-3.627,2.692-7.667-.657-11.017a16.242,16.242,0,0,0-4.048-2.844,16.246,16.246,0,0,0,4.048-2.844c4.192-4.192,2.67-9.466-1.522-13.657s-9.466-5.713-13.657-1.522a16.246,16.246,0,0,0-2.844,4.048,32.277,32.277,0,0,0,0,27.951Z" transform="translate(-651.614 -512.628)" fill="#12263f"/>
      </g>
    </g>
    <path id="Trazado_999421" data-name="Trazado 999421" d="M353.225,650.3a1.23,1.23,0,0,0,1.23-1.23v-1.969a1.23,1.23,0,0,0-2.461,0v1.969A1.23,1.23,0,0,0,353.225,650.3Z" transform="translate(783.086 7689.278)" fill="#3b281b"/>
    <path id="Trazado_999422" data-name="Trazado 999422" d="M478.225,650.3a1.23,1.23,0,0,0,1.23-1.23v-1.969a1.23,1.23,0,0,0-2.461,0v1.969A1.23,1.23,0,0,0,478.225,650.3Z" transform="translate(678.594 7689.278)" fill="#3b281b"/>
    <path id="Trazado_999423" data-name="Trazado 999423" d="M401.961,661.19a4.812,4.812,0,0,0,3.629-1.653,1.23,1.23,0,0,0-1.855-1.617,2.35,2.35,0,0,1-3.547,0,1.231,1.231,0,0,0-1.855,1.617,4.815,4.815,0,0,0,3.629,1.652Z" transform="translate(744.604 7679.562)" fill="#3b281b"/>
    <path id="Trazado_999424" data-name="Trazado 999424" d="M351.34,306.8a7.875,7.875,0,0,0-5.429-3.98,1.36,1.36,0,0,1-1.05-.928,17.849,17.849,0,0,1-.679-4.958c.013-.251.014-.271.161-.387a13.013,13.013,0,0,0,5.033-10.274,13.284,13.284,0,0,0-13.385-13.148H324.3a6.841,6.841,0,0,0-6.739,6.79A6.418,6.418,0,0,0,312.3,286.1a6.352,6.352,0,0,0,5.2,6.193s-.006,5.087-.017,5.405a1.23,1.23,0,0,0,1.186,1.273h.044a1.23,1.23,0,0,0,1.229-1.187c.012-.347.019-.7.019-1.047v-4.328h2.713a1.23,1.23,0,0,0,0-2.461h-3.944a3.915,3.915,0,0,1-3.97-3.849,3.991,3.991,0,0,1,4.078-3.849h17.226a3.851,3.851,0,1,1,0,7.7h-3.547a1.23,1.23,0,0,0,0,2.461h2.316v4.328a28.183,28.183,0,0,0,2.824,12.344,7.485,7.485,0,0,0-1.562-.166c-2.994,0-6.912,3.563-8.7,5.361-1.787-1.8-5.705-5.361-8.7-5.361a7.481,7.481,0,0,0-1.568.168,28.289,28.289,0,0,0,2.166-6.2,1.23,1.23,0,1,0-2.4-.533c-1.172,5.286-3.733,8.688-4.633,10.355v0a29.339,29.339,0,0,0-3.428,14.125v18.9a11.525,11.525,0,0,0,11.631,11.389h13.867a11.525,11.525,0,0,0,11.631-11.389v-18.9a28.32,28.32,0,0,0-1.149-8.576A7.8,7.8,0,0,0,351.34,306.8ZM318.7,311.381c1.627,0,4.652,2.282,7,4.679-2.053,2.077-5.219,4.683-7,4.683a4.683,4.683,0,1,1,0-9.362Zm15.633,43.287H320.468a9.081,9.081,0,0,1-9.147-8.333h32.162A9.081,9.081,0,0,1,334.336,354.668Zm9.17-10.794H311.3V330.289h32.208Zm0-16.046H311.3v-.967a25.709,25.709,0,0,1,.96-7.479A7.308,7.308,0,0,0,318.7,323.2c3.779,0,9.025-5.669,9.611-6.315l0,0c2.42-2.669,5.969-5.5,7.783-5.5a4.822,4.822,0,0,1,4.273,2.5,26.067,26.067,0,0,1,3.132,12.823Zm.47-12.023a28.507,28.507,0,0,0-1.441-3.1c-1.076-1.994-5.235-7.337-5.235-15.962V292.3a6.3,6.3,0,0,0-1.231-12.5H320.03a4.37,4.37,0,0,1,4.27-4.2h11.691a10.82,10.82,0,0,1,10.924,10.687,10.567,10.567,0,0,1-4.093,8.34,2.847,2.847,0,0,0-1.111,2.4,20.308,20.308,0,0,0,.777,5.525,3.819,3.819,0,0,0,2.947,2.692,5.421,5.421,0,0,1,3.741,2.736,5.35,5.35,0,0,1-5.2,7.832Z" transform="translate(819.163 8000.871)" fill="#3b281b"/>
    <path id="Trazado_999425" data-name="Trazado 999425" d="M593.96,526.835c3.09-2.024,5.312-4.761,5.312-8.426,0-3-1.51-6.089-4.366-8.946-5.794-5.794-12.718-6.161-17.372.945-4.68-7.147-11.6-6.714-17.372-.945-5.7,5.7-6.277,12.642.945,17.372-7.145,4.679-6.713,11.6-.945,17.372,3.944,3.944,9.041,5.958,13.68,2.918a3.7,3.7,0,1,0,7.383,0c4.418,2.894,9.276,1.2,13.124-2.38a1.23,1.23,0,1,0-1.677-1.8c-5.217,4.86-10.461,4.305-14.042-2.694a1.231,1.231,0,0,0-2.191,0c-3.591,7.02-9.006,7.746-14.536,2.216-5.25-5.249-5.114-10.786,2.217-14.536a1.231,1.231,0,0,0,0-2.191c-7.3-3.733-7.493-9.26-2.217-14.536s10.806-5.074,14.536,2.217a1.231,1.231,0,0,0,2.191,0c3.781-7.391,9.348-7.405,14.536-2.217,5.252,5.251,5.111,10.788-2.217,14.536a1.231,1.231,0,0,0,0,2.191c5.161,2.64,7.512,6.511,4.6,11.5a1.23,1.23,0,1,0,2.126,1.239,10.728,10.728,0,0,0,1.592-5.408c0-3.664-2.221-6.4-5.311-8.426ZM576.3,544.919a16.012,16.012,0,0,0,1.23-1.65,16.025,16.025,0,0,0,1.23,1.65v2.424a1.23,1.23,0,0,1-2.461,0Z" transform="translate(612.729 7806.966)" fill="#3b281b"/>
    <path id="Trazado_999426" data-name="Trazado 999426" d="M742.519,604.734v.785a1.23,1.23,0,1,0,2.461,0v-.785a1.23,1.23,0,1,0-2.461,0Z" transform="translate(456.632 7724.698)" fill="#3b281b"/>
    <path id="Trazado_999427" data-name="Trazado 999427" d="M619.382,604.186v.785a1.23,1.23,0,1,0,2.461,0v-.785a1.23,1.23,0,1,0-2.461,0Z" transform="translate(559.566 7725.157)" fill="#3b281b"/>
    <path id="Trazado_999428" data-name="Trazado 999428" d="M682.771,594.854a1.23,1.23,0,1,0,0,2.461.584.584,0,0,1,0,1.168,1.23,1.23,0,1,0,0,2.461.584.584,0,0,1,0,1.168,1.23,1.23,0,1,0,0,2.461,6.06,6.06,0,0,0,0-9.719Z" transform="translate(507.606 7731.929)" fill="#3b281b"/>
  </g>
</svg>
