<svg xmlns="http://www.w3.org/2000/svg" width="126.5" height="125.868" viewBox="0 0 126.5 125.868">
  <g id="Grupo_1178123" data-name="Grupo 1178123" transform="translate(-736.461 -3233.066)">
    <path id="Trazado_999260" data-name="Trazado 999260" d="M63.25,0A62.935,62.935,0,1,1,0,62.934,63.093,63.093,0,0,1,63.25,0" transform="translate(736.461 3233.066)" fill="#9d5a5c"/>
    <rect id="Rectángulo_454825" data-name="Rectángulo 454825" width="4.078" height="35.886" transform="translate(757.953 3297.561)" fill="#7a8593"/>
    <path id="Trazado_999636" data-name="Trazado 999636" d="M333.754,518.913s-3.839.65-5.864,3.159v0a10.108,10.108,0,0,0-.47-1.328c-1.963-4.5-6.979-6.663-6.979-6.663s-1.836,5.145.125,9.649c1.7,3.9,5.681,6.156,6.725,6.663l.007-.1c.024.065.039.1.039.1s4.631-.783,6.4-3.953S333.754,518.913,333.754,518.913Z" transform="translate(442.662 2801.586)" fill="#8c8c8c"/>
    <path id="Trazado_999637" data-name="Trazado 999637" d="M701.01,518.913s-3.839.65-5.864,3.159v0a10.112,10.112,0,0,0-.47-1.328c-1.963-4.5-6.979-6.663-6.979-6.663s-1.836,5.145.125,9.649c1.7,3.9,5.681,6.156,6.725,6.663l.007-.1c.024.065.039.1.039.1s4.631-.783,6.4-3.953S701.01,518.913,701.01,518.913Z" transform="translate(135.312 2801.586)" fill="#8c8c8c"/>
    <path id="Trazado_999638" data-name="Trazado 999638" d="M517.382,440.913s-3.839.65-5.864,3.159v0a10.111,10.111,0,0,0-.47-1.328c-1.963-4.5-6.979-6.663-6.979-6.663s-1.836,5.145.125,9.649c1.7,3.9,5.681,6.156,6.725,6.663l.007-.1c.024.065.039.1.039.1s4.631-.783,6.4-3.953S517.382,440.913,517.382,440.913Z" transform="translate(288.987 2866.863)" fill="#8c8c8c"/>
    <path id="Trazado_999639" data-name="Trazado 999639" d="M649.784,306.913s-3.839.65-5.864,3.159v0a10.118,10.118,0,0,0-.47-1.328c-1.963-4.5-6.979-6.663-6.979-6.663s-1.836,5.145.125,9.649c1.7,3.9,5.681,6.156,6.725,6.663l.007-.1c.024.065.039.1.039.1s4.631-.783,6.4-3.953S649.784,306.913,649.784,306.913Z" transform="translate(178.182 2979.006)" fill="#8c8c8c"/>
    <circle id="Elipse_13684" data-name="Elipse 13684" cx="18.361" cy="18.361" r="18.361" transform="translate(759.258 3251.225)" fill="#3b281b"/>
    <path id="Trazado_999640" data-name="Trazado 999640" d="M426.9,231.58a13.483,13.483,0,0,1-13.468,13.468V231.58Z" transform="translate(364.183 3038.006)" fill="#e5d5ba"/>
    <path id="Trazado_999641" data-name="Trazado 999641" d="M304.949,137.376a18.363,18.363,0,0,1,16.322-18.248,18.361,18.361,0,1,0,0,36.5A18.363,18.363,0,0,1,304.949,137.376Z" transform="translate(458.387 3132.209)" fill="#64554b"/>
    <path id="Trazado_999642" data-name="Trazado 999642" d="M324.644,523.729a13.317,13.317,0,0,1-.672-7.4,16.2,16.2,0,0,0-3.531-2.252s-1.836,5.145.125,9.649c1.7,3.9,5.681,6.156,6.725,6.663l.007-.1c.024.065.039.1.039.1a12.486,12.486,0,0,0,2.606-.818A14.1,14.1,0,0,1,324.644,523.729Z" transform="translate(442.662 2801.586)" fill="#3b281b"/>
    <path id="Trazado_999643" data-name="Trazado 999643" d="M691.9,523.729a13.317,13.317,0,0,1-.672-7.4,16.2,16.2,0,0,0-3.531-2.252s-1.836,5.145.125,9.649c1.7,3.9,5.681,6.156,6.725,6.663l.007-.1c.024.065.039.1.039.1a12.487,12.487,0,0,0,2.606-.818A14.093,14.093,0,0,1,691.9,523.729Z" transform="translate(135.312 2801.586)" fill="#3b281b"/>
    <path id="Trazado_999644" data-name="Trazado 999644" d="M508.272,445.729a13.317,13.317,0,0,1-.672-7.4,16.2,16.2,0,0,0-3.531-2.252s-1.836,5.145.125,9.649c1.7,3.9,5.681,6.156,6.725,6.663l.007-.1c.024.065.039.1.039.1a12.483,12.483,0,0,0,2.606-.818A14.1,14.1,0,0,1,508.272,445.729Z" transform="translate(288.987 2866.863)" fill="#3b281b"/>
    <path id="Trazado_999645" data-name="Trazado 999645" d="M640.674,311.729a13.316,13.316,0,0,1-.672-7.4,16.2,16.2,0,0,0-3.531-2.252s-1.836,5.145.125,9.649c1.7,3.9,5.681,6.156,6.725,6.663l.007-.1c.024.065.039.1.039.1a12.482,12.482,0,0,0,2.606-.818A14.094,14.094,0,0,1,640.674,311.729Z" transform="translate(178.182 2979.006)" fill="#3b281b"/>
    <g id="Grupo_1177974" data-name="Grupo 1177974" transform="translate(805.076 3296.337)">
      <rect id="Rectángulo_454826" data-name="Rectángulo 454826" width="36.393" height="2.447" fill="#3b281b"/>
    </g>
    <g id="Grupo_1177975" data-name="Grupo 1177975" transform="translate(757.953 3296.337)">
      <rect id="Rectángulo_454827" data-name="Rectángulo 454827" width="44.676" height="2.447" fill="#3b281b"/>
    </g>
    <g id="Grupo_1177980" data-name="Grupo 1177980" transform="translate(757.953 3314.026)">
      <g id="Grupo_1177978" data-name="Grupo 1177978" transform="translate(3.145)">
        <g id="Grupo_1177976" data-name="Grupo 1177976">
          <path id="Trazado_999646" data-name="Trazado 999646" d="M320.473,523.083c-.538-.261-5.31-2.68-7.313-7.275-2.13-4.892-.237-10.32-.156-10.548l.438-1.228,1.2.515c.223.1,5.486,2.406,7.617,7.3a11.317,11.317,0,0,1,.527,1.488l-2.357.657a8.924,8.924,0,0,0-.413-1.167,12.576,12.576,0,0,0-5.073-5.349,12.578,12.578,0,0,0,.461,7.357c1.679,3.853,5.956,5.963,6.137,6.051Z" transform="translate(-312.151 -504.031)" fill="#3b281b"/>
        </g>
        <g id="Grupo_1177977" data-name="Grupo 1177977" transform="translate(6.903 5.102)">
          <path id="Trazado_999647" data-name="Trazado 999647" d="M355.7,549.53l-.368-.912c-.081-.2-1.954-4.941.081-8.58s7.054-4.526,7.267-4.562l.97-.164.368.913c.081.2,1.954,4.941-.081,8.58s-7.054,4.526-7.267,4.562Zm.78-8.9,1.068.6c-1,1.787-.612,4.144-.264,5.465,1.307-.395,3.518-1.3,4.517-3.086s.612-4.144.263-5.465c-1.307.395-3.518,1.3-4.517,3.086Z" transform="translate(-354.469 -535.311)" fill="#3b281b"/>
        </g>
      </g>
      <g id="Grupo_1177979" data-name="Grupo 1177979" transform="translate(0 16.891)">
        <rect id="Rectángulo_454828" data-name="Rectángulo 454828" width="23.61" height="2.447" fill="#3b281b"/>
      </g>
    </g>
    <g id="Grupo_1177985" data-name="Grupo 1177985" transform="translate(817.858 3314.026)">
      <g id="Grupo_1177983" data-name="Grupo 1177983" transform="translate(3.145)">
        <g id="Grupo_1177981" data-name="Grupo 1177981">
          <path id="Trazado_999648" data-name="Trazado 999648" d="M687.728,523.083c-.538-.261-5.31-2.68-7.312-7.275-2.13-4.892-.238-10.32-.156-10.548l.438-1.228,1.2.515c.223.1,5.486,2.406,7.617,7.3a11.374,11.374,0,0,1,.527,1.488l-2.357.657a8.889,8.889,0,0,0-.413-1.167,12.576,12.576,0,0,0-5.072-5.349,12.575,12.575,0,0,0,.461,7.357c1.68,3.853,5.956,5.963,6.137,6.051Z" transform="translate(-679.407 -504.031)" fill="#3b281b"/>
        </g>
        <g id="Grupo_1177982" data-name="Grupo 1177982" transform="translate(6.902 5.102)">
          <path id="Trazado_999649" data-name="Trazado 999649" d="M722.955,549.53l-.368-.912c-.081-.2-1.954-4.941.081-8.58h0c2.035-3.639,7.054-4.526,7.267-4.562l.97-.164.368.913c.081.2,1.954,4.941-.081,8.58s-7.055,4.526-7.267,4.562Zm1.848-8.3c-1,1.787-.612,4.144-.263,5.465,1.307-.395,3.518-1.3,4.517-3.086s.605-4.14.26-5.464c-1.307.4-3.516,1.3-4.514,3.085Z" transform="translate(-721.723 -535.311)" fill="#3b281b"/>
        </g>
      </g>
      <g id="Grupo_1177984" data-name="Grupo 1177984" transform="translate(0 16.891)">
        <rect id="Rectángulo_454829" data-name="Rectángulo 454829" width="23.61" height="2.447" fill="#3b281b"/>
      </g>
    </g>
    <g id="Grupo_1177990" data-name="Grupo 1177990" transform="translate(787.906 3301.304)">
      <g id="Grupo_1177988" data-name="Grupo 1177988" transform="translate(3.145)">
        <g id="Grupo_1177986" data-name="Grupo 1177986">
          <path id="Trazado_999650" data-name="Trazado 999650" d="M504.1,445.083c-.538-.261-5.31-2.681-7.313-7.275-2.13-4.892-.237-10.32-.156-10.549l.438-1.228,1.2.515c.223.1,5.486,2.406,7.617,7.3a11.376,11.376,0,0,1,.527,1.488l-2.357.657a8.94,8.94,0,0,0-.413-1.168,12.521,12.521,0,0,0-5.072-5.352,12.579,12.579,0,0,0,.461,7.36c1.679,3.853,5.956,5.963,6.137,6.051Z" transform="translate(-495.779 -426.031)" fill="#3b281b"/>
        </g>
        <g id="Grupo_1177987" data-name="Grupo 1177987" transform="translate(6.902 5.102)">
          <path id="Trazado_999651" data-name="Trazado 999651" d="M539.327,471.531l-.368-.912c-.081-.2-1.954-4.941.081-8.58h0c2.035-3.639,7.055-4.526,7.267-4.562l.97-.164.368.912c.081.2,1.954,4.941-.081,8.58s-7.054,4.526-7.267,4.562Zm1.848-8.3c-1,1.787-.612,4.144-.264,5.465,1.307-.395,3.518-1.3,4.517-3.086s.612-4.144.264-5.465c-1.307.395-3.518,1.3-4.517,3.086Z" transform="translate(-538.095 -457.312)" fill="#3b281b"/>
        </g>
      </g>
      <g id="Grupo_1177989" data-name="Grupo 1177989" transform="translate(0 16.891)">
        <rect id="Rectángulo_454830" data-name="Rectángulo 454830" width="23.61" height="2.447" fill="#3b281b"/>
      </g>
    </g>
    <g id="Grupo_1177994" data-name="Grupo 1177994" transform="translate(812.648 3279.446)">
      <g id="Grupo_1177993" data-name="Grupo 1177993">
        <g id="Grupo_1177991" data-name="Grupo 1177991">
          <path id="Trazado_999652" data-name="Trazado 999652" d="M636.5,311.083c-.538-.261-5.31-2.681-7.312-7.275-2.13-4.892-.238-10.32-.156-10.549l.438-1.228,1.2.515c.223.1,5.486,2.406,7.618,7.3a11.409,11.409,0,0,1,.527,1.488l-2.357.657a8.934,8.934,0,0,0-.413-1.168,12.523,12.523,0,0,0-5.072-5.352,12.579,12.579,0,0,0,.46,7.361c1.679,3.853,5.956,5.963,6.137,6.051Z" transform="translate(-628.181 -292.031)" fill="#3b281b"/>
        </g>
        <g id="Grupo_1177992" data-name="Grupo 1177992" transform="translate(6.903 5.103)">
          <path id="Trazado_999653" data-name="Trazado 999653" d="M671.73,337.532l-.368-.912c-.081-.2-1.954-4.941.081-8.58h0c2.035-3.639,7.054-4.526,7.267-4.562l.97-.164.368.912c.081.2,1.954,4.941-.081,8.58s-7.054,4.526-7.267,4.562Zm1.848-8.3c-1,1.787-.612,4.144-.263,5.465,1.306-.395,3.518-1.3,4.517-3.086s.605-4.139.26-5.463c-1.307.4-3.516,1.3-4.514,3.085Z" transform="translate(-670.498 -323.313)" fill="#3b281b"/>
        </g>
      </g>
    </g>
    <g id="Grupo_1177995" data-name="Grupo 1177995" transform="translate(758.035 3250)">
      <path id="Trazado_999654" data-name="Trazado 999654" d="M312.956,150.681a19.586,19.586,0,0,1-14.872-32.33l1.857,1.593a17.151,17.151,0,1,0,1.6-1.632l-1.631-1.824a19.585,19.585,0,1,1,13.046,34.193Z" transform="translate(-293.371 -111.51)" fill="#3b281b"/>
    </g>
    <g id="Grupo_1177996" data-name="Grupo 1177996" transform="translate(778.733 3254.954)">
      <path id="Trazado_999655" data-name="Trazado 999655" d="M430.888,153.022a12.337,12.337,0,0,0-10.623-8.705l.221-2.437a14.722,14.722,0,0,1,12.748,10.445Z" transform="translate(-420.265 -141.88)" fill="#3b281b"/>
    </g>
    <g id="Grupo_1177997" data-name="Grupo 1177997" transform="translate(762.996 3254.955)">
      <path id="Trazado_999656" data-name="Trazado 999656" d="M326.221,155.342l-2.436-.233a14.683,14.683,0,0,1,13.291-13.218l.22,2.437A12.235,12.235,0,0,0,326.221,155.342Z" transform="translate(-323.785 -141.891)" fill="#3b281b"/>
    </g>
    <g id="Grupo_1177998" data-name="Grupo 1177998" transform="translate(762.981 3270.634)">
      <path id="Trazado_999657" data-name="Trazado 999657" d="M334.258,251.072a14.772,14.772,0,0,1-10.56-12.86l2.438-.207a12.311,12.311,0,0,0,8.8,10.717Z" transform="translate(-323.698 -238.005)" fill="#3b281b"/>
    </g>
    <g id="Grupo_1177999" data-name="Grupo 1177999" transform="translate(776.396 3268.362)">
      <path id="Trazado_999658" data-name="Trazado 999658" d="M407.16,240h-1.223V224.081h15.914V225.3A14.708,14.708,0,0,1,407.16,240Zm1.223-13.468v10.96a12.267,12.267,0,0,0,10.96-10.96Z" transform="translate(-405.937 -224.081)" fill="#3b281b"/>
    </g>
    <line id="Línea_3529" data-name="Línea 3529" x2="2.447" transform="translate(774.86 3308.733)" fill="none" stroke="#fff" stroke-miterlimit="10" stroke-width="15"/>
    <line id="Línea_3530" data-name="Línea 3530" x2="2.447" transform="translate(779.754 3308.733)" fill="none" stroke="#fff" stroke-miterlimit="10" stroke-width="15"/>
  </g>
</svg>
