<svg xmlns="http://www.w3.org/2000/svg" width="126.5" height="125.868" viewBox="0 0 126.5 125.868">
  <g id="Grupo_1178124" data-name="Grupo 1178124" transform="translate(-1101.461 -3233.066)">
    <path id="Trazado_999260" data-name="Trazado 999260" d="M63.25,0A62.935,62.935,0,1,1,0,62.934,63.093,63.093,0,0,1,63.25,0" transform="translate(1101.461 3233.066)" fill="#9d5a5c"/>
    <path id="Trazado_999659" data-name="Trazado 999659" d="M286.043,418.062l-9.377,9.377L254.73,405.5l9.377-9.377a1.7,1.7,0,0,1,2.4,0l19.534,19.536A1.694,1.694,0,0,1,286.043,418.062Z" transform="translate(890.333 2890.407)" fill="#12263f"/>
    <path id="Trazado_999662" data-name="Trazado 999662" d="M277.636,468.483l-2.121-.039a21.492,21.492,0,0,0-20.857-20.857l-.039-2.121a23.606,23.606,0,0,1,23.018,23.018Z" transform="translate(890.425 2849.383)" fill="#3b281b"/>
    <path id="Trazado_999663" data-name="Trazado 999663" d="M357.842,484.11l-.913-1.915a10.443,10.443,0,0,0,2.895-2.048l9.6-9.6a.638.638,0,0,0,0-.9l-7.851-7.851,1.5-1.5,7.851,7.851a2.762,2.762,0,0,1,0,3.9l-9.6,9.6A12.558,12.558,0,0,1,357.842,484.11Z" transform="translate(806.201 2837.175)" fill="#3b281b"/>
    <path id="Trazado_999665" data-name="Trazado 999665" d="M216.717,421.458l-1.5-1.5,1.353-1.353a6.032,6.032,0,0,0,1.506-6.017,12.58,12.58,0,0,1,3.15-12.547l9.6-9.6a2.762,2.762,0,0,1,3.9,0l7.468,7.468-1.5,1.5-7.468-7.468a.638.638,0,0,0-.9,0l-9.6,9.6a10.462,10.462,0,0,0-2.619,10.434,8.15,8.15,0,0,1-2.037,8.13Z" transform="translate(922.86 2895.344)" fill="#3b281b"/>
    <path id="Trazado_999669" data-name="Trazado 999669" d="M311.681,285.646l-1.327-1.655c.152-.122,15.377-12.5,30.337-38.435l1.838,1.06C327.353,272.921,311.836,285.521,311.681,285.646Z" transform="translate(844.542 3013.949)" fill="#3b281b"/>
    <g id="Grupo_1178005" data-name="Grupo 1178005" transform="translate(1168.439 3283.229)">
      <path id="Trazado_999670" data-name="Trazado 999670" d="M391.219,386.4a5.327,5.327,0,0,1-4.258-4.347,5.549,5.549,0,1,1,4.258,4.347Z" transform="translate(-386.961 -379.747)" fill="#a7a7a7"/>
    </g>
    <g id="Grupo_1178006" data-name="Grupo 1178006" transform="translate(1167.338 3282.168)">
      <path id="Trazado_999671" data-name="Trazado 999671" d="M387.354,382.664a6.989,6.989,0,0,1-1.49-.162,6.376,6.376,0,0,1-5.083-5.245l-.05-.379.2-.323a6.271,6.271,0,0,1,5.319-2.808,6.988,6.988,0,0,1,1.489.162,6.378,6.378,0,0,1,5.085,5.245l.05.379-.2.323A6.272,6.272,0,0,1,387.354,382.664Zm-4.4-5.3a4.326,4.326,0,0,0,3.361,3.064,4.863,4.863,0,0,0,1.037.113,4.217,4.217,0,0,0,3.3-1.5,4.327,4.327,0,0,0-3.363-3.064,4.86,4.86,0,0,0-1.036-.113A4.216,4.216,0,0,0,382.956,377.365Z" transform="translate(-380.731 -373.747)" fill="#3b281b"/>
    </g>
    <g id="Grupo_1178008" data-name="Grupo 1178008" transform="translate(1160.396 3278.32)">
      <path id="Trazado_999672" data-name="Trazado 999672" d="M343.471,358.444a3.639,3.639,0,1,0-1.71-5.841A5.327,5.327,0,0,0,343.471,358.444Z" transform="translate(-341.465 -351.985)" fill="#797979"/>
    </g>
    <g id="Grupo_1178009" data-name="Grupo 1178009" transform="translate(1159.333 3277.26)">
      <path id="Trazado_999673" data-name="Trazado 999673" d="M342.166,355.944h0a6.709,6.709,0,0,1-4.334-1.631,6.377,6.377,0,0,1-2.015-7.022l.135-.357.332-.19a5.878,5.878,0,0,1,2.917-.758,6.713,6.713,0,0,1,4.337,1.632,6.376,6.376,0,0,1,2.014,7.021l-.135.357-.332.19A5.88,5.88,0,0,1,342.166,355.944Zm-4.481-7.533a4.327,4.327,0,0,0,1.523,4.287,4.587,4.587,0,0,0,2.959,1.125,3.835,3.835,0,0,0,1.516-.3,4.326,4.326,0,0,0-1.521-4.286,4.59,4.59,0,0,0-2.961-1.125A3.835,3.835,0,0,0,337.684,348.411Z" transform="translate(-335.451 -345.985)" fill="#3b281b"/>
    </g>
    <g id="Grupo_1178012" data-name="Grupo 1178012" transform="translate(1175.216 3274.569)">
      <path id="Trazado_999674" data-name="Trazado 999674" d="M429.554,337.433a5.327,5.327,0,0,1-4.258-4.347,5.549,5.549,0,0,1,9.943,2.173A5.328,5.328,0,0,1,429.554,337.433Z" transform="translate(-425.296 -330.775)" fill="#a7a7a7"/>
    </g>
    <g id="Grupo_1178013" data-name="Grupo 1178013" transform="translate(1174.115 3273.509)">
      <path id="Trazado_999675" data-name="Trazado 999675" d="M425.689,333.692a6.988,6.988,0,0,1-1.49-.162,6.377,6.377,0,0,1-5.083-5.245l-.05-.379.2-.323a6.271,6.271,0,0,1,5.319-2.808,6.986,6.986,0,0,1,1.489.162,6.377,6.377,0,0,1,5.085,5.245l.05.379-.2.323A6.272,6.272,0,0,1,425.689,333.692Zm-4.4-5.3a4.326,4.326,0,0,0,3.361,3.064,4.862,4.862,0,0,0,1.037.113,4.217,4.217,0,0,0,3.3-1.5,4.327,4.327,0,0,0-3.363-3.064,4.862,4.862,0,0,0-1.036-.113A4.216,4.216,0,0,0,421.291,328.393Z" transform="translate(-419.066 -324.775)" fill="#3b281b"/>
    </g>
    <g id="Grupo_1178015" data-name="Grupo 1178015" transform="translate(1167.173 3269.662)">
      <path id="Trazado_999676" data-name="Trazado 999676" d="M381.805,309.473a3.639,3.639,0,1,0-1.71-5.841A5.327,5.327,0,0,0,381.805,309.473Z" transform="translate(-379.8 -303.014)" fill="#797979"/>
    </g>
    <g id="Grupo_1178016" data-name="Grupo 1178016" transform="translate(1166.11 3268.602)">
      <path id="Trazado_999677" data-name="Trazado 999677" d="M380.5,306.973h0a6.709,6.709,0,0,1-4.334-1.631,6.377,6.377,0,0,1-2.015-7.022l.135-.357.332-.19a5.878,5.878,0,0,1,2.917-.758,6.712,6.712,0,0,1,4.337,1.632,6.376,6.376,0,0,1,2.014,7.021l-.135.357-.332.19A5.88,5.88,0,0,1,380.5,306.973Zm-4.481-7.533a4.327,4.327,0,0,0,1.523,4.287,4.587,4.587,0,0,0,2.959,1.125,3.835,3.835,0,0,0,1.516-.3,4.325,4.325,0,0,0-1.521-4.286,4.59,4.59,0,0,0-2.961-1.125A3.835,3.835,0,0,0,376.019,299.44Z" transform="translate(-373.785 -297.014)" fill="#3b281b"/>
    </g>
    <path id="Trazado_999678" data-name="Trazado 999678" d="M464.171,287.085a5.327,5.327,0,0,1-4.258-4.347,5.549,5.549,0,0,1,9.943,2.173A5.329,5.329,0,0,1,464.171,287.085Z" transform="translate(721.423 2985.243)" fill="#a7a7a7"/>
    <path id="Trazado_999679" data-name="Trazado 999679" d="M460.306,283.344a6.988,6.988,0,0,1-1.489-.162,6.377,6.377,0,0,1-5.084-5.245l-.05-.379.2-.323a6.271,6.271,0,0,1,5.319-2.808,6.988,6.988,0,0,1,1.489.162,6.378,6.378,0,0,1,5.085,5.245l.05.379-.2.323A6.271,6.271,0,0,1,460.306,283.344Zm-4.4-5.3a4.326,4.326,0,0,0,3.361,3.064,4.864,4.864,0,0,0,1.036.113,4.217,4.217,0,0,0,3.3-1.5,4.327,4.327,0,0,0-3.363-3.064,4.863,4.863,0,0,0-1.036-.113A4.216,4.216,0,0,0,455.908,278.045Z" transform="translate(726.551 2990.183)" fill="#3b281b"/>
    <path id="Trazado_999680" data-name="Trazado 999680" d="M416.423,259.124a5.327,5.327,0,0,0,6.037.76,5.549,5.549,0,0,0-7.747-6.6A5.329,5.329,0,0,0,416.423,259.124Z" transform="translate(758.876 3008.096)" fill="#797979"/>
    <path id="Trazado_999681" data-name="Trazado 999681" d="M415.118,256.624h0a6.709,6.709,0,0,1-4.334-1.631,6.377,6.377,0,0,1-2.015-7.022l.135-.357.332-.19a5.878,5.878,0,0,1,2.917-.758,6.713,6.713,0,0,1,4.337,1.632,6.376,6.376,0,0,1,2.014,7.021l-.135.357-.332.19A5.88,5.88,0,0,1,415.118,256.624Zm-4.481-7.533a4.327,4.327,0,0,0,1.523,4.287,4.587,4.587,0,0,0,2.959,1.125,3.835,3.835,0,0,0,1.516-.3,4.325,4.325,0,0,0-1.521-4.286,4.59,4.59,0,0,0-2.961-1.125A3.835,3.835,0,0,0,410.637,249.091Z" transform="translate(763.827 3013.035)" fill="#3b281b"/>
    <g id="Grupo_1178026" data-name="Grupo 1178026" transform="translate(1185.407 3251.746)">
      <path id="Trazado_999682" data-name="Trazado 999682" d="M489.436,207.956a5.327,5.327,0,0,1-5.746,2,5.549,5.549,0,0,1,6.2-8.071A5.329,5.329,0,0,1,489.436,207.956Z" transform="translate(-482.945 -201.668)" fill="#a7a7a7"/>
    </g>
    <g id="Grupo_1178027" data-name="Grupo 1178027" transform="translate(1184.344 3250.686)">
      <path id="Trazado_999683" data-name="Trazado 999683" d="M480.157,206.3a5.707,5.707,0,0,1-1.741-.268l-.364-.116-.206-.322a6.376,6.376,0,0,1,.506-7.287,6.611,6.611,0,0,1,5.171-2.635,5.7,5.7,0,0,1,1.74.268l.364.116.206.322a6.378,6.378,0,0,1-.507,7.288A6.608,6.608,0,0,1,480.157,206.3Zm-.718-2.191a3.66,3.66,0,0,0,.718.07,4.476,4.476,0,0,0,3.487-1.805,4.327,4.327,0,0,0,.6-4.51,3.659,3.659,0,0,0-.717-.07,4.478,4.478,0,0,0-3.489,1.806A4.325,4.325,0,0,0,479.439,204.1Z" transform="translate(-476.931 -195.668)" fill="#3b281b"/>
    </g>
    <g id="Grupo_1178029" data-name="Grupo 1178029" transform="translate(1180.052 3251.061)">
      <path id="Trazado_999684" data-name="Trazado 999684" d="M453.374,203.914a3.639,3.639,0,1,0,.471-6.068A5.327,5.327,0,0,0,453.374,203.914Z" transform="translate(-452.65 -197.79)" fill="#797979"/>
    </g>
    <g id="Grupo_1178030" data-name="Grupo 1178030" transform="translate(1178.989 3250)">
      <path id="Trazado_999685" data-name="Trazado 999685" d="M453.089,202.942h0a6.464,6.464,0,0,1-5.592-3.456,6.377,6.377,0,0,1,.6-7.281l.252-.287.377-.06a5.612,5.612,0,0,1,.879-.069,6.465,6.465,0,0,1,5.594,3.457,6.376,6.376,0,0,1-.606,7.279l-.253.287-.377.06A5.612,5.612,0,0,1,453.089,202.942Zm-3.638-9.026a4.327,4.327,0,0,0-.1,4.548,4.4,4.4,0,0,0,3.734,2.357c.059,0,.106,0,.16,0a4.326,4.326,0,0,0,.1-4.547A4.378,4.378,0,0,0,449.451,193.915Z" transform="translate(-446.64 -191.79)" fill="#3b281b"/>
    </g>
    <path id="Trazado_999686" data-name="Trazado 999686" d="M352.693,397.935l-.965-1.889a166.6,166.6,0,0,0,32.162-21.984l1.381,1.611A168.75,168.75,0,0,1,352.693,397.935Z" transform="translate(810.482 2908.16)" fill="#3b281b"/>
    <g id="Grupo_1178033" data-name="Grupo 1178033" transform="translate(1177.319 3295.412)">
      <path id="Trazado_999687" data-name="Trazado 999687" d="M439.862,455.215a3.639,3.639,0,1,1,6.084-.16A5.327,5.327,0,0,1,439.862,455.215Z" transform="translate(-437.192 -448.667)" fill="#a7a7a7"/>
    </g>
    <g id="Grupo_1178034" data-name="Grupo 1178034" transform="translate(1176.257 3294.352)">
      <path id="Trazado_999688" data-name="Trazado 999688" d="M437.928,452.208a6.79,6.79,0,0,1-3.57-1.031,6.376,6.376,0,0,1-3.051-6.637l.079-.374.3-.238a6.01,6.01,0,0,1,3.732-1.263,6.786,6.786,0,0,1,3.568,1.031,6.377,6.377,0,0,1,3.052,6.637l-.079.374-.3.238A6.009,6.009,0,0,1,437.928,452.208Zm-4.605-6.842a4.325,4.325,0,0,0,2.151,4.007,4.671,4.671,0,0,0,2.454.714,3.964,3.964,0,0,0,2.094-.578,4.327,4.327,0,0,0-2.153-4.008,4.667,4.667,0,0,0-2.452-.713A3.964,3.964,0,0,0,433.323,445.366Z" transform="translate(-431.185 -442.667)" fill="#3b281b"/>
    </g>
    <g id="Grupo_1178036" data-name="Grupo 1178036" transform="translate(1171.186 3287.569)">
      <path id="Trazado_999689" data-name="Trazado 999689" d="M403.287,410.457a3.639,3.639,0,1,0,.329-6.078A5.326,5.326,0,0,0,403.287,410.457Z" transform="translate(-402.497 -404.306)" fill="#797979"/>
    </g>
    <g id="Grupo_1178037" data-name="Grupo 1178037" transform="translate(1170.123 3286.509)">
      <path id="Trazado_999690" data-name="Trazado 999690" d="M402.959,409.376h0a6.5,6.5,0,0,1-5.538-3.325,6.378,6.378,0,0,1,.434-7.293l.246-.292.376-.069a5.626,5.626,0,0,1,1.011-.091,6.5,6.5,0,0,1,5.539,3.327,6.376,6.376,0,0,1-.435,7.291l-.246.292-.376.069A5.626,5.626,0,0,1,402.959,409.376Zm-3.714-8.94a4.327,4.327,0,0,0,.011,4.55,4.376,4.376,0,0,0,3.7,2.269c.088,0,.163,0,.244-.008a4.545,4.545,0,0,0-3.958-6.811Z" transform="translate(-396.486 -398.306)" fill="#3b281b"/>
    </g>
    <g id="Grupo_1178040" data-name="Grupo 1178040" transform="translate(1187.781 3287.889)">
      <path id="Trazado_999691" data-name="Trazado 999691" d="M499.042,412.659a3.639,3.639,0,1,1,6.084-.16A5.327,5.327,0,0,1,499.042,412.659Z" transform="translate(-496.372 -406.111)" fill="#a7a7a7"/>
    </g>
    <g id="Grupo_1178041" data-name="Grupo 1178041" transform="translate(1186.719 3286.828)">
      <path id="Trazado_999692" data-name="Trazado 999692" d="M497.108,409.652a6.789,6.789,0,0,1-3.57-1.031,6.376,6.376,0,0,1-3.051-6.637l.079-.374.3-.238a6.01,6.01,0,0,1,3.732-1.263,6.787,6.787,0,0,1,3.569,1.031,6.378,6.378,0,0,1,3.052,6.637l-.079.374-.3.237A6.008,6.008,0,0,1,497.108,409.652ZM492.5,402.81a4.325,4.325,0,0,0,2.151,4.007,4.67,4.67,0,0,0,2.454.714,3.963,3.963,0,0,0,2.094-.578,4.327,4.327,0,0,0-2.153-4.008,4.667,4.667,0,0,0-2.452-.713A3.964,3.964,0,0,0,492.5,402.81Z" transform="translate(-490.365 -400.111)" fill="#3b281b"/>
    </g>
    <g id="Grupo_1178043" data-name="Grupo 1178043" transform="translate(1181.647 3280.046)">
      <path id="Trazado_999693" data-name="Trazado 999693" d="M462.468,367.9a3.639,3.639,0,1,0,.329-6.078A5.326,5.326,0,0,0,462.468,367.9Z" transform="translate(-461.677 -361.75)" fill="#797979"/>
    </g>
    <g id="Grupo_1178044" data-name="Grupo 1178044" transform="translate(1180.585 3278.985)">
      <path id="Trazado_999694" data-name="Trazado 999694" d="M462.14,366.82h0a6.5,6.5,0,0,1-5.537-3.325,6.377,6.377,0,0,1,.434-7.293l.246-.292.376-.069a5.624,5.624,0,0,1,1.011-.091,6.5,6.5,0,0,1,5.539,3.327,6.377,6.377,0,0,1-.435,7.291l-.246.292-.376.069A5.627,5.627,0,0,1,462.14,366.82Zm-3.714-8.94a4.327,4.327,0,0,0,.011,4.55,4.376,4.376,0,0,0,3.7,2.269h0q.122,0,.244-.008a4.545,4.545,0,0,0-3.958-6.811Z" transform="translate(-455.666 -355.75)" fill="#3b281b"/>
    </g>
    <g id="Grupo_1178047" data-name="Grupo 1178047" transform="translate(1195.063 3278.317)">
      <path id="Trazado_999695" data-name="Trazado 999695" d="M543.333,358.623a5.327,5.327,0,0,1-5.767-1.94,5.549,5.549,0,0,1,9.846-2.578A5.328,5.328,0,0,1,543.333,358.623Z" transform="translate(-537.565 -351.973)" fill="#a7a7a7"/>
    </g>
    <g id="Grupo_1178048" data-name="Grupo 1178048" transform="translate(1193.973 3277.257)">
      <path id="Trazado_999696" data-name="Trazado 999696" d="M536.763,354.938a6.194,6.194,0,0,1-5.151-2.594l-.216-.315.034-.38A6.376,6.376,0,0,1,536.3,346.2a6.958,6.958,0,0,1,1.761-.228,6.2,6.2,0,0,1,5.152,2.593l.216.315-.034.38a6.377,6.377,0,0,1-4.867,5.449A6.955,6.955,0,0,1,536.763,354.938Zm-3.163-3.486a4.151,4.151,0,0,0,3.163,1.364,4.835,4.835,0,0,0,1.223-.159,4.327,4.327,0,0,0,3.235-3.2,4.152,4.152,0,0,0-3.164-1.364,4.837,4.837,0,0,0-1.223.159A4.325,4.325,0,0,0,533.6,351.452Z" transform="translate(-531.396 -345.973)" fill="#3b281b"/>
    </g>
    <g id="Grupo_1178050" data-name="Grupo 1178050" transform="translate(1192.488 3272.975)">
      <path id="Trazado_999697" data-name="Trazado 999697" d="M523.071,326.257a3.639,3.639,0,1,0,4.091-4.507A5.327,5.327,0,0,0,523.071,326.257Z" transform="translate(-522.997 -321.75)" fill="#797979"/>
    </g>
    <g id="Grupo_1178051" data-name="Grupo 1178051" transform="translate(1191.427 3271.861)">
      <path id="Trazado_999698" data-name="Trazado 999698" d="M522.4,315.451l.335.184a6.607,6.607,0,0,1-1.9,12.025l-.375.072-.335-.184a6.607,6.607,0,0,1,1.9-12.025Zm-1.585,10.031a4.546,4.546,0,1,0-1.634-4.245A4.325,4.325,0,0,0,520.813,325.482Z" transform="translate(-516.998 -315.451)" fill="#3b281b"/>
    </g>
    <path id="Trazado_999699" data-name="Trazado 999699" d="M244.2,422.322l-1.5-1.5,1.509-1.509a.676.676,0,0,0,0-.956L216.675,390.82a.671.671,0,0,0-.478-.2H203.475V388.5H216.2a2.779,2.779,0,0,1,1.978.819l27.537,27.537a2.8,2.8,0,0,1,0,3.956Z" transform="translate(932.527 2896.274)" fill="#3b281b"/>
    <path id="Trazado_999700" data-name="Trazado 999700" d="M171.366,426.206V375.725a.868.868,0,0,0-.868-.868h-3.473a.868.868,0,0,0-.868.868v53.086a2.6,2.6,0,0,0,2.6,2.6h37.463a.868.868,0,0,0,.868-.868v-3.473a.868.868,0,0,0-.868-.868Z" transform="translate(963.247 2907.506)" fill="#8c8c8c"/>
    <path id="Trazado_999702" data-name="Trazado 999702" d="M201.285,427.537H163.822a3.669,3.669,0,0,1-3.665-3.665V370.786a1.931,1.931,0,0,1,1.929-1.929h3.473a1.931,1.931,0,0,1,1.929,1.929v49.421h33.8a1.931,1.931,0,0,1,1.929,1.929v3.473A1.931,1.931,0,0,1,201.285,427.537Zm-39.007-56.559v52.893a1.546,1.546,0,0,0,1.544,1.544h37.271v-3.088H165.366V370.978Z" transform="translate(968.187 2912.445)" fill="#3b281b"/>
  </g>
</svg>
