<svg xmlns="http://www.w3.org/2000/svg" width="126.5" height="126" viewBox="0 0 126.5 126">
  <g id="Grupo_1178126" data-name="Grupo 1178126" transform="translate(-383.461 -3662)">
    <path id="Trazado_999707" data-name="Trazado 999707" d="M182.245,418.452h3.7a11.1,11.1,0,0,1,11.1,11.1v3.7h-3.7a11.1,11.1,0,0,1-11.1-11.1Z" transform="translate(233.006 3306.548)" fill="#3b281b"/>
    <path id="Trazado_999708" data-name="Trazado 999708" d="M254.6,418.452h-3.7a11.1,11.1,0,0,0-11.1,11.1v3.7h3.7a11.1,11.1,0,0,0,11.1-11.1Z" transform="translate(186.564 3306.548)" fill="#8c8c8c"/>
    <path id="Trazado_999711" data-name="Trazado 999711" d="M201.427,288.636a9.253,9.253,0,1,1,18.506,0v1.851H201.427Z" transform="translate(217.525 3418.782)" fill="#7a8593"/>
    <path id="Trazado_999712" data-name="Trazado 999712" d="M187.04,330.114a2.776,2.776,0,0,1,2.776-2.776h18.506a2.776,2.776,0,0,1,0,5.552H189.816A2.776,2.776,0,0,1,187.04,330.114Z" transform="translate(229.136 3380.08)" fill="#fff"/>
    <path id="Trazado_999713" data-name="Trazado 999713" d="M186.7,581.5v6.477a2.776,2.776,0,0,1-2.776,2.776h-3.7a2.776,2.776,0,0,1-2.776-2.776V581.5Z" transform="translate(236.876 3174.963)" fill="#a7a7a7"/>
    <path id="Trazado_999714" data-name="Trazado 999714" d="M474.43,581.5v6.477a2.776,2.776,0,0,1-2.776,2.776h-3.7a2.776,2.776,0,0,1-2.776-2.776V581.5Z" transform="translate(4.667 3174.963)" fill="#a7a7a7"/>
    <path id="Trazado_999716" data-name="Trazado 999716" d="M510.187,505.7a.925.925,0,1,1-.925-.925A.925.925,0,0,1,510.187,505.7Z" transform="translate(-30.164 3236.885)" fill="#3b281b"/>
    <path id="Trazado_999717" data-name="Trazado 999717" d="M452.641,505.7a.925.925,0,1,1-.925-.925A.925.925,0,0,1,452.641,505.7Z" transform="translate(16.278 3236.885)" fill="#3b281b"/>
    <path id="Trazado_999718" data-name="Trazado 999718" d="M169.709,529.672a.925.925,0,1,1-.925-.925A.925.925,0,0,1,169.709,529.672Z" transform="translate(244.616 3217.535)" fill="#3b281b"/>
    <path id="Trazado_999720" data-name="Trazado 999720" d="M486.209,529.672a.925.925,0,1,1-.925-.925A.925.925,0,0,1,486.209,529.672Z" transform="translate(-10.813 3217.535)" fill="#3b281b"/>
    <path id="Trazado_999721" data-name="Trazado 999721" d="M275.209,529.672a.925.925,0,1,1-.925-.925A.925.925,0,0,1,275.209,529.672Z" transform="translate(159.473 3217.535)" fill="#3b281b"/>
    <g id="Grupo_1178125" data-name="Grupo 1178125">
      <path id="Trazado_999260" data-name="Trazado 999260" d="M63.25,0A62.935,62.935,0,1,1,0,62.934,63.093,63.093,0,0,1,63.25,0" transform="translate(383.461 3662.066)" fill="#9d5a5c"/>
      <rect id="Rectángulo_454693" data-name="Rectángulo 454693" width="126" height="126" transform="translate(383.711 3662)" fill="none"/>
      <path id="Trazado_999702" data-name="Trazado 999702" d="M153.472,245.815H227.5v59.22H153.472Z" transform="translate(256.227 3445.873)" fill="#49586b"/>
      <path id="Trazado_999703" data-name="Trazado 999703" d="M373.049,329.608a5.552,5.552,0,1,0-2.468-10.526,5.553,5.553,0,0,0-8.983-2.515,5.553,5.553,0,0,0-10.756,1.938,5.552,5.552,0,1,0,0,11.1h3.7v6.477h15.73v-6.477Z" transform="translate(101.421 3391.691)" fill="#8c8c8c"/>
      <path id="Trazado_999704" data-name="Trazado 999704" d="M134.29,210.228a2.776,2.776,0,0,1,2.776-2.776h75.875a2.776,2.776,0,0,1,2.776,2.776v3.7a2.776,2.776,0,0,1-2.776,2.776H137.066a2.776,2.776,0,0,1-2.776-2.776Z" transform="translate(271.708 3476.834)" fill="#797979"/>
      <path id="Trazado_999705" data-name="Trazado 999705" d="M436.4,387.659v16.656h14.8v-13.88a1.851,1.851,0,0,0-1.851-1.851h-1.894a1.48,1.48,0,0,1-1.481-1.48,2.221,2.221,0,0,0-2.221-2.221H439.18A2.776,2.776,0,0,0,436.4,387.659Z" transform="translate(27.888 3333.64)" fill="#534236"/>
      <path id="Trazado_999706" data-name="Trazado 999706" d="M354.17,395.773l-3.542,3.542a1.85,1.85,0,0,0-.542,1.308V416.05h32.386V402.633l-6.861-6.86a1.85,1.85,0,0,0-1.309-.542h-7.257a1.851,1.851,0,0,1-1.309-.542l-4.468-4.468a1.851,1.851,0,0,0-1.309-.542h-3.4a1.851,1.851,0,0,0-1.851,1.851v2.935A1.85,1.85,0,0,1,354.17,395.773Z" transform="translate(97.551 3329.769)" fill="#12263f"/>
      <path id="Trazado_999709" data-name="Trazado 999709" d="M227.5,456.815v18.506H153.472V463.292h45.387a11.057,11.057,0,0,0,7.819-3.239,11.057,11.057,0,0,1,7.819-3.239Z" transform="translate(256.227 3275.587)" fill="#64554b"/>
      <path id="Trazado_999710" data-name="Trazado 999710" d="M227.5,485.588v12.954H153.472v-6.477h45.387a11.057,11.057,0,0,0,7.819-3.239,11.057,11.057,0,0,1,7.819-3.239Z" transform="translate(256.227 3252.366)" fill="#e5d5ba"/>
      <path id="Trazado_999715" data-name="Trazado 999715" d="M134.29,545.909a2.776,2.776,0,0,1,2.776-2.776h75.875a2.776,2.776,0,0,1,2.776,2.776v3.7a2.776,2.776,0,0,1-2.776,2.776H137.066a2.776,2.776,0,0,1-2.776-2.776Z" transform="translate(271.708 3205.925)" fill="#797979"/>
      <path id="Trazado_999719" data-name="Trazado 999719" d="M371.119,529.672a.925.925,0,1,1-.925-.925A.925.925,0,0,1,371.119,529.672Z" transform="translate(82.07 3217.535)" fill="#3b281b"/>
      <path id="Trazado_999722" data-name="Trazado 999722" d="M137.066,216.705h.925v55.519h-.925A2.776,2.776,0,0,0,134.29,275v3.7a2.776,2.776,0,0,0,2.776,2.776h5.552V286.1a2.776,2.776,0,0,0,2.776,2.776h3.7a2.776,2.776,0,0,0,2.776-2.776v-4.627h46.266V286.1a2.776,2.776,0,0,0,2.776,2.776h3.7a2.776,2.776,0,0,0,2.776-2.776v-4.627h5.552a2.776,2.776,0,0,0,2.776-2.776V275a2.776,2.776,0,0,0-2.776-2.776h-.925V231.51a.925.925,0,0,0-1.851,0v23.133H208.7l-.383-.383V247.24a2.777,2.777,0,0,0-2.286-2.733,6.479,6.479,0,0,0-5.219-11.772,6.481,6.481,0,0,0-9.15-2.71,6.478,6.478,0,0,0-11.973,2.468,6.478,6.478,0,0,0-.057,12.831V247.4a.926.926,0,0,1-.271.654l-3.542,3.542a2.776,2.776,0,0,0-.813,1.963v7.561H164.488a11.094,11.094,0,0,0,4.964-9.253v-3.7h-3.7a11.094,11.094,0,0,0-9.253,4.964,11.093,11.093,0,0,0-9.253-4.964h-3.7v3.7a11.093,11.093,0,0,0,4.964,9.253h-8.665V216.705h15.73v4.672a9.254,9.254,0,0,0-8.328,9.207,2.776,2.776,0,1,0,0,5.552h18.506a2.776,2.776,0,0,0,0-5.552,9.254,9.254,0,0,0-8.328-9.207v-4.672h14.8a.925.925,0,0,0,0-1.851H137.066a.925.925,0,0,1-.925-.925v-3.7a.925.925,0,0,1,.925-.925h75.875a.925.925,0,0,1,.925.925v3.7a.925.925,0,0,1-.925.925H177.78a.925.925,0,1,0,0,1.851h32.386v9.253a.925.925,0,0,0,1.851,0v-9.253h.925a2.776,2.776,0,0,0,2.776-2.776v-3.7a2.776,2.776,0,0,0-2.776-2.776H137.066a2.776,2.776,0,0,0-2.776,2.776v3.7A2.776,2.776,0,0,0,137.066,216.705Zm10.178,33.311a9.252,9.252,0,0,1,8.234,5.028,11.07,11.07,0,0,0-.832,4.225v1.851a9.253,9.253,0,0,1-9.253-9.253v-1.85Zm-7.4,16.656v-3.7h43.536a11.983,11.983,0,0,0,8.473-3.51,10.132,10.132,0,0,1,7.164-2.967h11.15v3.7h-11.15a11.982,11.982,0,0,0-8.473,3.509,10.132,10.132,0,0,1-7.164,2.968Zm18.506-5.552a9.253,9.253,0,0,0,9.253-9.253v-1.85h-1.851a9.253,9.253,0,0,0-9.253,9.253v1.851ZM149.1,230.585a7.4,7.4,0,1,1,14.8,0Zm53.972,12.945a4.627,4.627,0,1,0-2.36-8.763l-.974.484-.322-1.039a4.628,4.628,0,0,0-7.486-2.1l-1.01.894-.471-1.264a4.628,4.628,0,0,0-8.964,1.615v.925h-.925a4.627,4.627,0,0,0-.745,9.193,2.777,2.777,0,0,1,2.6-1.791h3.4a2.776,2.776,0,0,1,1.963.813l3.893,3.893v-1.93a3.7,3.7,0,0,1,3.7-3.7h4.583A3.147,3.147,0,0,1,203.067,243.529ZM177.125,252.9l2.5-2.5v4.243a.925.925,0,0,0,1.851,0V244.464a.925.925,0,0,1,.925-.925h3.4a.926.926,0,0,1,.654.271l4.468,4.468a2.776,2.776,0,0,0,1.259.722.933.933,0,0,0,.512.084q.1.007.192.007h7.257a.925.925,0,0,1,.654.271l5.281,5.281h-7.066a11.982,11.982,0,0,0-8.473,3.509,10.132,10.132,0,0,1-7.164,2.968h-6.524v-7.561A.925.925,0,0,1,177.125,252.9Zm16.384-5.664v-2.776a1.851,1.851,0,0,1,1.851-1.851h4.583a1.3,1.3,0,0,1,1.3,1.3,2.406,2.406,0,0,0,2.406,2.406h1.894a.925.925,0,0,1,.925.925v5.169l-4.356-4.356a2.776,2.776,0,0,0-1.963-.813Zm-53.668,21.282h43.536a11.983,11.983,0,0,0,8.473-3.51,10.131,10.131,0,0,1,7.164-2.968h11.15v10.178H139.842Zm65.7,17.581v-4.627h-5.552V286.1a.925.925,0,0,0,.925.925h3.7A.925.925,0,0,0,205.539,286.1Zm-69.4-7.4a.925.925,0,0,0,.925.925h75.875a.925.925,0,0,0,.925-.925V275a.925.925,0,0,0-.925-.925H137.066a.925.925,0,0,0-.925.925Zm8.328,7.4v-4.627h5.552V286.1a.925.925,0,0,1-.925.925h-3.7A.925.925,0,0,1,144.468,286.1Zm1.851-52.743a.925.925,0,0,1,.925-.925h18.506a.925.925,0,0,1,0,1.851H147.244A.925.925,0,0,1,146.319,233.361Z" transform="translate(271.708 3476.834)" fill="#3b281b" fill-rule="evenodd"/>
    </g>
    <path id="Trazado_999723" data-name="Trazado 999723" d="M200.061,367.281a.925.925,0,0,0-1.308-1.309l-1.851,1.851a.925.925,0,1,0,1.309,1.309Z" transform="translate(221.396 3349.119)" fill="#3b281b"/>
    <path id="Trazado_999724" data-name="Trazado 999724" d="M284.529,365.973a.925.925,0,0,0-1.309,1.309l1.851,1.851a.925.925,0,0,0,1.309-1.309Z" transform="translate(151.733 3349.119)" fill="#3b281b"/>
    <path id="Trazado_999725" data-name="Trazado 999725" d="M246.437,366.627a.925.925,0,0,0-1.851,0v1.851a.925.925,0,0,0,1.851,0Z" transform="translate(182.694 3349.119)" fill="#3b281b"/>
  </g>
</svg>
