<svg xmlns="http://www.w3.org/2000/svg" width="126.5" height="125.868" viewBox="0 0 126.5 125.868">
  <g id="Grupo_1178127" data-name="Grupo 1178127" transform="translate(-736.461 -3662.066)">
    <path id="Trazado_999260" data-name="Trazado 999260" d="M63.25,0A62.935,62.935,0,1,1,0,62.934,63.093,63.093,0,0,1,63.25,0" transform="translate(736.461 3662.066)" fill="#9d5a5c"/>
    <g id="Grupo_1178063" data-name="Grupo 1178063" transform="translate(796.8 3717.301)">
      <path id="Trazado_999726" data-name="Trazado 999726" d="M577.1,481v13.1a7.278,7.278,0,0,1-14.411,1.452,2.911,2.911,0,0,0,2.766-2.908v-2.911a2.91,2.91,0,0,0-2.911-2.911V481Z" transform="translate(-562.548 -481)" fill="#64554b"/>
    </g>
    <g id="Grupo_1178064" data-name="Grupo 1178064" transform="translate(756.042 3723.124)">
      <path id="Trazado_999727" data-name="Trazado 999727" d="M374.992,516.943v2.911a2.911,2.911,0,0,1-2.766,2.908c-.047,0-.1,0-.146,0H334.234a2.91,2.91,0,0,1-2.911-2.911v-2.911a2.91,2.91,0,0,1,2.911-2.911H372.08A2.911,2.911,0,0,1,374.992,516.943Z" transform="translate(-331.323 -514.032)" fill="#fff"/>
    </g>
    <g id="Grupo_1178065" data-name="Grupo 1178065" transform="translate(823.001 3737.68)">
      <path id="Trazado_999728" data-name="Trazado 999728" d="M731.573,596.613v5.822H711.194v-5.822h20.379Z" transform="translate(-711.194 -596.613)" fill="#797979"/>
    </g>
    <g id="Grupo_1178066" data-name="Grupo 1178066" transform="translate(823.001 3714.39)">
      <path id="Trazado_999729" data-name="Trazado 999729" d="M731.573,464.484v5.822H711.194v-5.822h20.379Z" transform="translate(-711.194 -464.484)" fill="#797979"/>
    </g>
    <g id="Grupo_1178067" data-name="Grupo 1178067" transform="translate(825.913 3720.213)">
      <path id="Trazado_999730" data-name="Trazado 999730" d="M727.71,497.516h14.556v17.468H727.71Z" transform="translate(-727.71 -497.516)" fill="#a7a7a7"/>
    </g>
    <g id="Grupo_1178068" data-name="Grupo 1178068" transform="translate(773.51 3685.277)">
      <path id="Trazado_999731" data-name="Trazado 999731" d="M494.467,310.968v17.468h-8.734V313.879a5.823,5.823,0,0,0-5.822-5.822H444.975a5.823,5.823,0,0,0-5.822,5.822v14.556h-8.734v-8.048a8.729,8.729,0,0,0,.439-12.595s0,0,0,0a11.651,11.651,0,0,1,11.207-8.468h40.758A11.644,11.644,0,0,1,494.467,310.968Z" transform="translate(-430.419 -299.323)" fill="#a7a7a7"/>
    </g>
    <g id="Grupo_1178069" data-name="Grupo 1178069" transform="translate(830.279 3743.503)">
      <path id="Trazado_999732" data-name="Trazado 999732" d="M758.306,629.645v5.822h-5.822v-5.822Z" transform="translate(-752.484 -629.645)" fill="#8c8c8c"/>
    </g>
    <g id="Grupo_1178070" data-name="Grupo 1178070" transform="translate(804.078 3679.455)">
      <path id="Trazado_999733" data-name="Trazado 999733" d="M618.4,266.29a2.911,2.911,0,1,1,0,5.823H606.75a2.911,2.911,0,1,1,0-5.823Z" transform="translate(-603.839 -266.29)" fill="#797979"/>
    </g>
    <g id="Grupo_1178071" data-name="Grupo 1178071" transform="translate(758.954 3731.857)">
      <path id="Trazado_999734" data-name="Trazado 999734" d="M347.839,563.581v29.112a5.823,5.823,0,0,0,5.822,5.822h26.2a5.823,5.823,0,0,0,5.822-5.822V563.581Z" transform="translate(-347.839 -563.581)" fill="#7a8593"/>
    </g>
    <g id="Grupo_1178072" data-name="Grupo 1178072" transform="translate(758.954 3714.39)">
      <path id="Trazado_999735" data-name="Trazado 999735" d="M385.685,473.218H347.839l14.556-8.734h8.734Z" transform="translate(-347.839 -464.484)" fill="#797979"/>
    </g>
    <g id="Grupo_1178073" data-name="Grupo 1178073" transform="translate(764.776 3737.68)">
      <path id="Trazado_999736" data-name="Trazado 999736" d="M407.072,605.347v13.1a1.455,1.455,0,0,1-1.456,1.456h-23.29a1.455,1.455,0,0,1-1.456-1.456v-13.1a5.826,5.826,0,0,1,7.862-5.455,5.835,5.835,0,0,1,2.327-2.5v0a5.831,5.831,0,0,1,5.823,0v0a5.835,5.835,0,0,1,2.327,2.5,5.826,5.826,0,0,1,7.862,5.455Z" transform="translate(-380.871 -596.613)" fill="#3b281b"/>
    </g>
    <g id="Grupo_1178074" data-name="Grupo 1178074" transform="translate(774.965 3731.857)">
      <path id="Trazado_999737" data-name="Trazado 999737" d="M444.5,563.581v6.6a5.831,5.831,0,0,0-5.823,0v-6.6Z" transform="translate(-438.677 -563.581)" fill="#a7a7a7"/>
    </g>
    <g id="Grupo_1178075" data-name="Grupo 1178075" transform="translate(758.954 3691.1)">
      <path id="Trazado_999738" data-name="Trazado 999738" d="M362.834,335a8.732,8.732,0,1,1-6.261-2.647A8.69,8.69,0,0,1,362.834,335S362.834,335,362.834,335Z" transform="translate(-347.839 -332.355)" fill="#64554b"/>
    </g>
    <circle id="Elipse_13685" data-name="Elipse 13685" cx="1.456" cy="1.456" r="1.456" transform="translate(769.143 3744.959)" fill="#3b281b"/>
    <circle id="Elipse_13686" data-name="Elipse 13686" cx="1.456" cy="1.456" r="1.456" transform="translate(776.421 3742.048)" fill="#3b281b"/>
    <circle id="Elipse_13687" data-name="Elipse 13687" cx="1.456" cy="1.456" r="1.456" transform="translate(772.054 3753.692)" fill="#3b281b"/>
    <circle id="Elipse_13688" data-name="Elipse 13688" cx="1.456" cy="1.456" r="1.456" transform="translate(774.966 3747.87)" fill="#3b281b"/>
    <circle id="Elipse_13689" data-name="Elipse 13689" cx="1.456" cy="1.456" r="1.456" transform="translate(779.333 3752.237)" fill="#3b281b"/>
    <circle id="Elipse_13690" data-name="Elipse 13690" cx="1.456" cy="1.456" r="1.456" transform="translate(783.699 3744.959)" fill="#3b281b"/>
    <path id="Trazado_999739" data-name="Trazado 999739" d="M413.314,301.7v-8.734h-5.823V276.955a13.115,13.115,0,0,0-13.1-13.1h-3.162a4.365,4.365,0,0,0-4.117-5.823H375.467a4.366,4.366,0,0,0-4.117,5.823H353.633a13.162,13.162,0,0,0-11.852,7.515,10.188,10.188,0,1,0-1.248,17.7V293.6l-13.541,8.124a4.373,4.373,0,0,0-3.927,4.345v2.911a4.374,4.374,0,0,0,2.911,4.116V341a7.286,7.286,0,0,0,7.278,7.278h26.2a7.29,7.29,0,0,0,7.132-5.822h.146a7.286,7.286,0,0,0,7.278-7.278V319.045a8.746,8.746,0,0,0,7.278-8.61V295.878H363.822v4.707L352.177,293.6V279.866a4.372,4.372,0,0,1,4.367-4.367h34.935a4.372,4.372,0,0,1,4.367,4.367v13.1h-5.823V301.7h2.911v14.556h-2.911v8.734H397.3v5.822h2.911V341h13.1v-2.911h-10.19v-7.278h2.911v-5.822h7.278v-8.734H410.4V301.7Zm-14.556-20.379h5.822v5.823h-5.822Zm5.822-2.911h-5.969a7.239,7.239,0,0,0-1.062-2.555l5-5a10.136,10.136,0,0,1,2.032,6.1Zm-14.556-5.822H384.2v-5.822h5.822ZM358,266.766h5.822v5.822H358Zm8.734,0h5.823v5.822h-5.823Zm8.734,0h5.822v5.822h-5.822Zm-1.456-4.367a1.457,1.457,0,0,1,1.456-1.456h11.645a1.456,1.456,0,0,1,0,2.911H375.467A1.457,1.457,0,0,1,374.012,262.4Zm-23.693,33.479,9.7,5.822H332.687l9.7-5.822Zm-6.875-2.911v-2.911h5.823v2.911Zm0-5.979a10.165,10.165,0,0,0,2.806-5.666h3.017v5.823h-5.823Zm5.969-8.577h-3.163a10.145,10.145,0,0,0-2.183-4.969,10.1,10.1,0,0,1,1.407-2.586l5,5A7.232,7.232,0,0,0,349.413,278.411Zm-20.525,1.456a7.278,7.278,0,1,1,7.278,7.278A7.286,7.286,0,0,1,328.887,279.866Zm-2.911,26.2a1.457,1.457,0,0,1,1.456-1.456h37.846a1.457,1.457,0,0,1,1.456,1.456v2.911a1.457,1.457,0,0,1-1.456,1.456H327.432a1.457,1.457,0,0,1-1.456-1.456Zm8.734,20.379a4.368,4.368,0,0,1,5.9-4.091l1.24.464.579-1.191a4.368,4.368,0,0,1,7.859,0l.579,1.191,1.24-.464a4.369,4.369,0,0,1,5.9,4.091v13.1H334.71Zm11.645-10.189a7.391,7.391,0,0,0-1.456.147v-3.058h2.911V316.4A7.391,7.391,0,0,0,346.355,316.257Zm13.1,29.112h-26.2A4.372,4.372,0,0,1,328.887,341V313.346h13.1V317.7a7.24,7.24,0,0,0-1.552,1.592,7.273,7.273,0,0,0-5.726,1.332v-4.371H331.8v23.29a2.915,2.915,0,0,0,2.911,2.911H358a2.915,2.915,0,0,0,2.911-2.911v-23.29H358v4.371a7.275,7.275,0,0,0-5.726-1.332,7.24,7.24,0,0,0-1.552-1.592v-4.358h13.1V341A4.372,4.372,0,0,1,359.456,345.37Zm7.278-5.822V316.936a8.761,8.761,0,0,0,4.367,2.108V335.18A4.372,4.372,0,0,1,366.734,339.547Zm11.645-40.758v11.645a5.823,5.823,0,0,1-11.114,2.431,4.37,4.37,0,0,0,2.38-3.887v-2.911a4.374,4.374,0,0,0-2.911-4.116V298.79ZM352.534,273.8l-5-5a10.185,10.185,0,0,1,6.1-2.035h1.456v5.969a7.23,7.23,0,0,0-2.555,1.062Zm40.4-1.062v-5.969h1.456a10.136,10.136,0,0,1,6.1,2.032l-5,5a7.234,7.234,0,0,0-2.555-1.062Zm5.822,17.321h5.822v2.911h-5.822Zm-5.822,5.822H410.4v2.911H392.935ZM403.124,327.9h-2.911v-2.911h2.911Zm7.278-5.822H392.935v-2.911H410.4Zm-2.911-5.822H395.846V301.7h11.645Z" transform="translate(431.522 3419.968)" fill="#3b281b"/>
    <path id="Trazado_999740" data-name="Trazado 999740" d="M378.435,357.129h-2.911v2.911h-2.911v2.911h2.911v2.911h2.911v-2.911h2.911V360.04h-2.911Z" transform="translate(390.708 3338.339)" fill="#3b281b"/>
  </g>
</svg>
