<svg xmlns="http://www.w3.org/2000/svg" width="126.5" height="125.868" viewBox="0 0 126.5 125.868">
  <g id="Grupo_1178131" data-name="Grupo 1178131" transform="translate(-1101.461 -4091.066)">
    <path id="Trazado_999260" data-name="Trazado 999260" d="M63.25,0A62.935,62.935,0,1,1,0,62.934,63.093,63.093,0,0,1,63.25,0" transform="translate(1101.461 4091.066)" fill="#9d5a5c"/>
    <path id="Trazado_999790" data-name="Trazado 999790" d="M364.4,236.258H344V177.972a2.914,2.914,0,0,1,2.914-2.914h14.571a2.914,2.914,0,0,1,2.914,2.914Z" transform="translate(784.287 3938.356)" fill="#49586b"/>
    <path id="Trazado_999791" data-name="Trazado 999791" d="M364.4,185.258H344v-7.286a2.914,2.914,0,0,1,2.914-2.914h14.571a2.914,2.914,0,0,1,2.914,2.914Z" transform="translate(784.287 3938.356)" fill="#a7a7a7"/>
    <path id="Trazado_999792" data-name="Trazado 999792" d="M344,453h20.4v10.2H344Z" transform="translate(784.287 3711.413)" fill="#a7a7a7"/>
    <path id="Trazado_999793" data-name="Trazado 999793" d="M367.82,508.59v5.829h11.657V508.59" transform="translate(764.834 3666.024)" fill="#12263f"/>
    <path id="Trazado_999794" data-name="Trazado 999794" d="M384.957,540.355l-1.326,14.571a2.914,2.914,0,1,1-5.829,0l-1.326-14.571" transform="translate(757.766 3640.087)" fill="#e5d5ba"/>
    <circle id="Elipse_13698" data-name="Elipse 13698" cx="20.4" cy="20.4" r="20.4" transform="translate(1155.968 4113.415)" fill="#64554b"/>
    <path id="Trazado_999796" data-name="Trazado 999796" d="M586.588,222.706l-4.036,16.582c-1.195,3.206.918,6.732,4.036,6.732s5.231-3.526,4.036-6.732Z" transform="translate(589.78 3899.451)" fill="#e5d5ba"/>
    <circle id="Elipse_13699" data-name="Elipse 13699" cx="24.771" cy="24.771" r="24.771" transform="translate(1151.597 4148.386)" fill="#7a8593"/>
    <ellipse id="Elipse_13700" data-name="Elipse 13700" cx="11.598" cy="5.07" rx="11.598" ry="5.07" transform="matrix(0.698, -0.716, 0.716, 0.698, 1176.632, 4183.585)" fill="#797979"/>
    <ellipse id="Elipse_13701" data-name="Elipse 13701" cx="6.003" cy="13.435" rx="6.003" ry="13.435" transform="translate(1170.365 4152.757)" fill="#797979"/>
    <ellipse id="Elipse_13702" data-name="Elipse 13702" cx="5.07" cy="11.598" rx="5.07" ry="11.598" transform="translate(1152.629 4173.986) rotate(-44.271)" fill="#797979"/>
    <path id="Trazado_999797" data-name="Trazado 999797" d="M355,167.117H340.426a4.371,4.371,0,0,0-4.371,4.371v58.285a1.457,1.457,0,0,0,1.457,1.457h2.914V235.6a1.457,1.457,0,0,0,1.457,1.457h.262l1.195,13.114a4.372,4.372,0,0,0,8.743.131l1.195-13.245h.262A1.457,1.457,0,0,0,355,235.6v-4.371h2.914a1.457,1.457,0,0,0,1.457-1.457V171.488A4.371,4.371,0,0,0,355,167.117Zm-14.571,2.914H355a1.457,1.457,0,0,1,1.457,1.457v5.829H338.969v-5.829A1.457,1.457,0,0,1,340.426,170.031Zm16.028,10.2v37.885H338.969V180.231Zm-7.286,69.942a1.46,1.46,0,0,1-2.92.006c0-.046,0-.092.006-.137l-1.18-12.983h5.289Zm2.914-16.028h-8.743v-2.914h8.743Zm-13.114-5.829v-7.286h17.486v7.286Z" transform="translate(790.771 3944.84)" fill="#3b281b"/>
    <path id="Trazado_999798" data-name="Trazado 999798" d="M597.814,360.621a21.523,21.523,0,0,1,2.739,0l.175-2.914h-3.089Z" transform="translate(577.185 3789.222)" fill="#e5d5ba"/>
    <path id="Trazado_999799" data-name="Trazado 999799" d="M515.555,228.24A26,26,0,0,0,503.038,205.9a21.857,21.857,0,1,0-27.423,0,26.228,26.228,0,1,0,39.94,22.338Zm-26.228-58.285a18.943,18.943,0,0,1,18.943,17.485H493.3l-2.521-10.55a1.457,1.457,0,0,0-2.827,0l-2.608,10.55H470.457A18.942,18.942,0,0,1,489.326,169.955Zm-2.667,24.392v-.175l2.667-10.768,2.608,10.768v.175a3.818,3.818,0,0,1-.408,3.5,2.667,2.667,0,0,1-4.517,0A3.818,3.818,0,0,1,486.66,194.347Zm1.209,23.693v13.522a16.9,16.9,0,0,1-3.089-10.287c0-5.158,1.836-9.807,4.546-11.657,2.71,1.923,4.546,6.572,4.546,11.657a16.9,16.9,0,0,1-3.089,10.287V218.04Zm2.914,33.514v-4.809l2.914-2.914a8.742,8.742,0,0,0,1.457.131c3.41,0,7.489-1.953,10.812-5.333,4.109-4.167,6.105-9.53,4.969-13.347a1.457,1.457,0,0,0-.947-.976c-3.745-1.21-9.034.787-13.114,4.983-3.8,3.861-5.828,8.743-5.144,12.458l-.947.772v-6.994c3.614-2.419,6-7.985,6-14.251,0-6.717-2.725-12.633-6.79-14.732a1.457,1.457,0,0,0-1.341,0c-4.065,2.1-6.79,8.014-6.79,14.732,0,6.266,2.39,11.832,6,14.251v6.994l-.831-.86c.627-3.73-1.341-8.6-5.144-12.459-4.124-4.2-9.413-6.193-13.114-4.983a1.458,1.458,0,0,0-.947.976c-1.137,3.818.86,9.18,4.969,13.347,3.322,3.381,7.4,5.333,10.812,5.333a8.738,8.738,0,0,0,1.457-.131l2.914,2.914v4.9a23.314,23.314,0,0,1-8.9-44.122,22.579,22.579,0,0,1,6.236-2.069l-.5-2.914a24.582,24.582,0,0,0-6.222,1.967,18.8,18.8,0,0,1-8.131-14.061h14.163l-.729,3.045a6.688,6.688,0,0,0,.772,6.091,5.552,5.552,0,0,0,9.3,0,6.688,6.688,0,0,0,.772-6.091l-.729-3.045h14.163a18.8,18.8,0,0,1-8.014,14.032,24.772,24.772,0,0,0-6.222-1.967l-.5,2.914a22.391,22.391,0,0,1,6.251,2.084,23.314,23.314,0,0,1-8.918,44.137Zm9.5-18.637-5.741,5.829a15.576,15.576,0,0,1,4.371-7.46c3-3.06,6.732-4.779,9.4-4.371.335,2.754-1.457,6.6-4.371,9.675a14.981,14.981,0,0,1-7.286,4.371l5.829-5.916Zm-21.857,0-2.084,2.055,5.829,5.916a14.966,14.966,0,0,1-7.286-4.371c-3.045-3.089-4.809-6.936-4.5-9.734,2.681-.364,6.4,1.37,9.4,4.371a15.578,15.578,0,0,1,4.371,7.46Z" transform="translate(687.042 3944.917)" fill="#3b281b"/>
  </g>
</svg>
