<svg xmlns="http://www.w3.org/2000/svg" width="136.157" height="136.157" viewBox="0 0 136.157 136.157">
  <g id="Grupo_1178121" data-name="Grupo 1178121" transform="translate(-549.843 -847)">
    <g id="Grupo_1178116" data-name="Grupo 1178116" transform="translate(234.132 -44)">
      <path id="Trazado_999241" data-name="Trazado 999241" d="M68.079,0A68.079,68.079,0,1,1,0,68.079,68.279,68.279,0,0,1,68.079,0" transform="translate(315.711 891)" fill="#e5d5ba" fill-rule="evenodd"/>
      <g id="Grupo_1177950" data-name="Grupo 1177950" transform="translate(50.011 722.381)">
        <g id="Grupo_1177948" data-name="Grupo 1177948" transform="translate(289.664 194.656)">
          <g id="Grupo_1177944" data-name="Grupo 1177944" transform="translate(35.457 0)">
            <path id="Trazado_999558" data-name="Trazado 999558" d="M514.319,205.93a47.837,47.837,0,0,0-3.744,10.325v.014a13.117,13.117,0,0,0-3.347,2.425,13.117,13.117,0,0,0-3.347-2.425v-.014a47.833,47.833,0,0,0-3.744-10.325,13.094,13.094,0,0,1,6.737,5.148l.355.525.355-.525A13.094,13.094,0,0,1,514.319,205.93Z" transform="translate(-500.136 -205.93)" fill="#e5d5ba"/>
          </g>
          <g id="Grupo_1177945" data-name="Grupo 1177945" transform="translate(32.621 8.51)">
            <path id="Trazado_999559" data-name="Trazado 999559" d="M497.411,255.76l3.418-1.191,3.163-.638-.085.071a30.441,30.441,0,0,0-9.843,14.112A30.44,30.44,0,0,0,484.221,254l-.085-.071,3.163.638a13.34,13.34,0,0,1,6.765,3.617,13.117,13.117,0,0,1,3.347-2.425Z" transform="translate(-484.136 -253.93)" fill="#9d5a5c"/>
          </g>
          <g id="Grupo_1177946" data-name="Grupo 1177946" transform="translate(51.058 18.438)">
            <path id="Trazado_999560" data-name="Trazado 999560" d="M592.405,339.714h-.014l-1.078-2.17a30.029,30.029,0,0,1-3.177-13.431l7.091,2.837-.043-.17a46.378,46.378,0,0,1-1.376-11.176,19.1,19.1,0,0,1,7.432,4.6l1.078,1.078V319.3a16.939,16.939,0,0,1,2.837-9.375l.014.014a16.935,16.935,0,0,1,4.085,6.609l.156.468.553-.553a24.117,24.117,0,0,1,5.631-4.184,23.833,23.833,0,0,1,6.581-2.354,23.85,23.85,0,0,1-6.538,12.211l-.553.553.468.156a16.936,16.936,0,0,1,6.609,4.085l.014.014a16.939,16.939,0,0,1-9.375,2.837h-1.971l1.078,1.078a19.1,19.1,0,0,1,4.6,7.432,46.379,46.379,0,0,1-11.176-1.376l-.17-.043,2.837,7.091a30.029,30.029,0,0,1-13.431-3.177Z" transform="translate(-588.136 -309.93)" fill="#9d5a5c"/>
          </g>
          <g id="Grupo_1177947" data-name="Grupo 1177947" transform="translate(0 7.091)">
            <path id="Trazado_999561" data-name="Trazado 999561" d="M329.906,275.714l-2.156,1.078a30.029,30.029,0,0,1-13.431,3.177l2.837-7.091-.17.043a46.375,46.375,0,0,1-11.176,1.376,19.1,19.1,0,0,1,4.6-7.432l1.078-1.078h-1.971a16.939,16.939,0,0,1-9.375-2.837l.014-.014a16.936,16.936,0,0,1,6.609-4.085l.468-.156-.553-.553a23.851,23.851,0,0,1-6.538-12.211,23.833,23.833,0,0,1,6.581,2.354,24.117,24.117,0,0,1,5.631,4.184l.553.553.156-.468a16.936,16.936,0,0,1,4.085-6.609l.014-.014a16.939,16.939,0,0,1,2.837,9.375v1.971l1.078-1.078a19.1,19.1,0,0,1,7.432-4.6,46.377,46.377,0,0,1-1.376,11.176l-.043.17,7.091-2.837A30.03,30.03,0,0,1,331,273.544l-1.078,2.17Z" transform="translate(-300.136 -245.93)" fill="#9d5a5c"/>
          </g>
        </g>
        <g id="Grupo_1177949" data-name="Grupo 1177949" transform="translate(287.408 192.226)">
          <path id="Trazado_999562" data-name="Trazado 999562" d="M376.97,230.317l-1.223-1.223a18.442,18.442,0,0,0-5.555-3.805,25.2,25.2,0,0,0,5.961-11.916l.417-2.086-2.086.417a25.227,25.227,0,0,0-11.918,5.961,18.552,18.552,0,0,0-3.841-5.594L357.5,210.9l-.94,1.41a18.248,18.248,0,0,0-3.029,8.863,20.541,20.541,0,0,0-6.689-3.749l-1.866-.624v1.969a47.509,47.509,0,0,0,.867,9.03l-6.54-2.615v2.095a31.632,31.632,0,0,0,3.32,14.068l.642,1.285a48.892,48.892,0,0,0-8.9,13.208c-.244-.041-.486-.085-.735-.112V217.581a29,29,0,0,1,9.392-13.3l4.605-3.655-8.922,1.786c-.36.072-.708.183-1.059.281a45.982,45.982,0,0,1,2.927-7.4l1.532-3.063-3.249,1.085a14.547,14.547,0,0,0-6.642,4.582,14.557,14.557,0,0,0-6.643-4.584l-3.249-1.085,1.532,3.063a45.9,45.9,0,0,1,2.926,7.4c-.352-.1-.7-.208-1.058-.281l-8.786-1.7,4.551,3.641a28.9,28.9,0,0,1,9.308,13.238V246.2a48.975,48.975,0,0,0-9.646-14.9l.652-1.3a31.613,31.613,0,0,0,3.322-14.068v-2.095l-6.54,2.615a47.507,47.507,0,0,0,.867-9.03v-1.969l-1.866.623a20.5,20.5,0,0,0-6.689,3.749,18.244,18.244,0,0,0-3.029-8.863l-.977-1.423-1.223,1.223a18.426,18.426,0,0,0-3.8,5.557,25.218,25.218,0,0,0-11.918-5.96l-2.085-.417.417,2.085a25.19,25.19,0,0,0,5.961,11.916,18.415,18.415,0,0,0-5.553,3.8l-1.275,1.224,1.471.979a18.253,18.253,0,0,0,8.861,3.029,20.562,20.562,0,0,0-3.747,6.689l-.624,1.868h1.969a47.551,47.551,0,0,0,9.03-.867l-2.615,6.54h2.095a31.609,31.609,0,0,0,14.068-3.322l1.2-.6a46.165,46.165,0,0,1,11.658,22.447,12.791,12.791,0,1,0,12.177,5.808l4.492-4.94-2.1-1.909-4.2,4.618a12.817,12.817,0,0,0-4.024-2.679,46.084,46.084,0,0,1,8.165-12.009l1.221.61a31.581,31.581,0,0,0,14.067,3.323h2.095l-2.615-6.54a47.54,47.54,0,0,0,9.03.867h1.969l-.623-1.866a20.577,20.577,0,0,0-3.747-6.689,18.239,18.239,0,0,0,8.861-3.029Zm-48.878-32.494a11.684,11.684,0,0,1,2.593,2.768l1.529,2.295,1.529-2.293a11.656,11.656,0,0,1,2.593-2.768,48.937,48.937,0,0,0-1.986,6.235,14.511,14.511,0,0,0-2.136,1.444,14.519,14.519,0,0,0-2.136-1.445,48.71,48.71,0,0,0-1.986-6.235Zm-1.024,7.914a11.793,11.793,0,0,1,4.143,2.688l1,1,1-1a11.8,11.8,0,0,1,4.129-2.682,31.67,31.67,0,0,0-5.131,7.778,31.636,31.636,0,0,0-5.146-7.782Zm-21.093,28.55,3.061-7.652-2.864.726a44.762,44.762,0,0,1-8.718,1.282,17.681,17.681,0,0,1,3.478-4.956l3.506-3.5h-5.4a15.4,15.4,0,0,1-6.967-1.657,15.556,15.556,0,0,1,4.668-2.513l2.647-.885-2.181-2.18a22.384,22.384,0,0,1-5.578-9.246,22.413,22.413,0,0,1,9.246,5.578l2.183,2.183.882-2.649a15.53,15.53,0,0,1,2.513-4.666,15.408,15.408,0,0,1,1.657,6.965v5.4l3.5-3.5a17.656,17.656,0,0,1,4.956-3.479,44.81,44.81,0,0,1-1.284,8.72l-.715,2.861,7.642-3.056a28.788,28.788,0,0,1-2.941,10.671l-.2.408-14.21-14.21-2.005,2.005,14.21,14.21-.407.2a28.794,28.794,0,0,1-10.673,2.942ZM339.242,261.4l-7.079,7.786-3.2-3.2-2.005,2.005,5.307,5.306,8.7-9.571a9.945,9.945,0,1,1-1.722-2.323Zm26.152-29.872h-5.4l3.507,3.5a17.681,17.681,0,0,1,3.478,4.956,44.794,44.794,0,0,1-8.715-1.282l-2.868-.726,3.061,7.652a28.786,28.786,0,0,1-10.673-2.942l-.407-.2,14.21-14.21-2.005-2.005-14.211,14.208-.2-.408A28.8,28.8,0,0,1,342.22,229.4l7.642,3.056-.715-2.861a44.716,44.716,0,0,1-1.284-8.72,17.677,17.677,0,0,1,4.955,3.479l3.5,3.5v-5.4a15.409,15.409,0,0,1,1.657-6.967,15.56,15.56,0,0,1,2.513,4.665l.882,2.651,2.183-2.183a22.4,22.4,0,0,1,9.246-5.578,22.375,22.375,0,0,1-5.578,9.246l-2.181,2.18,2.648.886a15.489,15.489,0,0,1,4.663,2.513,15.382,15.382,0,0,1-6.962,1.657Z" transform="translate(-287.408 -192.226)" fill="#5f4205"/>
          <path id="Trazado_999563" data-name="Trazado 999563" d="M628.136,661.93h17.019v2.837H628.136Z" transform="translate(-567.73 -578.658)" fill="#5f4205"/>
          <path id="Trazado_999564" data-name="Trazado 999564" d="M740.136,661.93h2.837v2.837h-2.837Z" transform="translate(-659.874 -578.658)" fill="#5f4205"/>
          <path id="Trazado_999565" data-name="Trazado 999565" d="M628.136,629.93h22.693v2.837H628.136Z" transform="translate(-567.73 -552.331)" fill="#5f4205"/>
          <path id="Trazado_999566" data-name="Trazado 999566" d="M646.309,200.767H658.24V197.93h-13.6l-7.5,13.495,2.479,1.376Z" transform="translate(-575.141 -196.919)" fill="#5f4205"/>
          <path id="Trazado_999567" data-name="Trazado 999567" d="M772.136,197.93h2.837v2.837h-2.837Z" transform="translate(-686.201 -196.919)" fill="#5f4205"/>
          <path id="Trazado_999568" data-name="Trazado 999568" d="M692.136,229.93h17.019v2.837H692.136Z" transform="translate(-620.384 -223.246)" fill="#5f4205"/>
          <path id="Trazado_999569" data-name="Trazado 999569" d="M708.136,261.93h14.183v2.837H708.136Z" transform="translate(-633.547 -249.572)" fill="#5f4205"/>
          <path id="Trazado_999570" data-name="Trazado 999570" d="M322.1,466.05l-6.686,12.034H292.136v2.837h24.945l7.5-13.495Z" transform="translate(-291.298 -417.505)" fill="#5f4205"/>
          <path id="Trazado_999571" data-name="Trazado 999571" d="M292.136,565.93h22.693v2.837H292.136Z" transform="translate(-291.298 -499.678)" fill="#5f4205"/>
          <path id="Trazado_999572" data-name="Trazado 999572" d="M292.136,597.93h19.856v2.837H292.136Z" transform="translate(-291.298 -526.005)" fill="#5f4205"/>
          <path id="Trazado_999573" data-name="Trazado 999573" d="M292.136,629.93h2.837v2.837h-2.837Z" transform="translate(-291.298 -552.331)" fill="#5f4205"/>
          <path id="Trazado_999574" data-name="Trazado 999574" d="M324.136,629.93h2.837v2.837h-2.837Z" transform="translate(-317.625 -552.331)" fill="#5f4205"/>
          <path id="Trazado_999575" data-name="Trazado 999575" d="M356.136,629.93h2.837v2.837h-2.837Z" transform="translate(-343.952 -552.331)" fill="#5f4205"/>
        </g>
      </g>
    </g>
  </g>
</svg>
