<svg xmlns="http://www.w3.org/2000/svg" width="77.411" height="105.104" viewBox="0 0 77.411 105.104">
  <g id="Grupo_1178116" data-name="Grupo 1178116" transform="translate(-345.295 -5615)">
    <g id="Grupo_1177782" data-name="Grupo 1177782" transform="translate(158.301 5527.032)">
      <g id="Layer_2" data-name="Layer 2" transform="translate(186.994 87.968)">
        <rect id="Rectángulo_454811" data-name="Rectángulo 454811" width="20.296" height="14.497" rx="7.249" transform="translate(26.095 16.672)" fill="#784d1e"/>
        <path id="Trazado_999349" data-name="Trazado 999349" d="M260.214,111.968h-3.686a5.529,5.529,0,0,0,0,11.058h3.686a1.843,1.843,0,0,0,1.843-1.843v-7.372A1.843,1.843,0,0,0,260.214,111.968Z" transform="translate(-236.253 -106.439)" fill="#e2eff7"/>
        <path id="Trazado_999350" data-name="Trazado 999350" d="M406.351,87.968h-7.372a11.98,11.98,0,1,0,0,23.96h7.372a11.98,11.98,0,1,0,0-23.96Z" transform="translate(-340.921 -87.968)" fill="#a06628"/>
        <rect id="Rectángulo_454812" data-name="Rectángulo 454812" width="27.545" height="18.121" rx="9.061" transform="translate(22.471 2.175)" fill="#87abc9"/>
        <rect id="Rectángulo_454813" data-name="Rectángulo 454813" width="73.935" height="77.56" rx="36.968" transform="translate(0 27.545)" fill="#3b281b"/>
        <path id="Trazado_999351" data-name="Trazado 999351" d="M259.557,287.548a1.843,1.843,0,0,0-1.087-1.216,37.268,37.268,0,0,0-24.089-1.069L188.359,297.63A1.843,1.843,0,0,0,187,299.473v14.745a29.489,29.489,0,0,0,29.489,29.489h14.745a29.489,29.489,0,0,0,29.489-29.489V295.787A29.479,29.479,0,0,0,259.557,287.548Z" transform="translate(-186.994 -238.651)" fill="#236905"/>
        <path id="Trazado_999352" data-name="Trazado 999352" d="M260.722,296.659a1.843,1.843,0,0,0-3-1.438c-6.285,5.087-15.777-.516-15.869-.59a3.055,3.055,0,0,0-.571-.221l-27.646-6.045c-15.15-4.423-24.55,1.4-24.937,1.659a1.843,1.843,0,0,0-.848,1.4L187,301.746V316.49a29.489,29.489,0,0,0,29.489,29.489h14.745a29.489,29.489,0,0,0,29.489-29.489Z" transform="translate(-186.998 -240.924)" fill="#a06628"/>
        <circle id="Elipse_13662" data-name="Elipse 13662" cx="22.108" cy="22.108" r="22.108" transform="translate(14.497 44.216)" fill="#e2eff7"/>
      </g>
      <path id="Trazado_999353" data-name="Trazado 999353" d="M187,145.1v18.431a29.489,29.489,0,0,0,29.489,29.489h14.745a29.489,29.489,0,0,0,29.489-29.489V145.1a29.489,29.489,0,0,0-27.646-29.4v-7.8a5.529,5.529,0,0,0,2.046-1.272,11.98,11.98,0,0,0,9.934,5.29h7.372a11.98,11.98,0,1,0,0-23.96h-7.372a12,12,0,0,0-9.215,4.331,5.529,5.529,0,0,0-4.608-2.488H214.645a5.529,5.529,0,0,0-5.2,3.686h-2.175a5.529,5.529,0,0,0,0,11.058h2.175a5.53,5.53,0,0,0,3.354,3.354v7.962A29.489,29.489,0,0,0,187,145.1Zm44.234,44.234H216.488a25.8,25.8,0,0,1-25.8-25.8V145.1a26.24,26.24,0,0,1,.534-5.271,28.566,28.566,0,0,1,17.657-1.751,22.117,22.117,0,1,0,35.811,8.865,21.253,21.253,0,0,0,6.58,1.143,14.343,14.343,0,0,0,5.769-1.143v16.588A25.8,25.8,0,0,1,231.233,189.337ZM256.926,142.8c-5.64,3.686-13.233,0-14.745-.94a23.012,23.012,0,0,0-3.963-4.387,34.26,34.26,0,0,1,18.062,1.309,26.147,26.147,0,0,1,.645,4.018Zm-14.634,11.519a18.431,18.431,0,1,1-18.431-18.431A18.431,18.431,0,0,1,242.291,154.319Zm12.4-19.905a38.908,38.908,0,0,0-20.274.184l.111.313a21.969,21.969,0,0,0-21.73.295,34.649,34.649,0,0,0-20.145,0A25.8,25.8,0,0,1,216.488,119.3h14.745A25.8,25.8,0,0,1,254.7,134.414Zm-9.639-42.759h7.372a8.294,8.294,0,0,1,0,16.588h-7.372a8.294,8.294,0,1,1,0-16.588ZM214.645,93.5h16.588a1.843,1.843,0,0,1,1.843,1.843v7.372a1.843,1.843,0,0,1-1.843,1.843H214.645a1.843,1.843,0,0,1-1.843-1.843V95.34A1.843,1.843,0,0,1,214.645,93.5Zm-9.215,5.529a1.843,1.843,0,0,1,1.843-1.843h1.843v3.686h-1.843A1.843,1.843,0,0,1,205.43,99.026Zm11.058,9.215h12.9v7.372h-12.9Z" transform="translate(-0.004)" fill="#3b281b"/>
    </g>
  </g>
</svg>
