<svg xmlns="http://www.w3.org/2000/svg" width="136.157" height="136.157" viewBox="0 0 136.157 136.157">
  <g id="Grupo_1178117" data-name="Grupo 1178117" transform="translate(-731.711 -891)">
    <path id="Trazado_999241" data-name="Trazado 999241" d="M68.079,0A68.079,68.079,0,1,1,0,68.079,68.279,68.279,0,0,1,68.079,0" transform="translate(731.711 891)" fill="#e5d5ba" fill-rule="evenodd"/>
    <g id="Grupo_1177943" data-name="Grupo 1177943" transform="translate(444.516 716.742)">
      <g id="Grupo_1177931" data-name="Grupo 1177931" transform="translate(339.392 270.815)">
        <path id="Trazado_999543" data-name="Trazado 999543" d="M476.643,619.719h-.016a22.082,22.082,0,0,1-10.007-5.613h.031a12.493,12.493,0,0,0,11.492-7.568,18.839,18.839,0,0,0,13.822,0,12.493,12.493,0,0,0,11.492,7.568h.031a22.082,22.082,0,0,1-10.007,5.613h-.016a21.747,21.747,0,0,1-5.285.641h-6.254a21.747,21.747,0,0,1-5.285-.641Z" transform="translate(-466.62 -606.538)" fill="#e5d5ba"/>
      </g>
      <g id="Grupo_1177932" data-name="Grupo 1177932" transform="translate(382.844 237.729)">
        <path id="Trazado_999544" data-name="Trazado 999544" d="M710.83,438.822v7.818H688.94v-7.818a1.568,1.568,0,0,1,1.564-1.564h18.763A1.568,1.568,0,0,1,710.83,438.822Z" transform="translate(-688.94 -437.258)" fill="#e5d5ba"/>
      </g>
      <g id="Grupo_1177933" data-name="Grupo 1177933" transform="translate(310.919 237.729)">
        <path id="Trazado_999545" data-name="Trazado 999545" d="M342.83,438.822v7.818H320.94v-7.818a1.568,1.568,0,0,1,1.564-1.564h18.763A1.568,1.568,0,0,1,342.83,438.822Z" transform="translate(-320.94 -437.258)" fill="#e5d5ba"/>
      </g>
      <g id="Grupo_1177934" data-name="Grupo 1177934" transform="translate(376.261 247.111)">
        <path id="Trazado_999546" data-name="Trazado 999546" d="M661.843,485.258v15.636a21.782,21.782,0,0,1-6.583,15.636h26.909a1.568,1.568,0,0,0,1.564-1.564V485.258Z" transform="translate(-655.26 -485.258)" fill="#9d5a5c"/>
      </g>
      <g id="Grupo_1177935" data-name="Grupo 1177935" transform="translate(310.919 247.111)">
        <path id="Trazado_999547" data-name="Trazado 999547" d="M342.83,500.894V485.258H320.94v29.708a1.568,1.568,0,0,0,1.564,1.564h26.909A21.782,21.782,0,0,1,342.83,500.894Z" transform="translate(-320.94 -485.258)" fill="#9d5a5c"/>
      </g>
      <g id="Grupo_1177937" data-name="Grupo 1177937" transform="translate(359.421 214.276)">
        <path id="Trazado_999549" data-name="Trazado 999549" d="M570.257,335.927c-.344-1.048-.735-2.1-1.157-3.112l2.048-6.176a12.533,12.533,0,0,1,10.836-8.506l10.539-.876-1.407,7.708a12.494,12.494,0,0,1-11.336,10.226l-2.1.156-7,.547Z" transform="translate(-569.1 -317.258)" fill="#cba8a9"/>
      </g>
      <g id="Grupo_1177938" data-name="Grupo 1177938" transform="translate(310.919 200.203)">
        <path id="Trazado_999550" data-name="Trazado 999550" d="M359.858,257.767l.719,1.235-2.158,1.3a26.121,26.121,0,0,1-13.447,3.721,28.79,28.79,0,0,1-21.7-9.851l-2.33-2.658,4.644-2.658a27.318,27.318,0,0,1,13.572-3.6,24,24,0,0,1,16.949,7.021l1.376,1.376Z" transform="translate(-320.94 -245.258)" fill="#cba8a9"/>
      </g>
      <g id="Grupo_1177939" data-name="Grupo 1177939" transform="translate(392.225 265.874)">
        <circle id="Elipse_13679" data-name="Elipse 13679" cx="3.127" cy="3.127" r="3.127" transform="translate(0)" fill="#3b281b"/>
      </g>
      <g id="Grupo_1177940" data-name="Grupo 1177940" transform="translate(382.844 253.365)">
        <circle id="Elipse_13680" data-name="Elipse 13680" cx="3.127" cy="3.127" r="3.127" transform="translate(0 0)" fill="#3b281b"/>
      </g>
      <g id="Grupo_1177941" data-name="Grupo 1177941" transform="translate(326.554 253.365)">
        <circle id="Elipse_13681" data-name="Elipse 13681" cx="3.127" cy="3.127" r="3.127" transform="translate(0 0)" fill="#3b281b"/>
      </g>
      <g id="Grupo_1177942" data-name="Grupo 1177942" transform="translate(317.173 265.874)">
        <circle id="Elipse_13682" data-name="Elipse 13682" cx="3.127" cy="3.127" r="3.127" fill="#3b281b"/>
      </g>
      <path id="Trazado_999551" data-name="Trazado 999551" d="M349.631,573.258a4.691,4.691,0,1,0,4.691,4.691A4.7,4.7,0,0,0,349.631,573.258Zm0,6.254a1.564,1.564,0,1,1,1.564-1.564A1.565,1.565,0,0,1,349.631,579.512Z" transform="translate(-29.331 -308.947)" fill="#e1cdce"/>
      <path id="Trazado_999552" data-name="Trazado 999552" d="M344.94,509.258h3.127v3.127H344.94Z" transform="translate(-29.331 -257.456)" fill="#e1cdce"/>
      <path id="Trazado_999553" data-name="Trazado 999553" d="M360.94,541.258h3.127v3.127H360.94Z" transform="translate(-42.203 -283.202)" fill="#e1cdce"/>
      <path id="Trazado_999554" data-name="Trazado 999554" d="M403.171,236.166H384.407a3.13,3.13,0,0,0-3.127,3.127v23.454a20.252,20.252,0,0,1-5.657,14.055,10.924,10.924,0,0,1-8.759-5.257,20.33,20.33,0,0,0,11.289-18.18,31.3,31.3,0,0,0-6.928-19.712,14.076,14.076,0,0,0,11.755-11.392l1.765-9.713L372.169,213.6a14.056,14.056,0,0,0-12.182,9.574l-.851,2.55c-.172-.316-.328-.638-.508-.949l-10.392-17.953a10.1,10.1,0,0,1-1.356-5.05,9.391,9.391,0,0,1,9.382-9.382,6.261,6.261,0,0,1,6.254,6.254,3.127,3.127,0,0,1-6.254,0h-3.127a6.254,6.254,0,1,0,12.509,0,9.391,9.391,0,0,0-9.382-9.382,12.523,12.523,0,0,0-12.509,12.509,13.115,13.115,0,0,0,.1,1.568,25.35,25.35,0,0,0-14.731-4.7,28.942,28.942,0,0,0-14.344,3.81l-6.3,3.6,3.59,4.1a30.393,30.393,0,0,0,22.871,10.376,27.737,27.737,0,0,0,14.265-3.951L350,216.1l5.138,8.875-2.008,1.171A31.614,31.614,0,0,0,337.5,253.365a20.33,20.33,0,0,0,11.289,18.18,10.928,10.928,0,0,1-8.759,5.257,20.252,20.252,0,0,1-5.657-14.055V239.293a3.13,3.13,0,0,0-3.127-3.127H312.482a3.13,3.13,0,0,0-3.127,3.127v37.526a3.13,3.13,0,0,0,3.127,3.127h26.287A23.367,23.367,0,0,0,354.7,286.2h6.254a23.367,23.367,0,0,0,15.93-6.254h26.287a3.13,3.13,0,0,0,3.127-3.127V239.293a3.13,3.13,0,0,0-3.127-3.127Zm-71.925,3.127v6.254H312.482v-6.254Zm-18.763,37.526V248.675h18.763v3.415a4.638,4.638,0,0,0-1.564-.288,4.691,4.691,0,0,0,0,9.382,4.639,4.639,0,0,0,1.564-.288v1.851a23.337,23.337,0,0,0,4.7,14.072Zm18.763-20.327a1.564,1.564,0,1,1-1.564-1.564A1.565,1.565,0,0,1,331.245,256.493Zm41.185-39.779,8.511-.71-1.037,5.7a10.952,10.952,0,0,1-9.929,8.955l-6.492.5a15.745,15.745,0,0,1,11.8-9.083l-.514-3.085a18.846,18.846,0,0,0-13.012,8.77l1.2-3.6a10.929,10.929,0,0,1,9.474-7.447Zm-58-8.622-1.073-1.226,2.979-1.7a25.837,25.837,0,0,1,12.793-3.4,22.28,22.28,0,0,1,15.858,6.569l1.234,1.234.882,1.523a76.522,76.522,0,0,1-18.128-2.89l-.422-.12-.862,3.007.422.12a79.685,79.685,0,0,0,18.912,3.01,24.613,24.613,0,0,1-12.077,3.183,27.258,27.258,0,0,1-20.518-9.311Zm26.2,45.274a28.481,28.481,0,0,1,14.08-24.516l1.953-1.14a37.569,37.569,0,0,1,4.294,17.42,29.876,29.876,0,0,1-6.911,19.09l-.544.654,2.4,2,.544-.652a33.006,33.006,0,0,0,7.635-21.091,40.843,40.843,0,0,0-1.453-10.773l4.727-.364a28.2,28.2,0,0,1,7.671,19.373,17.2,17.2,0,1,1-34.4,0Zm25.985,28.894a12.738,12.738,0,0,1-4.175-5.934l-2.966.99a15.848,15.848,0,0,0,3.321,5.67c-.608.053-1.22.089-1.839.089H354.7c-.619,0-1.231-.036-1.837-.091a15.893,15.893,0,0,0,3.321-5.67l-2.966-.99a12.737,12.737,0,0,1-4.175,5.934,20.3,20.3,0,0,1-5.91-2.805,14.048,14.048,0,0,0,8.572-6.708,20.263,20.263,0,0,0,12.248,0,14.048,14.048,0,0,0,8.572,6.708,20.3,20.3,0,0,1-5.91,2.807Zm36.558-42.966v6.254H384.407v-6.254Zm-23.465,37.526a23.337,23.337,0,0,0,4.7-14.072V260.9a4.639,4.639,0,0,0,1.564.288,4.691,4.691,0,0,0,0-9.382,4.639,4.639,0,0,0-1.564.288v-3.415h18.763v28.145Zm4.7-20.327a1.564,1.564,0,1,1,1.564,1.564A1.565,1.565,0,0,1,384.407,256.493Z" fill="#5f4205"/>
      <path id="Trazado_999555" data-name="Trazado 999555" d="M733.631,573.258a4.691,4.691,0,1,0,4.691,4.691A4.7,4.7,0,0,0,733.631,573.258Zm0,6.254a1.564,1.564,0,1,1,1.564-1.564A1.565,1.565,0,0,1,733.631,579.512Z" transform="translate(-338.278 -308.947)" fill="#e1cdce"/>
      <path id="Trazado_999556" data-name="Trazado 999556" d="M760.94,509.258h3.127v3.127H760.94Z" transform="translate(-364.024 -257.456)" fill="#e1cdce"/>
      <path id="Trazado_999557" data-name="Trazado 999557" d="M744.94,541.258h3.127v3.127H744.94Z" transform="translate(-351.151 -283.202)" fill="#e1cdce"/>
    </g>
  </g>
</svg>
