<svg xmlns="http://www.w3.org/2000/svg" width="103.071" height="103.649" viewBox="0 0 103.071 103.649">
  <g id="Grupo_1178117" data-name="Grupo 1178117" transform="translate(-1163.711 -5634.437)">
    <g id="Grupo_1177817" data-name="Grupo 1177817" transform="translate(870.329 5434.47)">
      <g id="Grupo_1177787" data-name="Grupo 1177787" transform="translate(353.147 225.577)">
        <g id="Grupo_1177786" data-name="Grupo 1177786" transform="translate(0)">
          <g id="Grupo_1177784" data-name="Grupo 1177784">
            <path id="Trazado_999368" data-name="Trazado 999368" d="M589.5,322.523c-1.352,1.764-3.114,4.633-4.787,7.339-2.145,3.469-5.319,7.768-5.334,12.168-.022,6.346,4.461,11.674,10.012,11.9s10.07-4.734,10.091-11.08c.016-4.5-3.508-9.651-5.711-13.433C592.264,326.825,590.718,324.222,589.5,322.523Z" transform="translate(-579.383 -322.523)" fill="#d5e6f1" fill-rule="evenodd"/>
          </g>
          <g id="Grupo_1177785" data-name="Grupo 1177785" transform="translate(9.044)">
            <path id="Trazado_999369" data-name="Trazado 999369" d="M623.74,322.523c-.336.438-.7.945-1.077,1.5,1.007,1.558,2.142,3.479,3.258,5.394,2.2,3.782,5.727,8.935,5.711,13.433-.02,5.8-3.8,10.442-8.686,11.025.226.027.454.046.684.055,5.551.227,10.07-4.734,10.092-11.08.015-4.5-3.508-9.651-5.711-13.433C626.5,326.825,624.955,324.222,623.74,322.523Z" transform="translate(-622.664 -322.523)" fill="#bfd9ea" fill-rule="evenodd"/>
          </g>
        </g>
      </g>
      <g id="Grupo_1177794" data-name="Grupo 1177794" transform="translate(331.617 265.025)">
        <g id="Grupo_1177790" data-name="Grupo 1177790" transform="translate(0)">
          <g id="Grupo_1177788" data-name="Grupo 1177788">
            <path id="Trazado_999370" data-name="Trazado 999370" d="M476.351,512.237a1.754,1.754,0,0,1,.943-.943h61.279a1.752,1.752,0,0,1,.943.943c0,10.391-1.263,15.428-11.374,21.109a9.957,9.957,0,0,1-5.094,1.333H492.809a9.958,9.958,0,0,1-5.094-1.333C477.636,527.684,476.335,522.63,476.351,512.237Z" transform="translate(-476.351 -511.294)" fill="#a06628" fill-rule="evenodd"/>
          </g>
          <g id="Grupo_1177789" data-name="Grupo 1177789" transform="translate(44.606 0)">
            <path id="Trazado_999371" data-name="Trazado 999371" d="M705.335,511.3h2.09a1.753,1.753,0,0,1,.943.943c0,10.391-1.263,15.428-11.374,21.109a9.958,9.958,0,0,1-5.094,1.333h-2.09a9.96,9.96,0,0,0,5.094-1.333c10.111-5.68,11.374-10.718,11.374-21.109A1.752,1.752,0,0,0,705.335,511.3Z" transform="translate(-689.809 -511.295)" fill="#a06628" fill-rule="evenodd"/>
          </g>
        </g>
        <g id="Grupo_1177793" data-name="Grupo 1177793">
          <g id="Grupo_1177791" data-name="Grupo 1177791">
            <path id="Trazado_999372" data-name="Trazado 999372" d="M477.293,516.723h61.279a.907.907,0,0,0,.874-.955l.068-3.531a.939.939,0,0,0-.943-.943H477.293a.94.94,0,0,0-.943.943l.065,3.544a.9.9,0,0,0,.878.942Z" transform="translate(-476.35 -511.294)" fill="#a06628" fill-rule="evenodd"/>
          </g>
          <g id="Grupo_1177792" data-name="Grupo 1177792" transform="translate(60.132)">
            <path id="Trazado_999373" data-name="Trazado 999373" d="M764.105,516.723h2.09a.907.907,0,0,0,.874-.955l.068-3.531a.939.939,0,0,0-.943-.943H764.1a.939.939,0,0,1,.943.943l-.068,3.531A.907.907,0,0,1,764.105,516.723Z" transform="translate(-764.105 -511.294)" fill="#a06628" fill-rule="evenodd"/>
          </g>
        </g>
      </g>
      <g id="Grupo_1177797" data-name="Grupo 1177797" transform="translate(308.722 201.639)">
        <g id="Grupo_1177795" data-name="Grupo 1177795" transform="translate(0 0)">
          <path id="Trazado_999374" data-name="Trazado 999374" d="M373.972,207.967a6.863,6.863,0,0,0-7.183,6.854V249.75h14.038V214.821A6.868,6.868,0,0,0,373.972,207.967Z" transform="translate(-366.789 -207.967)" fill="#d6d2cf" fill-rule="evenodd"/>
        </g>
        <g id="Grupo_1177796" data-name="Grupo 1177796" transform="translate(6.09 0)">
          <path id="Trazado_999375" data-name="Trazado 999375" d="M397.024,207.967a8.153,8.153,0,0,0-1.094.073,6.871,6.871,0,0,1,5.858,6.781V249.75h2.09V214.821a6.867,6.867,0,0,0-6.854-6.854Z" transform="translate(-395.93 -207.967)" fill="#bab4af" fill-rule="evenodd"/>
        </g>
      </g>
      <g id="Grupo_1177800" data-name="Grupo 1177800" transform="translate(295.053 237.751)">
        <g id="Grupo_1177798" data-name="Grupo 1177798" transform="translate(0 0)">
          <path id="Trazado_999376" data-name="Trazado 999376" d="M327.258,385.113l-5.191-4.337-5.191,4.337c-7.456,6.229-15.5,7.949-15.5,17.665v33.929a8.287,8.287,0,0,0,8.263,8.263h24.849a8.287,8.287,0,0,0,8.263-8.263v-33.93c0-9.716-8.041-11.435-15.5-17.665Z" transform="translate(-301.38 -380.776)" fill="#e2eff7" fill-rule="evenodd"/>
        </g>
        <g id="Grupo_1177799" data-name="Grupo 1177799" transform="translate(18.597 0)">
          <path id="Trazado_999377" data-name="Trazado 999377" d="M397.656,385.113l-5.191-4.337-2.09,1.746,3.1,2.591c7.456,6.229,15.5,7.949,15.5,17.665v33.929a8.287,8.287,0,0,1-8.263,8.263h4.18a8.287,8.287,0,0,0,8.263-8.263v-33.93c0-9.716-8.041-11.435-15.5-17.665Z" transform="translate(-390.376 -380.776)" fill="#77b45e" fill-rule="evenodd"/>
        </g>
      </g>
      <g id="Grupo_1177803" data-name="Grupo 1177803" transform="translate(295.053 256.411)">
        <g id="Grupo_1177801" data-name="Grupo 1177801" transform="translate(0 0)">
          <path id="Trazado_999378" data-name="Trazado 999378" d="M301.752,470.074a14.174,14.174,0,0,0-.372,3.336v33.939a8.2,8.2,0,0,0,.3,2.19h31.459a1.047,1.047,0,0,0,1.045-1.045V471.12a1.048,1.048,0,0,0-1.045-1.045H301.752Z" transform="translate(-301.38 -470.074)" fill="#efeeed" fill-rule="evenodd"/>
        </g>
        <g id="Grupo_1177802" data-name="Grupo 1177802" transform="translate(0 0)">
          <path id="Trazado_999379" data-name="Trazado 999379" d="M301.752,470.075a14.174,14.174,0,0,0-.372,3.336V507.35a8.2,8.2,0,0,0,.3,2.19h4.18a8.2,8.2,0,0,1-.3-2.19V473.411a14.174,14.174,0,0,1,.372-3.336Z" transform="translate(-301.38 -470.075)" fill="#d6d2cf" fill-rule="evenodd"/>
        </g>
      </g>
      <g id="Grupo_1177812" data-name="Grupo 1177812" transform="translate(299.962 266.111)">
        <g id="Grupo_1177807" data-name="Grupo 1177807" transform="translate(0 0)">
          <g id="Grupo_1177806" data-name="Grupo 1177806">
            <g id="Grupo_1177804" data-name="Grupo 1177804">
              <path id="Trazado_999380" data-name="Trazado 999380" d="M325.943,518.222a14.314,14.314,0,0,0,6.732,18.168,14.321,14.321,0,0,0-4.723-19.743,1.041,1.041,0,0,0-1.472.413Q326.189,517.623,325.943,518.222Z" transform="translate(-324.872 -516.493)" fill="#236905" fill-rule="evenodd"/>
            </g>
            <g id="Grupo_1177805" data-name="Grupo 1177805" transform="translate(1.614 0)">
              <path id="Trazado_999381" data-name="Trazado 999381" d="M337.219,535.462a14.287,14.287,0,0,0,1.564.928,14.321,14.321,0,0,0-4.723-19.743,1.041,1.041,0,0,0-1.467.4,14.317,14.317,0,0,1,5.168,17.241Q337.514,534.894,337.219,535.462Z" transform="translate(-332.594 -516.493)" fill="#236905" fill-rule="evenodd"/>
            </g>
          </g>
        </g>
        <g id="Grupo_1177811" data-name="Grupo 1177811" transform="translate(8.224 5.399)">
          <g id="Grupo_1177810" data-name="Grupo 1177810">
            <g id="Grupo_1177808" data-name="Grupo 1177808">
              <path id="Trazado_999382" data-name="Trazado 999382" d="M376.617,542.446a14.314,14.314,0,0,0-12.368,14.914A14.322,14.322,0,0,0,378.986,543.4a1.041,1.041,0,0,0-1.093-1.068Q377.258,542.36,376.617,542.446Z" transform="translate(-364.229 -542.33)" fill="#236905" fill-rule="evenodd"/>
            </g>
            <g id="Grupo_1177809" data-name="Grupo 1177809" transform="translate(0.016 0)">
              <path id="Trazado_999383" data-name="Trazado 999383" d="M376.678,542.447l-.224.033a1.041,1.041,0,0,1,.5.919,14.316,14.316,0,0,1-12.384,13.837l-.267.034c0,.031,0,.061,0,.091A14.322,14.322,0,0,0,379.047,543.4a1.041,1.041,0,0,0-1.093-1.068q-.634.029-1.275.116Z" transform="translate(-364.306 -542.331)" fill="#236905" fill-rule="evenodd"/>
            </g>
          </g>
        </g>
      </g>
      <g id="Grupo_1177815" data-name="Grupo 1177815" transform="translate(298.315 231.452)">
        <g id="Grupo_1177813" data-name="Grupo 1177813" transform="translate(0 0)">
          <path id="Trazado_999384" data-name="Trazado 999384" d="M348.215,350.633h-27.6a3.634,3.634,0,0,0-3.624,3.624v4.723a3.634,3.634,0,0,0,3.624,3.624h27.6a3.634,3.634,0,0,0,3.624-3.624v-4.723A3.634,3.634,0,0,0,348.215,350.633Z" transform="translate(-316.987 -350.633)" fill="#77b45e" fill-rule="evenodd"/>
        </g>
        <g id="Grupo_1177814" data-name="Grupo 1177814" transform="translate(0.24 0.24)">
          <path id="Trazado_999385" data-name="Trazado 999385" d="M318.137,361.182a3.637,3.637,0,0,0,3.383,2.33h27.6a3.634,3.634,0,0,0,3.624-3.624v-4.723a3.637,3.637,0,0,0-2.33-3.383,3.593,3.593,0,0,1,.24,1.294V357.8a3.634,3.634,0,0,1-3.624,3.624h-27.6A3.594,3.594,0,0,1,318.137,361.182Z" transform="translate(-318.137 -351.782)" fill="#2e8c07" fill-rule="evenodd"/>
        </g>
      </g>
      <g id="Grupo_1178116" data-name="Grupo 1178116">
        <g id="Grupo_1177816" data-name="Grupo 1177816" transform="translate(293.382 199.967)">
          <path id="Trazado_999386" data-name="Trazado 999386" d="M355.623,244.938a1.672,1.672,0,1,1,3.344,0,6.011,6.011,0,0,0,6,6,1.672,1.672,0,0,1,0,3.344A9.359,9.359,0,0,1,355.623,244.938Zm3.358-9.68c-1.945,3.051-4.15,6.509-4.161,9.832-.019,5.448,3.753,10.035,8.407,10.225a7.359,7.359,0,0,0,5.406-2.108,10.149,10.149,0,0,0,2.947-7.306c.013-3.419-2.5-7.594-4.51-10.95-.343-.569-.671-1.116-.974-1.636-.974-1.672-1.968-3.358-2.869-4.781-.972,1.458-2.054,3.21-3.114,4.921l-.209.343c-.293.47-.6.959-.923,1.461Zm4.11,23.4c.144.006.286.008.43.008a10.7,10.7,0,0,0,7.423-3.043,13.5,13.5,0,0,0,3.979-9.711c.015-4.35-2.758-8.971-4.988-12.682-.332-.554-.654-1.089-.951-1.6-1.524-2.618-3.107-5.279-4.355-7.028a1.673,1.673,0,0,0-2.687-.044c-1.346,1.757-3.036,4.491-4.672,7.136l-.21.341c-.284.46-.587.934-.9,1.421-2.081,3.264-4.671,7.327-4.686,11.621-.026,7.224,5.185,13.313,11.615,13.577Zm-45.4,22.4a12.715,12.715,0,0,1-6.016,3.444,26.75,26.75,0,0,1,6.324-5.73,1.672,1.672,0,0,0-1.816-2.809,29.909,29.909,0,0,0-4.857,3.929,12.721,12.721,0,0,1,9.918-6.653,12.454,12.454,0,0,1-3.554,7.819Zm-15.563-4.361a12.724,12.724,0,0,1,.633-8.62,12.685,12.685,0,0,1,5.477,10.5,15.83,15.83,0,0,0-.931,2.238,26.7,26.7,0,0,1-1.374-7.17,1.672,1.672,0,0,0-3.339.169,29.876,29.876,0,0,0,.967,6.144A12.714,12.714,0,0,1,302.123,276.692Zm20.852-6.86a16.061,16.061,0,0,0-11.88,4.783,16.021,16.021,0,0,0-8.235-10.365,1.674,1.674,0,0,0-2.182.612,16,16,0,0,0,6.07,22.5,1.671,1.671,0,0,0,1.411.855c.15,0,.3.006.452.006a16.07,16.07,0,0,0,11.467-4.829,15.781,15.781,0,0,0,4.519-11.974,1.671,1.671,0,0,0-1.622-1.584Zm59.613,15.787a8.294,8.294,0,0,1-4.276,1.118H348.074a8.292,8.292,0,0,1-4.275-1.118,29.824,29.824,0,0,1-5.7-3.985v-9.508h54.745C392.17,277.928,389.884,281.522,382.588,285.62Zm10.52-18.922c-.005.723-.015,1.417-.036,2.086H338.1V266.7Zm-58.352,26.984v-33.93c0-6.2-3.677-8.622-8.767-11.974-1.272-.838-2.582-1.7-3.92-2.683H309.412c-1.337.98-2.648,1.843-3.921,2.683-3.434,2.261-6.222,4.1-7.674,6.963h30.039a1.672,1.672,0,0,1,1.672,1.672v39.464a1.672,1.672,0,0,1-1.672,1.672H297.983a6.582,6.582,0,0,0,5.333,2.725h24.849A6.6,6.6,0,0,0,334.756,293.682Zm-38.031,0c0,.176.009.351.023.522h29.437v-36.12H296.823a13.551,13.551,0,0,0-.1,1.668v33.93Zm3.262-53.883v-4.723a1.954,1.954,0,0,1,1.951-1.952h27.6a1.955,1.955,0,0,1,1.952,1.952V239.8a1.955,1.955,0,0,1-1.952,1.952h-27.6A1.954,1.954,0,0,1,299.987,239.8Zm10.406-31.306a5.35,5.35,0,0,1,10.694,0v21.287H310.393Zm83.446,54.86H338.1v-3.6c0-7.916-4.884-11.218-10.1-14.657h1.547a5.3,5.3,0,0,0,5.3-5.3v-4.723a5.3,5.3,0,0,0-5.3-5.3h-5.112V208.493a8.692,8.692,0,0,0-17.381,0v21.287h-5.112a5.3,5.3,0,0,0-5.3,5.3V239.8a5.3,5.3,0,0,0,5.3,5.3h1.547c-5.219,3.44-10.1,6.741-10.1,14.657v33.93a9.946,9.946,0,0,0,9.934,9.935h24.849a9.946,9.946,0,0,0,9.934-9.935V285.95a40.35,40.35,0,0,0,4.062,2.585,11.617,11.617,0,0,0,5.912,1.547h30.239a11.613,11.613,0,0,0,5.913-1.547c5.283-2.969,8.418-5.9,10.164-9.518,1.718-3.553,2.063-7.628,2.063-13.048a3.059,3.059,0,0,0-2.614-2.614Z" transform="translate(-293.382 -199.967)" fill="#3b281b" fill-rule="evenodd"/>
        </g>
      </g>
    </g>
  </g>
</svg>
