<svg xmlns="http://www.w3.org/2000/svg" width="136.157" height="136.157" viewBox="0 0 136.157 136.157">
  <g id="Grupo_1178119" data-name="Grupo 1178119" transform="translate(-546.711 -1153)">
    <path id="Trazado_999241" data-name="Trazado 999241" d="M68.079,0A68.079,68.079,0,1,1,0,68.079,68.279,68.279,0,0,1,68.079,0" transform="translate(546.711 1153)" fill="#e5d5ba" fill-rule="evenodd"/>
    <g id="Grupo_1177953" data-name="Grupo 1177953" transform="translate(233.065 984.047)">
      <g id="Grupo_1177951" data-name="Grupo 1177951" transform="translate(407.019 258.503)">
        <path id="Trazado_999576" data-name="Trazado 999576" d="M720.806,572.29h22.986v14.366H720.806Z" transform="translate(-720.806 -572.29)" fill="#797979"/>
      </g>
      <g id="Grupo_1177952" data-name="Grupo 1177952" transform="translate(340.935 192.419)">
        <path id="Trazado_999577" data-name="Trazado 999577" d="M352.428,192.419h-2.873v2.873h-5.746v2.873h5.746v5.746h-8.62v2.873h8.62v5.746h-5.746V215.4h5.746v5.747h-8.62v2.873h8.62v5.746h-5.746v2.873h5.746v5.746h-8.62v2.873h8.62v5.746h-5.746v2.873h5.746v5.746h-8.62V258.5h8.62v5.747h-5.746v2.873h5.746v5.746h-8.62v2.873h8.62v5.746H430v-2.873H352.428Z" transform="translate(-340.935 -192.419)" fill="#5f4205"/>
        <path id="Trazado_999578" data-name="Trazado 999578" d="M427.826,630.459a4.31,4.31,0,1,0-4.31-4.31A4.315,4.315,0,0,0,427.826,630.459Zm0-5.746a1.437,1.437,0,1,1-1.437,1.437A1.438,1.438,0,0,1,427.826,624.712Z" transform="translate(-409.15 -547.136)" fill="#5f4205"/>
        <path id="Trazado_999579" data-name="Trazado 999579" d="M427.826,308.394a4.31,4.31,0,1,0-4.31-4.31A4.315,4.315,0,0,0,427.826,308.394Zm0-5.747a1.437,1.437,0,1,1-1.437,1.437A1.438,1.438,0,0,1,427.826,302.647Z" transform="translate(-409.15 -281.098)" fill="#5f4205"/>
        <path id="Trazado_999580" data-name="Trazado 999580" d="M559.955,250.588a4.31,4.31,0,1,0-4.31-4.31A4.315,4.315,0,0,0,559.955,250.588Zm0-5.746a1.437,1.437,0,1,1-1.437,1.437A1.438,1.438,0,0,1,559.955,244.841Z" transform="translate(-518.293 -233.348)" fill="#5f4205"/>
        <path id="Trazado_999581" data-name="Trazado 999581" d="M510.407,217.555a4.31,4.31,0,1,0-4.31-4.31A4.315,4.315,0,0,0,510.407,217.555Zm0-5.746a1.437,1.437,0,1,1-1.437,1.437A1.438,1.438,0,0,1,510.407,211.808Z" transform="translate(-477.365 -206.062)" fill="#5f4205"/>
        <path id="Trazado_999582" data-name="Trazado 999582" d="M467.91,258.673a5.746,5.746,0,1,0,5.515-4.137,4.31,4.31,0,1,0-5.515,4.137Zm8.389,1.61a2.873,2.873,0,1,1-2.873-2.873A2.877,2.877,0,0,1,476.3,260.282Zm-7.183-7.183a1.437,1.437,0,1,1-1.437,1.437A1.438,1.438,0,0,1,469.116,253.1Z" transform="translate(-443.257 -240.17)" fill="#5f4205"/>
        <path id="Trazado_999583" data-name="Trazado 999583" d="M513.28,586.656a7.183,7.183,0,1,0-7.183-7.183A7.191,7.191,0,0,0,513.28,586.656Zm0-11.493a4.31,4.31,0,1,1-4.31,4.31A4.315,4.315,0,0,1,513.28,575.163Z" transform="translate(-477.365 -506.206)" fill="#5f4205"/>
        <path id="Trazado_999584" data-name="Trazado 999584" d="M561.979,484.657a7.183,7.183,0,1,0,3.776-9.45,5.742,5.742,0,1,0-3.776,9.45Zm6.6-7.153a4.31,4.31,0,1,1-3.9,6.146,5.743,5.743,0,0,0,2.345-5.856A4.288,4.288,0,0,1,568.575,477.5Zm-10.056,1.437a2.873,2.873,0,1,1,2.873,2.873A2.876,2.876,0,0,1,558.518,478.94Z" transform="translate(-518.293 -424.349)" fill="#5f4205"/>
        <path id="Trazado_999585" data-name="Trazado 999585" d="M445.779,514.484a5.746,5.746,0,1,0,5.746,5.746A5.753,5.753,0,0,0,445.779,514.484Zm0,8.62a2.873,2.873,0,1,1,2.873-2.873A2.877,2.877,0,0,1,445.779,523.1Z" transform="translate(-422.793 -458.456)" fill="#5f4205"/>
        <path id="Trazado_999586" data-name="Trazado 999586" d="M701.779,459.912a5.746,5.746,0,1,0-5.747-5.746A5.753,5.753,0,0,0,701.779,459.912Zm0-8.62a2.873,2.873,0,1,1-2.873,2.873A2.877,2.877,0,0,1,701.779,451.292Z" transform="translate(-634.258 -403.884)" fill="#5f4205"/>
        <path id="Trazado_999587" data-name="Trazado 999587" d="M643.972,410.364a5.746,5.746,0,1,0-5.746-5.746A5.753,5.753,0,0,0,643.972,410.364Zm0-8.62a2.873,2.873,0,1,1-2.873,2.873A2.877,2.877,0,0,1,643.972,401.744Z" transform="translate(-586.508 -362.956)" fill="#5f4205"/>
        <path id="Trazado_999588" data-name="Trazado 999588" d="M741.633,366.2a4.31,4.31,0,1,0-4.31-4.31A4.315,4.315,0,0,0,741.633,366.2Zm0-5.746a1.437,1.437,0,1,1-1.437,1.437A1.438,1.438,0,0,1,741.633,360.454Z" transform="translate(-668.366 -328.849)" fill="#5f4205"/>
        <path id="Trazado_999589" data-name="Trazado 999589" d="M544.875,324.548a5.746,5.746,0,1,0,4.6,9.191,4.31,4.31,0,1,0,0-6.889A5.741,5.741,0,0,0,544.875,324.548Zm0,8.62a2.873,2.873,0,1,1,2.873-2.873A2.877,2.877,0,0,1,544.875,333.168Zm7.183-4.31a1.437,1.437,0,1,1-1.437,1.437A1.438,1.438,0,0,1,552.058,328.858Z" transform="translate(-504.651 -301.562)" fill="#5f4205"/>
        <path id="Trazado_999590" data-name="Trazado 999590" d="M429.262,377.332a8.622,8.622,0,1,0,5.3-7.956,5.746,5.746,0,1,0-5.3,7.956Zm14.366,0a5.746,5.746,0,1,1-5.746-5.746A5.753,5.753,0,0,1,443.628,377.332Zm-14.366-8.62a2.877,2.877,0,0,1,2.806,2.262,8.646,8.646,0,0,0-2.3,3.438,2.873,2.873,0,1,1-.51-5.7Z" transform="translate(-409.15 -335.67)" fill="#5f4205"/>
        <path id="Trazado_999591" data-name="Trazado 999591" d="M720.806,572.29h2.873v2.873h-2.873Z" transform="translate(-654.722 -506.206)" fill="#5f4205"/>
        <path id="Trazado_999592" data-name="Trazado 999592" d="M753.839,572.29h17.239v2.873H753.839Z" transform="translate(-682.009 -506.206)" fill="#5f4205"/>
        <path id="Trazado_999593" data-name="Trazado 999593" d="M720.806,605.323h2.873V608.2h-2.873Z" transform="translate(-654.722 -533.493)" fill="#5f4205"/>
        <path id="Trazado_999594" data-name="Trazado 999594" d="M753.839,605.323h17.239V608.2H753.839Z" transform="translate(-682.009 -533.493)" fill="#5f4205"/>
        <path id="Trazado_999595" data-name="Trazado 999595" d="M720.806,638.355h2.873v2.873h-2.873Z" transform="translate(-654.722 -560.778)" fill="#5f4205"/>
        <path id="Trazado_999596" data-name="Trazado 999596" d="M753.839,638.355h17.239v2.873H753.839Z" transform="translate(-682.009 -560.778)" fill="#5f4205"/>
      </g>
    </g>
  </g>
</svg>
