<svg xmlns="http://www.w3.org/2000/svg" width="136.157" height="136.157" viewBox="0 0 136.157 136.157">
  <g id="Grupo_1178120" data-name="Grupo 1178120" transform="translate(-917.711 -1153)">
    <path id="Trazado_999241" data-name="Trazado 999241" d="M68.079,0A68.079,68.079,0,1,1,0,68.079,68.279,68.279,0,0,1,68.079,0" transform="translate(917.711 1153)" fill="#e5d5ba" fill-rule="evenodd"/>
    <rect id="Rectángulo_454686" data-name="Rectángulo 454686" width="136" height="136" transform="translate(917.711 1153)" fill="none"/>
    <g id="Grupo_1177964" data-name="Grupo 1177964" transform="translate(890.067 1111.344)">
      <g id="Grupo_1177963" data-name="Grupo 1177963" transform="translate(53.735 69.993)">
        <g id="Grupo_1177954" data-name="Grupo 1177954" transform="translate(0 5.521)">
          <path id="Trazado_999597" data-name="Trazado 999597" d="M116.505,121.878h-.014a30.36,30.36,0,1,0,.014,45.246,13.609,13.609,0,0,0-.939,4.983,13.305,13.305,0,0,0,.235,2.485,35.888,35.888,0,1,1,0-60.181,13.3,13.3,0,0,0-.235,2.485A13.609,13.609,0,0,0,116.505,121.878Z" transform="translate(-60.355 -108.613)" fill="#3b281b"/>
        </g>
        <g id="Grupo_1177955" data-name="Grupo 1177955" transform="translate(5.521 11.042)">
          <path id="Trazado_999598" data-name="Trazado 999598" d="M143.729,191.987a12.17,12.17,0,0,0-.745,1.615,30.373,30.373,0,1,1-.014-45.246h.014a12.172,12.172,0,0,0,.745,1.615,13.78,13.78,0,0,0,12.119,7.205,13.8,13.8,0,1,0,0,27.606,13.781,13.781,0,0,0-12.119,7.205Z" transform="translate(-92.355 -140.613)" fill="#ede1ce"/>
        </g>
        <g id="Grupo_1177956" data-name="Grupo 1177956" transform="translate(27.606 28.986)">
          <path id="Trazado_999599" data-name="Trazado 999599" d="M236.435,262.6a8.224,8.224,0,0,1-7.757,11H228.6a8.224,8.224,0,0,1-7.757-11l5.949-16.688a1.967,1.967,0,0,1,3.7,0Z" transform="translate(-220.355 -244.613)" fill="#797979"/>
        </g>
        <g id="Grupo_1177957" data-name="Grupo 1177957" transform="translate(33.193 46.599)">
          <circle id="Elipse_13683" data-name="Elipse 13683" cx="2.822" cy="2.822" r="2.822" transform="translate(0 0)" fill="#cba8a9"/>
        </g>
        <g id="Grupo_1177958" data-name="Grupo 1177958" transform="translate(55.212 55.212)">
          <path id="Trazado_999600" data-name="Trazado 999600" d="M382.039,403.818a13.808,13.808,0,1,1-1.449,9.082,13.3,13.3,0,0,1-.235-2.484,13.609,13.609,0,0,1,.939-4.983A12.17,12.17,0,0,1,382.039,403.818Z" transform="translate(-380.355 -396.613)" fill="#cba8a9"/>
        </g>
        <g id="Grupo_1177959" data-name="Grupo 1177959" transform="translate(55.212 27.606)">
          <path id="Trazado_999601" data-name="Trazado 999601" d="M394.158,236.613a13.8,13.8,0,1,1-13.8,13.8A13.808,13.808,0,0,1,394.158,236.613Z" transform="translate(-380.355 -236.613)" fill="#cba8a9"/>
        </g>
        <g id="Grupo_1177960" data-name="Grupo 1177960" transform="translate(55.212 0)">
          <path id="Trazado_999602" data-name="Trazado 999602" d="M382.039,97.014a12.169,12.169,0,0,1-.745-1.615,13.609,13.609,0,0,1-.939-4.983,13.3,13.3,0,0,1,.235-2.485,13.8,13.8,0,1,1,1.449,9.082Z" transform="translate(-380.355 -76.613)" fill="#cba8a9"/>
        </g>
        <g id="Grupo_1177961" data-name="Grupo 1177961" transform="translate(60.733 33.127)">
          <path id="Trazado_999603" data-name="Trazado 999603" d="M420.568,276.909l.069-.014c0-5.521,5.521-8.282,5.521-8.282s2.761,4.141,2.761,8.282-4.141,8.282-8.282,8.282-8.282-4.141-8.282-8.282,2.761-8.282,2.761-8.282a10.935,10.935,0,0,1,5.452,8.3Z" transform="translate(-412.355 -268.613)" fill="#e5d5ba"/>
        </g>
        <g id="Grupo_1177962" data-name="Grupo 1177962" transform="translate(63.493 5.521)">
          <path id="Trazado_999604" data-name="Trazado 999604" d="M438.68,117.019a5.453,5.453,0,0,1-4.734,8.158h-.138a5.467,5.467,0,0,1-5.452-5.452,5.47,5.47,0,0,1,.718-2.705l4.8-8.406Z" transform="translate(-428.355 -108.613)" fill="#ede1ce"/>
        </g>
      </g>
      <path id="Trazado_999605" data-name="Trazado 999605" d="M137.933,111.4a15.193,15.193,0,0,0-8.895-13.8,15.176,15.176,0,1,0-20.744-18.434,37.268,37.268,0,1,0,0,64.473A15.179,15.179,0,1,0,129.038,125.2,15.193,15.193,0,0,0,137.933,111.4ZM122.75,71.374A12.423,12.423,0,1,1,110.327,83.8,12.438,12.438,0,0,1,122.75,71.374ZM110.392,130.22l-3.2-3.2-1.952,1.952,3.721,3.721c-.076.164-.157.323-.228.49A28.906,28.906,0,0,1,91,140.326v-5.459H88.243v5.451a28.83,28.83,0,0,1-18.085-7.5l3.848-3.848-1.952-1.952-3.848,3.848a28.822,28.822,0,0,1-7.5-18.083h5.451v-2.761H60.707a28.83,28.83,0,0,1,7.5-18.085l3.848,3.848,1.952-1.952-3.848-3.848a28.83,28.83,0,0,1,18.085-7.5v5.452H91V82.479a28.9,28.9,0,0,1,17.73,7.143c.069.167.152.327.228.49l-3.721,3.721,1.952,1.952,3.2-3.2a15.26,15.26,0,0,0,6.069,5.015,15.157,15.157,0,0,0,0,27.606A15.26,15.26,0,0,0,110.392,130.22Zm-20.769,15.69a34.507,34.507,0,1,1,18.058-63.894,15.165,15.165,0,0,0-.115,1.781c0,.508.028,1.009.076,1.5a31.747,31.747,0,1,0,0,52.2c-.048.5-.076,1-.076,1.5a15.472,15.472,0,0,0,.113,1.781A34.342,34.342,0,0,1,89.623,145.909Zm45.55-6.9a12.423,12.423,0,1,1-12.423-12.423A12.438,12.438,0,0,1,135.173,139.008ZM122.75,123.825A12.423,12.423,0,1,1,135.173,111.4,12.438,12.438,0,0,1,122.75,123.825Z" fill="#5f4205"/>
      <path id="Trazado_999606" data-name="Trazado 999606" d="M418.158,423.374a1.38,1.38,0,0,1,0,2.761h-13.8v2.761h13.8a4.141,4.141,0,1,0-4.141-4.141h2.761A1.383,1.383,0,0,1,418.158,423.374Z" transform="translate(-291.267 -291.267)"/>
      <path id="Trazado_999607" data-name="Trazado 999607" d="M418.158,484.613h-13.8v2.761h13.8a1.38,1.38,0,1,1-1.38,1.38h-2.761a4.141,4.141,0,1,0,4.141-4.141Z" transform="translate(-291.267 -344.225)"/>
      <path id="Trazado_999608" data-name="Trazado 999608" d="M427.324,113.211a6.835,6.835,0,0,0,5.934-10.225l-6-10.5-6,10.5a6.836,6.836,0,0,0,6.069,10.225Zm-3.672-8.855,3.6-6.307,3.6,6.307a4.141,4.141,0,1,1-7.208,0Z" transform="translate(-304.507 -19.753)"/>
      <path id="Trazado_999609" data-name="Trazado 999609" d="M420.687,259.314l-.676-1.013-1.09.545a13.084,13.084,0,0,0-5.033,4.806,12.273,12.273,0,0,0-4.774-4.806l-1.09-.545-.676,1.013c-.12.184-2.991,4.541-2.991,9.048,0,4.877,4.785,9.662,9.662,9.662s9.662-4.785,9.662-9.662c0-4.507-2.871-8.864-2.992-9.048Zm-6.67,15.949c-3.354,0-6.9-3.547-6.9-6.9a14.606,14.606,0,0,1,1.84-6.325,9.6,9.6,0,0,1,3.681,7.7H415.4c0-.478-.023-.937-.068-1.38h.068c0-3.172,2.265-5.321,3.669-6.351a14.553,14.553,0,0,1,1.852,6.351C420.919,271.716,417.371,275.263,414.017,275.263Z" transform="translate(-291.267 -156.96)"/>
      <path id="Trazado_999610" data-name="Trazado 999610" d="M248.5,340.613a4.141,4.141,0,1,0,4.141,4.141A4.146,4.146,0,0,0,248.5,340.613Zm0,5.521a1.38,1.38,0,1,1,1.38-1.38A1.383,1.383,0,0,1,248.5,346.134Z" transform="translate(-158.873 -225.07)"/>
      <path id="Trazado_999611" data-name="Trazado 999611" d="M225.161,238.828a3.339,3.339,0,0,0-6.289,0l-5.957,16.681a9.662,9.662,0,1,0,18.2,0ZM221.97,265.6a6.852,6.852,0,0,1-6.454-9.16l5.957-16.681a.578.578,0,0,1,1.089,0l5.957,16.681a6.854,6.854,0,0,1-6.549,9.161Z" transform="translate(-132.394 -139.014)"/>
    </g>
  </g>
</svg>
